<svg width="30" height="26" viewBox="0 0 30 26" fill="none" xmlns="http://www.w3.org/2000/svg">
<path d="M29.9988 6.88552C29.9991 6.79011 29.9775 6.69591 29.9356 6.61019L29.6519 6.03462C28.7195 4.1432 27.7872 2.25171 26.855 0.360166C26.8035 0.2555 26.7236 0.167365 26.6245 0.105739C26.5255 0.0441134 26.4111 0.0114596 26.2944 0.0114746H3.70564C3.58896 0.0114596 3.47461 0.0441134 3.37552 0.105739C3.27644 0.167365 3.19659 0.2555 3.14502 0.360166C2.11811 2.44394 1.09125 4.52706 0.0643945 6.61013C0.0224881 6.69586 0.000856567 6.79009 0.00117187 6.88552L0 6.88669V8.49562C0 9.5861 0.819609 10.488 1.875 10.6196V23.7965C1.875 25.0051 2.85826 25.9884 4.06687 25.9884H25.9331C27.1417 25.9884 28.125 25.0051 28.125 23.7965V10.6196C29.1804 10.4881 30 9.58616 30 8.49562V6.88669L29.9988 6.88552ZM25.9056 1.26151C26.7271 2.92839 27.5487 4.59509 28.3702 6.26149H26.2166L24.3686 1.26151H25.9056ZM23.036 1.26151L24.8839 6.26149H22.6772C22.6772 6.26149 21.6652 2.15448 21.4453 1.26151H23.036ZM25.1562 7.51171V8.49567C25.1562 8.98698 24.7566 9.38671 24.2653 9.38671H23.7035C23.2122 9.38671 22.8125 8.98698 22.8125 8.49567V7.51171H25.1562ZM21.5625 7.51171V8.49567C21.5625 8.98698 21.1628 9.38671 20.6715 9.38671H20.1098C19.6185 9.38671 19.2188 8.98698 19.2188 8.49567V7.51171H21.5625ZM20.1578 1.26151C20.4023 2.25427 21.3898 6.26149 21.3898 6.26149H19.1465L18.5305 1.26151H20.1578ZM15.625 1.26151H17.271L17.887 6.26149H15.625V1.26151ZM15.625 7.51171H17.9688V8.49567C17.9688 8.98698 17.5691 9.38671 17.0778 9.38671H16.5161C16.0247 9.38671 15.6251 8.98698 15.6251 8.49567V7.51171H15.625ZM12.729 1.26151H14.375V6.26149H12.113L12.729 1.26151ZM12.0312 7.51171H14.375V8.49567C14.375 8.98698 13.9753 9.38671 13.484 9.38671H12.9223C12.431 9.38671 12.0313 8.98698 12.0313 8.49567V7.51171H12.0312ZM9.84223 1.26151H11.4695L10.8535 6.26149H8.61018C8.61018 6.26149 9.59777 2.25427 9.84223 1.26151ZM10.7812 7.51171V8.49567C10.7812 8.98698 10.3816 9.38671 9.89027 9.38671H9.32854C8.83723 9.38671 8.43756 8.98698 8.43756 8.49567V7.51171H10.7812ZM8.5548 1.26151L7.32281 6.26149H5.11606L6.96404 1.26151H8.5548ZM7.18752 7.51171V8.49567C7.18752 8.98698 6.78785 9.38671 6.29654 9.38671H5.7348C5.2435 9.38671 4.84383 8.98698 4.84383 8.49567V7.51171H7.18752ZM4.09436 1.26151H5.63145L3.78346 6.26149H1.62996C2.45145 4.59503 3.27287 2.92845 4.09436 1.26151ZM2.14102 9.38671C1.64977 9.38671 1.25004 8.98698 1.25004 8.49567V7.51171H3.59379V8.49567C3.59379 8.98698 3.19412 9.38671 2.70281 9.38671H2.14102ZM12.5781 24.7384H6.20314V13.6792C6.20327 13.5724 6.24576 13.47 6.32131 13.3945C6.39685 13.3189 6.49927 13.2764 6.60609 13.2763H12.1752C12.3974 13.2763 12.5781 13.4571 12.5781 13.6792V24.7384ZM26.875 23.7965C26.875 24.3158 26.4525 24.7384 25.9331 24.7384H13.8281V13.6792C13.8281 12.7678 13.0866 12.0264 12.1752 12.0264H6.60609C5.69467 12.0264 4.95316 12.7678 4.95316 13.6792V24.7384H4.06687C3.5475 24.7384 3.12498 24.3158 3.12498 23.7965V10.5947C3.53977 10.5109 3.9204 10.3061 4.21875 10.006C4.6067 10.3953 5.14301 10.6367 5.73475 10.6367H6.29648C6.88822 10.6367 7.42453 10.3954 7.81248 10.006C8.20043 10.3953 8.73674 10.6367 9.32848 10.6367H9.89021C10.482 10.6367 11.0183 10.3954 11.4062 10.006C11.7942 10.3953 12.3305 10.6367 12.9222 10.6367H13.4839C14.0757 10.6367 14.612 10.3954 14.9999 10.006C15.3879 10.3953 15.9242 10.6367 16.5159 10.6367H17.0777C17.6694 10.6367 18.2057 10.3954 18.5937 10.006C18.9816 10.3953 19.5179 10.6367 20.1097 10.6367H20.6714C21.2631 10.6367 21.7995 10.3954 22.1874 10.006C22.5754 10.3953 23.1117 10.6367 23.7034 10.6367H24.2651C24.8569 10.6367 25.3932 10.3954 25.7811 10.006C26.0795 10.3061 26.4601 10.5109 26.8749 10.5947V23.7965H26.875ZM28.75 8.49562C28.75 8.98692 28.3504 9.38665 27.859 9.38665H27.2973C26.806 9.38665 26.4063 8.98692 26.4063 8.49562V7.51165H28.7501V8.49562H28.75Z" fill="#FAFAFA"/>
<path d="M10.7031 17.1323H8.07815C7.73297 17.1323 7.45312 17.4122 7.45312 17.7574C7.45312 18.1025 7.73291 18.3824 8.07815 18.3824H10.7031C11.0483 18.3824 11.3282 18.1025 11.3282 17.7574C11.3282 17.4122 11.0483 17.1323 10.7031 17.1323ZM23.6797 12.0262H17.7265C16.6539 12.0262 15.7812 12.8989 15.7812 13.9716V21.543C15.7812 22.6157 16.6539 23.4884 17.7265 23.4884H23.6797C24.7523 23.4884 25.625 22.6157 25.625 21.543V13.9716C25.625 12.8989 24.7524 12.0262 23.6797 12.0262ZM24.375 21.5431C24.375 21.9265 24.063 22.2384 23.6797 22.2384H17.7265C17.3432 22.2384 17.0312 21.9265 17.0312 21.5431V20.3634H20.1406C20.4858 20.3634 20.7656 20.0835 20.7656 19.7384C20.7656 19.3933 20.4858 19.1134 20.1406 19.1134H17.0312V13.9716C17.0312 13.5881 17.3432 13.2762 17.7265 13.2762H23.6797C24.063 13.2762 24.375 13.5881 24.375 13.9716V21.5431Z" fill="#FAFAFA"/>
<path d="M22.4766 19.1134H22.4141C22.0689 19.1134 21.7891 19.3933 21.7891 19.7384C21.7891 20.0835 22.0688 20.3634 22.4141 20.3634H22.4766C22.8218 20.3634 23.1016 20.0835 23.1016 19.7384C23.1016 19.3933 22.8218 19.1134 22.4766 19.1134Z" fill="#FAFAFA"/>
</svg>
