<svg width="77" height="67" viewBox="0 0 77 67" fill="none" xmlns="http://www.w3.org/2000/svg">
<path d="M66.5 46.25H66.0875L61.575 35.725C62.3401 36.0603 63.1647 36.2388 64 36.25C64.3315 36.25 64.6495 36.1183 64.8839 35.8839C65.1183 35.6494 65.25 35.3315 65.25 35V25C65.25 24.6684 65.1183 24.3505 64.8839 24.1161C64.6495 23.8817 64.3315 23.75 64 23.75C62.6983 23.757 61.4312 24.1704 60.3758 24.9323C59.3203 25.6942 58.529 26.7667 58.1125 28C57.7447 27.4864 57.2753 27.0539 56.7334 26.7292C56.1916 26.4045 55.5888 26.1946 54.9625 26.1125C54.1685 26.0099 53.3623 26.0608 52.5875 26.2625H51.5C49.3875 26.2625 48.45 25.0125 46.975 22.975L46.2375 21.9375C46.9939 21.8989 47.7268 21.6618 48.3625 21.25C48.8448 20.8999 49.2532 20.4579 49.5643 19.9495C49.8753 19.4411 50.0829 18.8763 50.175 18.2875C50.5813 18.0534 50.9366 17.7404 51.22 17.3668C51.5033 16.9933 51.7091 16.5668 51.825 16.1125C51.8778 15.7541 51.8428 15.3883 51.7231 15.0465C51.6033 14.7047 51.4024 14.397 51.1375 14.15C50.6271 13.2761 50.3475 12.2867 50.325 11.275C50.6477 11.2556 50.9504 11.112 51.1695 10.8743C51.3886 10.6366 51.507 10.3232 51.5 9.99997C51.5001 8.6751 51.237 7.36341 50.7259 6.14111C50.2147 4.9188 49.4658 3.81025 48.5226 2.87984C47.5794 1.94943 46.4607 1.21573 45.2316 0.721343C44.0024 0.226958 42.6872 -0.0182481 41.3625 -3.11321e-05C38.7628 0.0511457 36.2839 1.10666 34.4453 2.94526C32.6067 4.78386 31.5512 7.2628 31.5 9.86247C31.4766 11.1878 31.719 12.5045 32.2128 13.7346C32.7066 14.9648 33.4418 16.0836 34.375 17.025C34.6516 17.2999 34.9437 17.5586 35.25 17.8C30.425 18.975 27.8875 23.5 26.5875 27.425C26.2176 27.0522 25.7775 26.7565 25.2926 26.5548C24.8077 26.3531 24.2877 26.2495 23.7625 26.25H10.4875C9.82087 26.2489 9.16466 26.4154 8.57926 26.7343C7.99386 27.0532 7.49807 27.5143 7.1375 28.075C6.95682 28.3534 6.89417 28.6923 6.96332 29.017C7.03248 29.3416 7.22777 29.6255 7.50625 29.8062C7.78473 29.9869 8.12357 30.0496 8.44825 29.9804C8.77292 29.9112 9.05682 29.7159 9.2375 29.4375C9.37218 29.2288 9.55737 29.0576 9.77588 28.9396C9.9944 28.8216 10.2392 28.7607 10.4875 28.7625H12.75V32.5125C12.75 32.844 12.8817 33.1619 13.1161 33.3964C13.3505 33.6308 13.6685 33.7625 14 33.7625H20.25C20.5815 33.7625 20.8995 33.6308 21.1339 33.3964C21.3683 33.1619 21.5 32.844 21.5 32.5125V28.75H23.7625C23.9578 28.75 24.1513 28.7884 24.3317 28.8632C24.5122 28.938 24.6762 29.0475 24.8143 29.1856C24.9524 29.3238 25.062 29.4878 25.1368 29.6682C25.2115 29.8487 25.25 30.0421 25.25 30.2375V39.775C25.2467 40.1673 25.0885 40.5425 24.8099 40.8187C24.5313 41.095 24.1549 41.25 23.7625 41.25H10.4875C10.1295 41.2599 9.78034 41.1381 9.50617 40.9077C9.232 40.6773 9.0519 40.3543 9 40H11.5C11.8315 40 12.1495 39.8683 12.3839 39.6339C12.6183 39.3994 12.75 39.0815 12.75 38.75C12.75 38.4184 12.6183 38.1005 12.3839 37.8661C12.1495 37.6317 11.8315 37.5 11.5 37.5H9V35H10.25C10.5815 35 10.8995 34.8683 11.1339 34.6339C11.3683 34.3994 11.5 34.0815 11.5 33.75C11.5 33.4184 11.3683 33.1005 11.1339 32.8661C10.8995 32.6317 10.5815 32.5 10.25 32.5H4C3.66848 32.5 3.35054 32.6317 3.11612 32.8661C2.8817 33.1005 2.75 33.4184 2.75 33.75C2.75 34.0815 2.8817 34.3994 3.11612 34.6339C3.35054 34.8683 3.66848 35 4 35H6.5V37.5H1.5C1.16848 37.5 0.850537 37.6317 0.616116 37.8661C0.381696 38.1005 0.25 38.4184 0.25 38.75C0.25 39.0815 0.381696 39.3994 0.616116 39.6339C0.850537 39.8683 1.16848 40 1.5 40H6.5C6.55741 41.0126 6.99971 41.9649 7.73636 42.6621C8.47301 43.3592 9.44827 43.7484 10.4625 43.75H16.7125C16.1341 44.3172 15.6414 44.9657 15.25 45.675C13.5807 48.9485 12.7233 52.5755 12.75 56.25C12.75 56.5815 12.8817 56.8994 13.1161 57.1339C13.3505 57.3683 13.6685 57.5 14 57.5H17.8375C18.1574 59.9023 19.3388 62.1067 21.1621 63.7033C22.9854 65.2999 25.3265 66.18 27.75 66.18C30.1735 66.18 32.5146 65.2999 34.3379 63.7033C36.1612 62.1067 37.3426 59.9023 37.6625 57.5H56.5875C56.8281 59.4097 57.6148 61.2095 58.8531 62.6831C60.0914 64.1568 61.7287 65.2418 63.5684 65.8078C65.4082 66.3739 67.3722 66.3969 69.2247 65.8742C71.0772 65.3514 72.7395 64.3052 74.0121 62.8609C75.2846 61.4167 76.1133 59.6359 76.3986 57.7323C76.6839 55.8287 76.4138 53.8832 75.6206 52.1294C74.8275 50.3755 73.545 48.8879 71.9272 47.845C70.3093 46.802 68.4249 46.2482 66.5 46.25ZM19 31.25H15.25V28.75H19V31.25ZM62.75 26.4625V33.5375C62.0175 33.2798 61.3831 32.8011 60.9343 32.1674C60.4855 31.5338 60.2444 30.7765 60.2444 30C60.2444 29.2235 60.4855 28.4661 60.9343 27.8325C61.3831 27.1988 62.0175 26.7201 62.75 26.4625ZM54.6 28.575C55.09 28.6483 55.5453 28.8715 55.9034 29.214C56.2615 29.5564 56.5048 30.0012 56.6 30.4875L56.925 31.25C55.1846 32.1446 53.2429 32.5751 51.2875 32.5C51.1153 31.7574 51.2055 30.9782 51.5428 30.2946C51.88 29.611 52.4435 29.0652 53.1375 28.75C53.6089 28.5971 54.1065 28.5418 54.6 28.5875V28.575ZM48.4375 16.375C48.2295 16.4798 48.0548 16.6407 47.9334 16.8395C47.8119 17.0382 47.7484 17.267 47.75 17.5C47.7408 17.8147 47.6659 18.1239 47.5303 18.4081C47.3947 18.6922 47.2013 18.9449 46.9625 19.15C46.25 19.625 44.925 19.5125 43.2125 18.8375C43.1211 18.8274 43.0289 18.8274 42.9375 18.8375L42.75 18.675V13.8875C42.75 13.5411 42.8182 13.1981 42.9508 12.8781C43.0833 12.5581 43.2776 12.2674 43.5225 12.0225C43.7674 11.7776 44.0582 11.5833 44.3782 11.4507C44.6982 11.3182 45.0411 11.25 45.3875 11.25H47.75C47.7893 12.8681 48.2974 14.44 49.2125 15.775C48.9864 16.0169 48.7251 16.2233 48.4375 16.3875V16.375ZM34 9.88747C34.0625 7.94802 34.8609 6.10508 36.233 4.73298C37.6051 3.36087 39.4481 2.56248 41.3875 2.49997H41.5C43.2732 2.49881 44.9895 3.12598 46.3443 4.27017C47.699 5.41435 48.6045 7.00153 48.9 8.74997H45.3875C44.026 8.75327 42.7211 9.2956 41.7584 10.2584C40.7956 11.2211 40.2533 12.5259 40.25 13.8875V17.4C38.4845 17.1017 36.8839 16.1817 35.7376 14.8061C34.5913 13.4306 33.975 11.6903 34 9.89997V9.88747ZM37.75 20C41.8375 20 43.3375 22.1375 44.925 24.3875C46.075 26.0375 47.425 27.8375 49.675 28.475C48.9672 29.6186 48.6472 30.96 48.7625 32.3C47.211 31.961 45.7477 31.301 44.4668 30.3624C43.1858 29.4237 42.1156 28.2272 41.325 26.85C41.2569 26.6848 41.1542 26.5361 41.0237 26.4139C40.8933 26.2918 40.7382 26.199 40.5689 26.1419C40.3995 26.0848 40.2199 26.0646 40.0422 26.0828C39.8644 26.101 39.6926 26.1571 39.5383 26.2473C39.3841 26.3375 39.2509 26.4597 39.1479 26.6058C39.0449 26.7518 38.9744 26.9182 38.9412 27.0938C38.9079 27.2694 38.9127 27.45 38.9552 27.6236C38.9977 27.7972 39.0769 27.9596 39.1875 28.1C39.6406 28.8604 40.1593 29.5798 40.7375 30.25L40.625 30.325C39.4598 31.6653 38.6401 33.2702 38.2375 35H27.75V33.75C27.8375 32.9875 29.2625 20 37.75 20ZM27.75 39.7625V37.5H39C39.25 37.5 45.25 37.575 45.25 43.75V50H40.25V47.5C40.2816 46.6707 40.1415 45.8439 39.8386 45.0713C39.5357 44.2987 39.0765 43.5971 38.4897 43.0103C37.9029 42.4235 37.2012 41.9643 36.4286 41.6613C35.6561 41.3584 34.8292 41.2184 34 41.25H27.4625C27.6534 40.7773 27.751 40.2722 27.75 39.7625ZM27.75 63.75C25.9789 63.7482 24.2656 63.1197 22.9135 61.9757C21.5613 60.8318 20.6577 59.2463 20.3625 57.5H22.925C23.2129 58.5592 23.8413 59.4942 24.7132 60.1609C25.5852 60.8275 26.6524 61.1887 27.75 61.1887C28.8476 61.1887 29.9148 60.8275 30.7868 60.1609C31.6587 59.4942 32.2871 58.5592 32.575 57.5H35.1375C34.8423 59.2463 33.9387 60.8318 32.5865 61.9757C31.2344 63.1197 29.5211 63.7482 27.75 63.75ZM25.6 57.5H29.9C29.6786 57.873 29.364 58.1821 28.9871 58.3967C28.6101 58.6114 28.1838 58.7242 27.75 58.7242C27.3162 58.7242 26.8899 58.6114 26.5129 58.3967C26.136 58.1821 25.8214 57.873 25.6 57.5ZM15.25 55C15.4095 52.1229 16.1853 49.3136 17.525 46.7625C18.0226 45.8373 18.765 45.0669 19.6712 44.5356C20.5773 44.0042 21.6122 43.7325 22.6625 43.75H34C34.4996 43.7229 34.9992 43.8014 35.4665 43.9802C35.9337 44.1591 36.358 44.4344 36.7118 44.7882C37.0656 45.142 37.3408 45.5663 37.5197 46.0335C37.6986 46.5007 37.7771 47.0004 37.75 47.5V51.25C37.75 52.6023 38.1886 53.9181 39 55H15.25ZM44 55C43.2263 54.9978 42.4722 54.7564 41.8412 54.3088C41.2101 53.8612 40.7329 53.2294 40.475 52.5H46.5C46.8263 52.479 47.1534 52.5263 47.4604 52.6389C47.7674 52.7516 48.0475 52.927 48.2828 53.1541C48.5181 53.3812 48.7034 53.6548 48.8269 53.9576C48.9504 54.2604 49.0094 54.5856 49 54.9125C48.5856 54.9677 48.1681 54.997 47.75 55H44ZM52.0125 53.5375C51.8319 53.7418 51.6261 53.9224 51.4 54.075C51.2628 53.1299 50.8394 52.2496 50.1868 51.5523C49.5343 50.8551 48.6839 50.3744 47.75 50.175V43.75C47.8628 41.7104 47.2102 39.7022 45.9201 38.1184C44.63 36.5347 42.7952 35.4895 40.775 35.1875C41.0954 34.0663 41.6445 33.0236 42.3875 32.125C42.4198 32.0812 42.4491 32.0353 42.475 31.9875C44.4153 33.5613 46.7499 34.573 49.225 34.9125L52.75 50.2375C52.9479 51.3917 52.683 52.5774 52.0125 53.5375ZM55.25 49.725L51.8125 35C53.9276 35.0195 56.0175 34.5398 57.9125 33.6L63.8125 47.35L58.3625 55H54C54.5486 54.248 54.9417 53.3941 55.1564 52.4884C55.371 51.5826 55.4028 50.6432 55.25 49.725ZM66.5 55H64.35C64.6252 54.5234 65.0499 54.1509 65.5584 53.9403C66.0668 53.7297 66.6305 53.6927 67.1621 53.8352C67.6937 53.9776 68.1634 54.2915 68.4985 54.7281C68.8335 55.1647 69.0151 55.6996 69.0151 56.25C69.0151 56.8003 68.8335 57.3353 68.4985 57.7719C68.1634 58.2085 67.6937 58.5223 67.1621 58.6648C66.6305 58.8072 66.0668 58.7703 65.5584 58.5597C65.0499 58.3491 64.6252 57.9766 64.35 57.5H66.5C66.8315 57.5 67.1495 57.3683 67.3839 57.1339C67.6183 56.8994 67.75 56.5815 67.75 56.25C67.75 55.9184 67.6183 55.6005 67.3839 55.3661C67.1495 55.1317 66.8315 55 66.5 55ZM61.425 55L61.8625 54.3875C61.787 54.5874 61.7243 54.792 61.675 55H61.425ZM66.5 63.75C64.7289 63.7482 63.0156 63.1197 61.6635 61.9757C60.3113 60.8318 59.4077 59.2463 59.1125 57.5H61.675C61.9488 58.5544 62.5594 59.4905 63.414 60.166C64.2686 60.8415 65.3204 61.2195 66.4095 61.2424C67.4986 61.2652 68.5654 60.9318 69.4476 60.2928C70.3299 59.6538 70.9792 58.7441 71.297 57.7021C71.6148 56.6602 71.5837 55.5429 71.2082 54.5203C70.8328 53.4977 70.1337 52.6257 69.2172 52.0368C68.3007 51.448 67.217 51.1746 66.1308 51.2582C65.0447 51.3418 64.0156 51.7778 63.2 52.5L65.8625 48.75H66.5C68.4891 48.75 70.3968 49.5401 71.8033 50.9467C73.2098 52.3532 74 54.2608 74 56.25C74 58.2391 73.2098 60.1467 71.8033 61.5533C70.3968 62.9598 68.4891 63.75 66.5 63.75Z" fill="#F5AC01"/>
</svg>
