<svg width="62" height="68" viewBox="0 0 62 68" fill="none" xmlns="http://www.w3.org/2000/svg">
<path d="M34.1999 64.4C35.6726 64.4 36.8665 63.2061 36.8665 61.7333C36.8665 60.2606 35.6726 59.0667 34.1999 59.0667C32.7271 59.0667 31.5332 60.2606 31.5332 61.7333C31.5332 63.2061 32.7271 64.4 34.1999 64.4Z" fill="#F5AC01"/>
<path d="M23.5336 16.4001C24.4172 16.4001 25.1336 15.6837 25.1336 14.8001C25.1336 13.9164 24.4172 13.2001 23.5336 13.2001C22.6499 13.2001 21.9336 13.9164 21.9336 14.8001C21.9336 15.6837 22.6499 16.4001 23.5336 16.4001Z" fill="#F5AC01"/>
<path d="M27.8002 16.4001C28.6839 16.4001 29.4002 15.6837 29.4002 14.8001C29.4002 13.9164 28.6839 13.2001 27.8002 13.2001C26.9165 13.2001 26.2002 13.9164 26.2002 14.8001C26.2002 15.6837 26.9165 16.4001 27.8002 16.4001Z" fill="#F5AC01"/>
<path d="M32.0668 16.4001C32.9505 16.4001 33.6668 15.6837 33.6668 14.8001C33.6668 13.9164 32.9505 13.2001 32.0668 13.2001C31.1831 13.2001 30.4668 13.9164 30.4668 14.8001C30.4668 15.6837 31.1831 16.4001 32.0668 16.4001Z" fill="#F5AC01"/>
<path d="M14.4667 38.8H8.06667C7.4776 38.8 7 39.2771 7 39.8667C7 40.4563 7.4776 40.9334 8.06667 40.9334H14.4667C15.0557 40.9334 15.5333 40.4563 15.5333 39.8667C15.5333 39.2771 15.0557 38.8 14.4667 38.8ZM20.8667 38.8H17.6667C17.0776 38.8 16.6 39.2771 16.6 39.8667C16.6 40.4563 17.0776 40.9334 17.6667 40.9334H20.8667C21.4557 40.9334 21.9333 40.4563 21.9333 39.8667C21.9333 39.2771 21.4557 38.8 20.8667 38.8Z" fill="#F5AC01"/>
<path d="M61.4001 10C61.4001 4.70616 57.0939 0.400024 51.8001 0.400024C47.2403 0.400024 43.4209 3.59789 42.4473 7.86669H20.9974C18.5729 7.86669 16.6001 9.83949 16.6001 12.2646V24.9334H5.0662C3.7798 24.9334 2.7334 25.9792 2.7334 27.2656V42.8678C2.7334 44.1542 3.7798 45.2 5.0662 45.2H33.4678C34.7542 45.2 35.8001 44.1542 35.8001 42.8678V27.2656C35.8001 25.9792 34.7542 24.9334 33.4678 24.9334H18.7334V12.2646C18.7334 11.0155 19.7491 10 20.9974 10H42.2001C42.2001 14.9328 45.9403 19.0046 50.7334 19.5371V55.8603H18.7334V48.4656C18.7334 47.876 18.2558 47.399 17.6667 47.399C17.0777 47.399 16.6001 47.876 16.6001 48.4656V63.2019C16.6001 65.627 18.5729 67.5998 20.9974 67.5998H48.4689C50.8939 67.5998 52.8667 65.627 52.8667 63.2019V19.5371C57.6598 19.0046 61.4001 14.9328 61.4001 10ZM4.86673 32.4H33.6667V34.5334H4.86673V32.4ZM33.4678 43.0667H5.0662C5.01341 43.0666 4.9628 43.0457 4.92542 43.0084C4.88804 42.9711 4.86694 42.9205 4.86673 42.8678V36.6667H33.6667V42.8678C33.6667 42.9771 33.5771 43.0667 33.4678 43.0667ZM33.6667 27.2656V30.2667H4.86673V27.2656C4.86673 27.1563 4.95633 27.0667 5.0662 27.0667H33.4678C33.5771 27.0667 33.6667 27.1563 33.6667 27.2656ZM50.7334 63.2022C50.7334 64.4512 49.7177 65.4667 48.4689 65.4667H20.9974C19.7489 65.4667 18.7334 64.451 18.7334 63.2022V57.9939H50.7334V63.2022ZM51.8001 17.4667C47.6833 17.4667 44.3334 14.1168 44.3334 10C44.3334 5.88322 47.6833 2.53336 51.8001 2.53336C55.9169 2.53336 59.2667 5.88322 59.2667 10C59.2667 14.1168 55.9169 17.4667 51.8001 17.4667Z" fill="#F5AC01"/>
<path d="M54.1126 6.20832L50.5678 11.5259L49.3542 10.3123C49.2558 10.2104 49.1381 10.1292 49.008 10.0733C48.8779 10.0174 48.7379 9.98795 48.5963 9.98672C48.4546 9.98549 48.3142 10.0125 48.1831 10.0661C48.052 10.1197 47.9329 10.1989 47.8327 10.2991C47.7326 10.3992 47.6534 10.5183 47.5998 10.6494C47.5461 10.7805 47.5191 10.921 47.5204 11.0626C47.5216 11.2042 47.551 11.3442 47.6069 11.4743C47.6628 11.6045 47.7441 11.7222 47.846 11.8206L49.9793 13.9539C50.0908 14.0657 50.2258 14.1513 50.3744 14.2045C50.523 14.2577 50.6816 14.2773 50.8387 14.2617C50.9958 14.2462 51.1475 14.196 51.2828 14.1146C51.4181 14.0333 51.5337 13.923 51.6212 13.7915L55.8878 7.39152C55.9656 7.275 56.0197 7.14429 56.0469 7.00687C56.0741 6.86944 56.074 6.728 56.0465 6.59063C56.0191 6.45325 55.9648 6.32264 55.8868 6.20625C55.8088 6.08986 55.7087 5.98998 55.5921 5.91232C55.4756 5.83448 55.3448 5.78039 55.2074 5.75313C55.0699 5.72588 54.9284 5.72601 54.791 5.7535C54.6536 5.78099 54.5229 5.83532 54.4065 5.91336C54.2901 5.9914 54.1903 6.09163 54.1126 6.20832ZM12.3334 15.3334C12.9225 15.3334 13.4001 14.8563 13.4001 14.2667V8.93338C13.4001 8.34378 12.9225 7.86672 12.3334 7.86672C11.7444 7.86672 11.2668 8.34378 11.2668 8.93338V14.2667C11.2668 14.8563 11.7444 15.3334 12.3334 15.3334ZM8.06676 19.6001C8.06676 19.0105 7.58916 18.5334 7.0001 18.5334H1.66676C1.0777 18.5334 0.600098 19.0105 0.600098 19.6001C0.600098 20.1897 1.0777 20.6667 1.66676 20.6667H7.0001C7.58916 20.6667 8.06676 20.1897 8.06676 19.6001ZM7.3825 16.0062C7.59076 16.2145 7.86383 16.3187 8.13663 16.3187C8.40943 16.3187 8.6825 16.2145 8.89076 16.0062C9.09073 15.8062 9.20307 15.5349 9.20307 15.2521C9.20307 14.9692 9.09073 14.6979 8.89076 14.4979L5.09903 10.7062C5.00063 10.6043 4.88293 10.523 4.7528 10.4671C4.62266 10.4112 4.48269 10.3818 4.34106 10.3806C4.19943 10.3794 4.05897 10.4063 3.92788 10.46C3.79679 10.5136 3.6777 10.5928 3.57754 10.693C3.47739 10.7931 3.39819 10.9122 3.34455 11.0433C3.29092 11.1744 3.26393 11.3148 3.26516 11.4565C3.2664 11.5981 3.29582 11.7381 3.35172 11.8682C3.40763 11.9984 3.48889 12.1161 3.59076 12.2145L7.3825 16.0062Z" fill="#F5AC01"/>
</svg>
