<svg width="20" height="20" viewBox="0 0 20 20" fill="none" xmlns="http://www.w3.org/2000/svg">
<path d="M15.0001 0H5.00037C2.25068 0 0.000488281 2.25019 0.000488281 4.99988V15.0001C0.000488281 17.7491 2.25068 20 5.00037 20H15.0001C17.7498 20 20 17.7491 20 15.0001V4.99988C20 2.25019 17.7498 0 15.0001 0ZM18.3333 15.0001C18.3333 16.8376 16.8386 18.3333 15.0001 18.3333H5.00037C3.16267 18.3333 1.6672 16.8376 1.6672 15.0001V4.99988C1.6672 3.16193 3.16267 1.66671 5.00037 1.66671H15.0001C16.8386 1.66671 18.3333 3.16193 18.3333 4.99988V15.0001Z" fill="#FAFAFA"/>
<path d="M15.4175 5.83295C16.1078 5.83295 16.6674 5.27332 16.6674 4.58298C16.6674 3.89264 16.1078 3.33301 15.4175 3.33301C14.7271 3.33301 14.1675 3.89264 14.1675 4.58298C14.1675 5.27332 14.7271 5.83295 15.4175 5.83295Z" fill="#FAFAFA"/>
<path d="M10.0004 5C7.23842 5 5.00049 7.23818 5.00049 9.99988C5.00049 12.7606 7.23842 15.0002 10.0004 15.0002C12.7615 15.0002 15.0002 12.7606 15.0002 9.99988C15.0002 7.23818 12.7615 5 10.0004 5ZM10.0004 13.3335C8.15964 13.3335 6.6672 11.8411 6.6672 9.99988C6.6672 8.15866 8.15964 6.66671 10.0004 6.66671C11.8411 6.66671 13.3335 8.15866 13.3335 9.99988C13.3335 11.8411 11.8411 13.3335 10.0004 13.3335Z" fill="#FAFAFA"/>
</svg>
