<svg width="24" height="22" viewBox="0 0 24 22" fill="none" xmlns="http://www.w3.org/2000/svg">
<path d="M22.7109 2.05033H16.3869C16.3802 2.05033 16.3738 2.05094 16.3672 2.05132C16.1337 1.83202 15.8843 1.63037 15.6209 1.44804C15.5442 1.39503 15.4496 1.37464 15.3579 1.39134C15.2662 1.40804 15.1848 1.46046 15.1317 1.5371C15.0787 1.61379 15.0583 1.7084 15.075 1.80013C15.0917 1.89187 15.1441 1.97322 15.2208 2.02629C16.7736 3.10057 17.7006 4.86762 17.7006 6.75307C17.7006 9.92008 15.124 12.4967 11.957 12.4967C8.79005 12.4967 6.21347 9.92008 6.21347 6.75307C6.21347 3.5861 8.79005 1.00952 11.957 1.00952C12.5857 1.00952 13.2036 1.11035 13.7934 1.30924C13.8371 1.32402 13.8834 1.33003 13.9294 1.32692C13.9755 1.32382 14.0205 1.31167 14.0619 1.29117C14.1032 1.27067 14.1402 1.24221 14.1705 1.20743C14.2009 1.17264 14.2241 1.13222 14.2388 1.08846C14.2536 1.04471 14.2596 0.99849 14.2565 0.952427C14.2534 0.906365 14.2412 0.861366 14.2207 0.820001C14.2002 0.778636 14.1718 0.741714 14.137 0.711345C14.1022 0.680976 14.0618 0.657754 14.0181 0.643006C13.3557 0.419646 12.6622 0.306396 11.957 0.306396C8.4023 0.306396 5.51034 3.19835 5.51034 6.75307C5.51034 10.3078 8.4023 13.1998 11.957 13.1998C15.5117 13.1998 18.4037 10.3078 18.4037 6.75307C18.4037 5.28372 17.9018 3.87879 17.0119 2.75346H22.7109C23.034 2.75346 23.2969 3.01629 23.2969 3.3394V14.4044H20.5162C20.322 14.4044 20.1646 14.5618 20.1646 14.756C20.1646 14.9502 20.322 15.1076 20.5162 15.1076H23.2969V16.9539C23.2969 17.277 23.034 17.5398 22.7109 17.5398H1.28906C0.965953 17.5398 0.703125 17.277 0.703125 16.9539V15.1076H18.7456C18.9398 15.1076 19.0972 14.9502 19.0972 14.756C19.0972 14.5618 18.9398 14.4044 18.7456 14.4044H0.703125V3.3394C0.703125 3.01629 0.965953 2.75346 1.28906 2.75346H5.48147C5.67567 2.75346 5.83303 2.5961 5.83303 2.4019C5.83303 2.20769 5.67567 2.05033 5.48147 2.05033H1.28906C0.57825 2.05033 0 2.62863 0 3.3394V16.9538C0 17.6646 0.57825 18.2429 1.28906 18.2429H8.99512V20.9904H7.93378C7.73958 20.9904 7.58222 21.1478 7.58222 21.342C7.58222 21.5362 7.73958 21.6935 7.93378 21.6935H15.9802C16.1745 21.6935 16.3318 21.5362 16.3318 21.342C16.3318 21.1478 16.1745 20.9904 15.9802 20.9904H14.9189V18.2429H22.7109C23.4217 18.2429 24 17.6646 24 16.9538V3.3394C24 2.62863 23.4217 2.05033 22.7109 2.05033ZM14.2158 20.9905H9.69825V18.2429H14.2158V20.9905Z" fill="#FAFAFA"/>
<path d="M9.45221 3.9448C9.37721 3.54735 9.02921 3.25879 8.62468 3.25879H8.24874C8.05454 3.25879 7.89718 3.41615 7.89718 3.61035C7.89718 3.80455 8.05454 3.96191 8.24874 3.96191H8.62468C8.65708 3.96193 8.68846 3.97326 8.7134 3.99394C8.73833 4.01463 8.75527 4.04337 8.76127 4.07521L9.80171 9.58602C9.81692 9.66652 9.85976 9.73918 9.92283 9.79146C9.98591 9.84373 10.0653 9.87234 10.1472 9.87234H10.3844C10.2765 9.99225 10.2168 10.1479 10.2168 10.3092C10.2168 10.6715 10.5106 10.9653 10.8729 10.9653C11.2353 10.9653 11.5291 10.6715 11.5291 10.3092C11.5291 10.1412 11.4654 9.9884 11.3615 9.87234H12.8078C12.6999 9.99225 12.6402 10.1479 12.6403 10.3092C12.6403 10.6715 12.934 10.9653 13.2964 10.9653C13.6587 10.9653 13.9525 10.6715 13.9525 10.3092C13.9525 10.1412 13.8888 9.9884 13.785 9.87234H14.1013C14.2955 9.87234 14.4529 9.71498 14.4529 9.52077C14.4529 9.32657 14.2955 9.16921 14.1013 9.16921H10.4385L10.295 8.40951H14.224C14.3059 8.40951 14.3852 8.38092 14.4483 8.32869C14.5113 8.27645 14.5542 8.20384 14.5694 8.12338L15.1934 4.83149L15.1945 4.82516C15.2155 4.70212 15.1814 4.57687 15.1009 4.48148C15.0613 4.43441 15.0118 4.39659 14.956 4.37066C14.9002 4.34473 14.8394 4.33132 14.7779 4.33138H9.5252L9.45221 3.9448ZM9.97655 6.72201H10.9357L11.0077 7.70638H10.1625L9.97655 6.72201ZM12.4871 6.72201L12.4151 7.70638H11.7127L11.6407 6.72201H12.4871ZM11.5893 6.01888L11.5174 5.03455H12.6104L12.5385 6.01888H11.5893ZM13.1202 7.70638L13.1921 6.72201H14.1195L13.9329 7.70638H13.1202ZM14.2528 6.01888H13.2436L13.3155 5.03455H14.4394L14.2528 6.01888ZM10.8123 5.03455L10.8843 6.01888H9.8438L9.65795 5.03455H10.8123ZM2.29004 11.8953H4.36946C4.56366 11.8953 4.72102 11.738 4.72102 11.5438C4.72102 11.3496 4.56366 11.1922 4.36946 11.1922H2.29004C2.09584 11.1922 1.93848 11.3496 1.93848 11.5438C1.93848 11.738 2.09584 11.8953 2.29004 11.8953ZM2.29004 13.4811H6.17007C6.36427 13.4811 6.52163 13.3237 6.52163 13.1295C6.52163 12.9353 6.36427 12.7779 6.17007 12.7779H2.29004C2.09584 12.7779 1.93848 12.9353 1.93848 13.1295C1.93848 13.3237 2.09584 13.4811 2.29004 13.4811ZM20.8561 4.0798C20.8099 4.0798 20.7642 4.08889 20.7216 4.10655C20.6789 4.12422 20.6401 4.15011 20.6075 4.18276C20.5748 4.21541 20.549 4.25417 20.5313 4.29682C20.5136 4.33948 20.5045 4.3852 20.5045 4.43137V5.31126H19.6246C19.4304 5.31126 19.2731 5.46862 19.2731 5.66282C19.2731 5.85702 19.4304 6.01438 19.6246 6.01438H20.5045V6.89427C20.5045 7.08848 20.6619 7.24584 20.8561 7.24584C21.0503 7.24584 21.2077 7.08848 21.2077 6.89427V6.01438H22.0875C22.2817 6.01438 22.4391 5.85702 22.4391 5.66282C22.4391 5.46862 22.2817 5.31126 22.0875 5.31126H21.2077V4.43137C21.2077 4.33813 21.1706 4.24871 21.1047 4.18277C21.0388 4.11684 20.9493 4.0798 20.8561 4.0798Z" fill="#FAFAFA"/>
</svg>
