<svg width="30" height="28" viewBox="0 0 30 28" fill="none" xmlns="http://www.w3.org/2000/svg">
<path d="M11.5994 10.6524C11.4736 10.5152 11.3213 10.405 11.1515 10.3286C10.9818 10.2522 10.7984 10.2112 10.6123 10.2079C9.85881 10.1983 9.23549 10.799 9.22272 11.5519C9.22174 11.6096 9.23214 11.6669 9.25332 11.7206C9.2745 11.7743 9.30604 11.8232 9.34615 11.8647C9.38626 11.9062 9.43415 11.9394 9.48709 11.9624C9.54002 11.9854 9.59697 11.9977 9.65467 11.9987L9.66229 11.9987C9.77753 11.9987 9.88814 11.9534 9.97029 11.8726C10.0524 11.7918 10.0996 11.6819 10.1015 11.5667C10.1025 11.5025 10.1162 11.4392 10.1418 11.3803C10.1674 11.3214 10.2043 11.2682 10.2504 11.2236C10.2966 11.179 10.3511 11.144 10.4108 11.1205C10.4706 11.097 10.5343 11.0855 10.5985 11.0867C10.6649 11.0875 10.7305 11.102 10.791 11.1292C10.8516 11.1565 10.9059 11.196 10.9505 11.2452C10.9894 11.2878 11.0363 11.3223 11.0886 11.3468C11.1409 11.3712 11.1974 11.3852 11.2551 11.3878C11.3127 11.3904 11.3703 11.3816 11.4246 11.362C11.4789 11.3423 11.5287 11.3122 11.5713 11.2732C11.6139 11.2343 11.6485 11.1874 11.6729 11.1351C11.6974 11.0828 11.7113 11.0263 11.7139 10.9686C11.7165 10.911 11.7078 10.8534 11.6881 10.7991C11.6685 10.7448 11.6383 10.695 11.5994 10.6524ZM13.9374 12.0846C13.8703 11.9274 13.7718 11.7856 13.6481 11.6677C13.5244 11.5498 13.378 11.4584 13.2178 11.3989C12.5689 11.1596 11.8456 11.4922 11.6052 12.1403C11.5658 12.2493 11.571 12.3695 11.6198 12.4747C11.6685 12.5798 11.7569 12.6615 11.8656 12.7018C11.9743 12.7421 12.0945 12.7379 12.2001 12.6899C12.3056 12.642 12.388 12.5543 12.4292 12.446C12.5014 12.2513 12.7189 12.1517 12.9135 12.2235C12.9615 12.241 13.0054 12.2683 13.0424 12.3036C13.0794 12.3388 13.1087 12.3814 13.1285 12.4285C13.1741 12.5358 13.2605 12.6205 13.3686 12.6641C13.4767 12.7077 13.5977 12.7066 13.7049 12.661C13.8122 12.6154 13.8969 12.529 13.9405 12.4209C13.9841 12.3128 13.983 12.1918 13.9374 12.0846ZM16.7697 8.19251C16.7289 8.15173 16.6804 8.11941 16.6271 8.09737C16.5738 8.07534 16.5166 8.06403 16.4589 8.06409C16.4012 8.06415 16.344 8.07558 16.2908 8.09772C16.2375 8.11987 16.1891 8.15229 16.1483 8.19315L15.734 8.60823C15.6926 8.64892 15.6596 8.69743 15.637 8.75095C15.6144 8.80448 15.6026 8.86195 15.6023 8.92005C15.6021 8.97815 15.6134 9.03573 15.6355 9.08944C15.6577 9.14316 15.6903 9.19195 15.7314 9.23299C15.7725 9.27403 15.8214 9.30651 15.8751 9.32854C15.9289 9.35058 15.9865 9.36174 16.0446 9.36137C16.1027 9.361 16.1601 9.34911 16.2136 9.3264C16.2671 9.30368 16.3155 9.27059 16.3561 9.22903L16.7704 8.81395C16.8527 8.73145 16.8989 8.61964 16.8988 8.5031C16.8986 8.38655 16.8522 8.27483 16.7697 8.19251ZM14.0357 13.8658H13.45C13.3335 13.8658 13.2217 13.9121 13.1393 13.9945C13.0569 14.0769 13.0106 14.1887 13.0106 14.3052C13.0106 14.4218 13.0569 14.5335 13.1393 14.616C13.2217 14.6984 13.3335 14.7447 13.45 14.7447H14.0357C14.1523 14.7447 14.264 14.6984 14.3464 14.616C14.4289 14.5335 14.4752 14.4218 14.4752 14.3052C14.4752 14.1887 14.4289 14.0769 14.3464 13.9945C14.264 13.9121 14.1523 13.8658 14.0357 13.8658ZM18.5266 13.8658H17.9408C17.8242 13.8658 17.7125 13.9121 17.6301 13.9945C17.5476 14.0769 17.5013 14.1887 17.5013 14.3052C17.5013 14.4218 17.5476 14.5335 17.6301 14.616C17.7125 14.6984 17.8242 14.7447 17.9408 14.7447H18.5266C18.6431 14.7447 18.7549 14.6984 18.8373 14.616C18.9197 14.5335 18.966 14.4218 18.966 14.3052C18.966 14.1887 18.9197 14.0769 18.8373 13.9945C18.7549 13.9121 18.6431 13.8658 18.5266 13.8658Z" fill="#FAFAFA"/>
<path d="M29.9859 21.7895L29.8714 21.1718C29.7985 20.7771 29.4538 20.4907 29.052 20.4907C29.0015 20.4907 28.9507 20.4953 28.9006 20.5045L26.5709 20.9325L27.626 20.2272C27.7613 20.1368 27.8671 20.0088 27.9304 19.8589C27.9936 19.709 28.0116 19.5438 27.9819 19.3838C27.9651 19.2937 27.9334 19.207 27.8883 19.1271L27.569 18.5618C27.5143 18.4652 27.4409 18.3805 27.3531 18.3125C27.2654 18.2446 27.1649 18.1948 27.0577 18.166C26.9523 18.1383 26.8425 18.1313 26.7344 18.1456C26.8531 17.4907 26.9127 16.8265 26.9125 16.1609C26.9125 15.8618 26.7326 15.6044 26.4757 15.4901C26.8114 14.6916 26.8343 13.7774 26.5024 12.9402C26.4757 12.8725 26.4354 12.811 26.3838 12.7596C26.3327 12.7083 26.2716 12.668 26.2043 12.6412C25.7582 12.4629 25.2789 12.3829 24.7991 12.4065C24.7382 11.18 23.7231 10.2008 22.4838 10.2008C22.3206 10.2008 22.1615 10.2182 22.0078 10.2505C22.1172 9.5992 22.0463 8.93036 21.8029 8.31641C21.7758 8.2466 21.7344 8.18318 21.6815 8.13014C21.6296 8.07804 21.5675 8.03716 21.4991 8.01002C21.0735 7.83993 20.6193 7.75266 20.1609 7.75291C19.4686 7.75291 18.8063 7.94756 18.2345 8.30943C18.0197 7.68626 17.6659 7.12013 17.1999 6.65387C17.1308 6.58423 17.0485 6.52902 16.9579 6.49142C16.8672 6.45382 16.77 6.43459 16.6719 6.43485C16.5737 6.4346 16.4765 6.45384 16.3859 6.49146C16.2952 6.52908 16.2129 6.58432 16.1437 6.65399L14.016 8.78656C13.6104 8.42443 13.0855 8.22463 12.5418 8.22541C12.4142 8.22541 12.2853 8.2366 12.1588 8.25863C11.7004 8.33844 11.2786 8.56279 10.9552 8.89138C10.5406 8.69129 10.0655 8.62303 9.60904 8.70248C9.51005 8.71988 9.41235 8.74396 9.3166 8.77455V7.13123C9.3166 5.99956 8.40706 5.07724 7.28194 5.05779V4.1258C7.62636 4.06621 7.88933 3.76603 7.88933 3.40486V1.29321C7.88933 0.889384 7.56079 0.560791 7.15691 0.560791H3.58323C3.17934 0.560791 2.85081 0.889384 2.85081 1.29321V3.40486C2.85081 3.76603 3.11378 4.06621 3.45819 4.1258V5.05767C2.33308 5.07706 1.42359 5.99938 1.42359 7.13112V19.957C0.546209 20.7494 0 21.855 0 23.0776C0 25.4826 2.11083 27.4393 4.70547 27.4393L22.2945 27.4341C22.8948 27.4339 23.4594 27.17 23.8435 26.7103C24.0276 26.4906 24.1624 26.2337 24.2386 25.9573C24.3147 25.6809 24.3305 25.3913 24.2849 25.1082L27.798 25.7395C27.8466 25.7483 27.8964 25.7527 27.9458 25.7527C28.121 25.7527 28.2889 25.6989 28.431 25.5973C28.5218 25.5323 28.5985 25.4497 28.6568 25.3545C28.7151 25.2593 28.7538 25.1534 28.7705 25.043L28.8656 24.4045C28.8793 24.3136 28.8778 24.2211 28.8611 24.1307C28.8315 23.9709 28.7557 23.8232 28.6432 23.706C28.5306 23.5887 28.3862 23.507 28.2277 23.4709L26.9895 23.1868L29.3169 22.7592C29.4248 22.7398 29.5277 22.6991 29.6198 22.6395C29.7118 22.58 29.7911 22.5027 29.8531 22.4123C29.9154 22.3224 29.9592 22.2211 29.9819 22.1142C30.0047 22.0073 30.0061 21.8969 29.9859 21.7895ZM24.9621 13.2813C25.2266 13.2813 25.4867 13.3232 25.7368 13.4058C25.9603 14.0863 25.8766 14.8203 25.5267 15.4266H24.3429L24.7206 15.048C24.7614 15.0071 24.7937 14.9586 24.8157 14.9053C24.8377 14.8519 24.849 14.7948 24.8489 14.7371C24.8489 14.6794 24.8374 14.6222 24.8153 14.5689C24.7931 14.5156 24.7607 14.4672 24.7198 14.4265C24.679 14.3857 24.6305 14.3534 24.5772 14.3314C24.5238 14.3093 24.4667 14.298 24.409 14.2981C24.3513 14.2982 24.2941 14.3096 24.2408 14.3317C24.1876 14.3539 24.1392 14.3863 24.0984 14.4272L23.8985 14.6275C23.8064 14.324 23.6446 14.0462 23.4262 13.8162C23.8624 13.4699 24.3978 13.2813 24.9621 13.2813ZM22.4838 11.0796C23.2774 11.0796 23.9231 11.7272 23.9231 12.5232C23.9231 12.538 23.9224 12.5525 23.922 12.5672C23.4587 12.7178 23.0318 12.9695 22.6676 13.3113C22.6095 13.2889 22.5504 13.2692 22.4905 13.2522C22.4294 12.9193 22.2864 12.6068 22.0743 12.343C21.8622 12.0792 21.5878 11.8724 21.2758 11.7411C21.5324 11.3436 21.9776 11.0796 22.4838 11.0796ZM20.1609 8.6317C20.4593 8.6317 20.7527 8.67998 21.0353 8.77549C21.2592 9.44109 21.2204 10.1671 20.9266 10.805C20.6868 11.0232 20.495 11.2891 20.3637 11.5855C20.2851 11.59 20.2068 11.5989 20.1292 11.6122C19.7849 11.6722 19.4638 11.8216 19.1951 12.0383C19.1036 11.8714 18.9919 11.7165 18.8627 11.5768L19.8704 10.5668C19.9112 10.526 19.9435 10.4775 19.9655 10.4241C19.9875 10.3708 19.9988 10.3136 19.9988 10.2559C19.9987 10.1982 19.9873 10.1411 19.9651 10.0878C19.943 10.0345 19.9105 9.98611 19.8696 9.94536C19.8288 9.9046 19.7803 9.87228 19.727 9.85026C19.6736 9.82823 19.6165 9.81693 19.5588 9.81699C19.501 9.81706 19.4439 9.82849 19.3906 9.85064C19.3373 9.87278 19.2889 9.90521 19.2481 9.94607L18.1467 11.05C17.9336 10.9491 17.7062 10.8815 17.4725 10.8498C17.577 10.3147 17.8384 9.82274 18.2235 9.43671C18.7414 8.91757 19.4294 8.6317 20.1609 8.6317ZM16.7935 15.4266H16.4126C16.3484 15.2634 16.1898 15.1476 16.0038 15.1476C15.8177 15.1476 15.6591 15.2634 15.595 15.4266H15.1468C15.2509 15.2572 15.2299 15.0326 15.083 14.886C15.0421 14.8453 14.9936 14.8129 14.9403 14.7909C14.887 14.7689 14.8298 14.7576 14.7721 14.7576C14.7144 14.7577 14.6572 14.7691 14.6039 14.7913C14.5506 14.8134 14.5022 14.8458 14.4615 14.8867L14.0473 15.3018C14.0113 15.338 13.9819 15.3802 13.9604 15.4266H13.066C12.731 14.9126 12.5266 14.3058 12.5024 13.6531H19.4742C19.45 14.3058 19.2456 14.9126 18.9106 15.4266H17.9798C17.9584 15.3802 17.929 15.3379 17.893 15.3017L17.4789 14.8866C17.3965 14.8041 17.2848 14.7577 17.1683 14.7576C17.0517 14.7574 16.9399 14.8036 16.8574 14.8859C16.7104 15.0325 16.6894 15.2571 16.7935 15.4266ZM15.7714 12.7742C15.9371 12.1603 16.4971 11.7073 17.1607 11.7073C17.8244 11.7073 18.3844 12.1604 18.55 12.7742H15.7714ZM16.6701 7.37065C17.0753 7.80817 17.3611 8.34261 17.5 8.92256C17.2789 9.16281 17.0912 9.4319 16.9423 9.72247C16.8734 9.68008 16.7942 9.65762 16.7133 9.65761H16.1277C16.0112 9.65761 15.8994 9.70391 15.817 9.78632C15.7346 9.86874 15.6883 9.98051 15.6883 10.0971C15.6883 10.2136 15.7346 10.3254 15.817 10.4078C15.8994 10.4902 16.0112 10.5365 16.1277 10.5365H16.6414C16.6126 10.6579 16.59 10.7807 16.5738 10.9044C16.4011 10.9496 16.2343 11.0148 16.0767 11.0986C15.7838 10.5931 15.2988 10.2164 14.7241 10.0653C14.6906 9.86937 14.631 9.67881 14.5469 9.49871L16.6701 7.37065ZM8.7261 11.336C8.70045 11.2644 8.681 11.1908 8.66797 11.1158C8.54194 10.3892 9.03178 9.69499 9.75969 9.56826C9.83621 9.55491 9.91374 9.54817 9.99143 9.5481C10.2809 9.5481 10.5576 9.64044 10.7915 9.81511C10.8394 9.85088 10.8941 9.8765 10.9522 9.89041C11.0104 9.90432 11.0707 9.90622 11.1296 9.89599C11.1885 9.88577 11.2447 9.86364 11.2948 9.83095C11.3448 9.79827 11.3877 9.75571 11.4208 9.70589C11.6271 9.3947 11.9427 9.18822 12.3095 9.12435C12.3862 9.11098 12.4639 9.10423 12.5418 9.1042C12.8566 9.10373 13.1614 9.2147 13.4022 9.41745C13.643 9.62019 13.8043 9.90163 13.8574 10.2119C13.8702 10.2854 13.8768 10.3621 13.8769 10.4397C13.8771 10.5495 13.9183 10.6552 13.9925 10.7361C14.0668 10.8169 14.1686 10.8671 14.2779 10.8767C14.7692 10.9199 15.1874 11.2291 15.3813 11.6647C15.116 11.9825 14.9406 12.3656 14.8735 12.7742H12.3673C12.0557 12.7742 11.7884 12.9666 11.6769 13.2388C11.1255 12.8633 10.4757 12.6609 9.79473 12.6609C9.36913 12.6608 8.94741 12.7418 8.55219 12.8997C8.48499 12.9265 8.42398 12.9667 8.3729 13.0179C8.32139 13.0692 8.28107 13.1305 8.25448 13.1982C8.15505 13.4494 8.08621 13.7116 8.04946 13.9793C7.88725 13.7948 7.77931 13.569 7.73763 13.3269C7.63427 12.7306 7.94639 12.1369 8.49641 11.8831C8.59613 11.8371 8.67502 11.7554 8.71753 11.6542C8.76004 11.5529 8.7631 11.4394 8.7261 11.336ZM10.0361 15.3064L10.156 15.4266H9.10057C8.86362 14.8769 8.82764 14.2512 9.02 13.6643C9.26994 13.5817 9.53149 13.5396 9.79473 13.5398C10.4569 13.5398 11.0798 13.7986 11.5486 14.2685C11.6103 14.3306 11.6687 14.3959 11.7236 14.4642C11.7975 14.7971 11.9104 15.1201 12.0599 15.4266H11.3976L10.6583 14.6856C10.4868 14.5138 10.2086 14.5134 10.0369 14.6849C9.99603 14.7256 9.96359 14.774 9.94143 14.8273C9.91927 14.8806 9.90783 14.9378 9.90776 14.9955C9.90769 15.0532 9.91899 15.1104 9.94102 15.1637C9.96304 15.2171 9.99536 15.2656 10.0361 15.3064ZM8.16466 15.4266H6.59804C6.66788 15.0009 6.92394 14.6381 7.27937 14.4241C7.4898 14.7062 7.76457 14.9339 8.08081 15.0883C8.10295 15.2024 8.13094 15.3153 8.16466 15.4266ZM3.72971 1.43969H7.01042V3.25838H3.72971V1.43969ZM6.40304 4.13728V5.05679H4.33715V4.13728H6.40304ZM2.30255 8.9133H5.15623C5.27278 8.9133 5.38456 8.867 5.46697 8.78458C5.54938 8.70217 5.59568 8.5904 5.59568 8.47385C5.59568 8.3573 5.54938 8.24552 5.46697 8.16311C5.38456 8.08069 5.27278 8.03439 5.15623 8.03439H2.30255V7.13112C2.30255 6.47194 2.83716 5.93569 3.49428 5.93569H7.24591C7.90309 5.93569 8.4377 6.47194 8.4377 7.13112V8.03439H7.61716C7.50061 8.03439 7.38883 8.08069 7.30642 8.16311C7.22401 8.24552 7.17771 8.3573 7.17771 8.47385C7.17771 8.5904 7.22401 8.70217 7.30642 8.78458C7.38883 8.867 7.50061 8.9133 7.61716 8.9133H8.4377V9.30336C7.93421 9.79701 7.6727 10.5209 7.80184 11.2656L7.80261 11.2701C7.09761 11.7538 6.72197 12.6137 6.87156 13.477C6.88029 13.5274 6.89124 13.5769 6.9032 13.626C6.68454 13.747 6.48678 13.9024 6.31749 14.0863H2.30255V8.9133ZM2.30249 14.9651H5.8072C5.75965 15.1153 5.72761 15.2699 5.71158 15.4266H5.63752C5.23305 15.4266 4.90393 15.756 4.90393 16.1608C4.90393 16.8586 4.96879 17.5436 5.09447 18.2138C4.96557 18.2034 4.83631 18.1982 4.70699 18.1982C4.17555 18.1982 3.66918 18.2825 3.28135 18.4357C2.6881 18.6699 2.52409 19.0026 2.48829 19.2327C2.42566 19.2641 2.36371 19.2968 2.30249 19.3309V14.9651ZM7.86718 20.3636C8.02544 20.4903 8.12218 20.5979 8.17825 20.6755L8.1619 20.6757C7.91317 20.6757 7.46628 20.5754 6.9581 20.2941C6.7689 20.1893 6.59458 20.0709 6.45396 19.9517C6.37457 19.8845 6.2739 19.8476 6.16986 19.8476C6.06581 19.8476 5.96515 19.8845 5.88578 19.9518C5.74515 20.071 5.5709 20.1894 5.38187 20.294C4.87357 20.5754 4.42668 20.6757 4.17801 20.6757L4.16155 20.6755C4.21756 20.5979 4.3143 20.4902 4.47262 20.3635C4.54029 20.3094 4.59042 20.2364 4.61672 20.1538C4.64302 20.0712 4.64431 19.9827 4.62042 19.8994C4.59653 19.816 4.54854 19.7416 4.48248 19.6855C4.41641 19.6294 4.33523 19.5941 4.24914 19.584C3.8203 19.5337 3.54913 19.4246 3.42215 19.3451C3.58124 19.246 3.98342 19.0771 4.70717 19.0771C5.30658 19.0771 5.74468 19.2031 5.9548 19.3211C6.0205 19.358 6.09458 19.3774 6.16992 19.3774C6.24526 19.3774 6.31934 19.3581 6.38505 19.3212C6.59529 19.2032 7.03345 19.0772 7.63286 19.0772C8.35667 19.0772 8.75879 19.2461 8.91782 19.3452C8.7909 19.4247 8.51967 19.5338 8.09071 19.5841C8.0046 19.5942 7.9234 19.6295 7.85733 19.6856C7.79126 19.7418 7.74327 19.8162 7.7194 19.8995C7.69545 19.9828 7.6967 20.0714 7.72299 20.154C7.74929 20.2366 7.79946 20.3095 7.86718 20.3636ZM6.9881 25.7124L7.00322 25.7939C7.05403 26.0687 7.16183 26.3298 7.31968 26.5604H4.70547C2.59552 26.5604 0.878903 24.998 0.878903 23.0776C0.878903 21.7651 1.68093 20.6205 2.86194 20.0269C2.99759 20.1282 3.16669 20.2155 3.36731 20.2859C3.28774 20.4218 3.23231 20.5679 3.21925 20.7203C3.2019 20.9229 3.26389 21.1153 3.39397 21.2622C3.56583 21.4562 3.82961 21.5546 4.17801 21.5546C4.64231 21.5546 5.2515 21.3708 5.80756 21.063C5.93195 20.9943 6.0529 20.9196 6.16996 20.8391C6.28704 20.9196 6.40798 20.9943 6.53236 21.063C7.08841 21.3708 7.69761 21.5546 8.1619 21.5546H8.16196C8.51024 21.5546 8.77403 21.4562 8.94582 21.2622C9.07596 21.1154 9.13801 20.923 9.12061 20.7203C9.10754 20.5679 9.05211 20.4218 8.97254 20.2859C9.17317 20.2154 9.34233 20.1281 9.47797 20.0269C10.4146 20.4976 11.1125 21.3151 11.3613 22.2879L8.25325 23.4686C7.34347 23.8143 6.81138 24.7579 6.9881 25.7124ZM23.1689 26.1468C23.062 26.2749 22.9282 26.3779 22.777 26.4485C22.6258 26.5191 22.4609 26.5555 22.2941 26.5552L21.8328 26.5554L21.5447 24.9994C21.5342 24.9427 21.5126 24.8886 21.4812 24.8401C21.4498 24.7917 21.4091 24.75 21.3615 24.7173C21.314 24.6846 21.2604 24.6616 21.204 24.6496C21.1475 24.6376 21.0892 24.6368 21.0325 24.6474C20.9179 24.6686 20.8164 24.7345 20.7504 24.8305C20.6844 24.9265 20.6592 25.0449 20.6804 25.1595L20.939 26.5557L19.427 26.5563L19.2322 25.5041C19.2216 25.4474 19.2001 25.3932 19.1686 25.3448C19.1372 25.2964 19.0966 25.2547 19.049 25.222C19.0015 25.1893 18.9479 25.1663 18.8915 25.1543C18.835 25.1423 18.7768 25.1415 18.72 25.152C18.6633 25.1625 18.6091 25.1841 18.5607 25.2155C18.5123 25.2469 18.4706 25.2876 18.4379 25.3351C18.4052 25.3827 18.3822 25.4362 18.3702 25.4927C18.3582 25.5491 18.3574 25.6074 18.3679 25.6641L18.5331 26.5566L15.0161 26.558L14.7513 25.129C14.7301 25.0144 14.6642 24.9129 14.5681 24.8469C14.4721 24.7809 14.3537 24.7557 14.2391 24.7769C14.1245 24.7982 14.023 24.8641 13.957 24.9601C13.891 25.0562 13.8658 25.1745 13.8871 25.2891L14.1222 26.5583L8.98684 26.5603H8.98649C8.43735 26.5603 7.96673 26.1707 7.86724 25.6336L7.85212 25.5522C7.7528 25.0157 8.05268 24.485 8.5652 24.2902L10.2924 23.6341L10.421 24.3286C10.4423 24.4431 10.5082 24.5446 10.6042 24.6106C10.7003 24.6766 10.8186 24.7018 10.9332 24.6806C11.0478 24.6593 11.1492 24.5934 11.2153 24.4974C11.2813 24.4013 11.3064 24.283 11.2852 24.1684L11.1274 23.3169L13.6911 22.3429C13.8001 22.3015 13.8882 22.2186 13.9359 22.1123C13.9837 22.006 13.9873 21.885 13.9459 21.7761C13.9045 21.6671 13.8216 21.5791 13.7153 21.5313C13.609 21.4835 13.488 21.4799 13.3791 21.5213L12.186 21.9745C11.8514 20.7896 10.9916 19.7997 9.85139 19.2327C9.81559 19.0025 9.65158 18.6699 9.05838 18.4356C8.67055 18.2825 8.16419 18.1981 7.63274 18.1981C7.267 18.1981 6.91773 18.2385 6.60941 18.312V18.0466C6.60941 17.9301 6.56311 17.8183 6.4807 17.7359C6.39828 17.6535 6.28651 17.6072 6.16996 17.6072C6.0714 17.6071 5.97572 17.6404 5.89843 17.7015C5.82851 17.2393 5.79024 16.7728 5.78388 16.3054H20.0976C20.2141 16.3054 20.3259 16.2591 20.4083 16.1767C20.4907 16.0943 20.537 15.9825 20.537 15.8659C20.537 15.7494 20.4907 15.6376 20.4083 15.5552C20.3259 15.4728 20.2141 15.4265 20.0976 15.4265H19.9178C20.2064 14.8328 20.3562 14.1812 20.3557 13.5211C20.3557 13.1334 20.059 12.814 19.681 12.7777C19.8468 12.621 20.0551 12.5167 20.28 12.478C20.3471 12.4663 20.4152 12.4604 20.4824 12.4604C20.7567 12.4599 21.0222 12.5566 21.2321 12.7332C21.4419 12.9098 21.5824 13.155 21.6287 13.4254C21.6399 13.4901 21.6457 13.5569 21.6457 13.624C21.6459 13.7338 21.6871 13.8396 21.7613 13.9205C21.8355 14.0014 21.9374 14.0516 22.0467 14.0612C22.5719 14.1073 23.0016 14.5023 23.0916 15.0217C23.1146 15.1557 23.1136 15.2928 23.0886 15.4265H22.6171C22.5005 15.4265 22.3888 15.4728 22.3064 15.5552C22.2239 15.6376 22.1776 15.7494 22.1776 15.8659C22.1776 15.9825 22.2239 16.0943 22.3064 16.1767C22.3888 16.2591 22.5005 16.3054 22.6171 16.3054H26.0326C26.0217 17.1115 25.9179 17.899 25.7243 18.663L23.3427 20.0689C23.1965 19.5596 22.8547 19.1289 22.392 18.8708C22.1342 18.7262 21.8479 18.64 21.5531 18.6183C21.2584 18.5966 20.9625 18.64 20.6863 18.7452L15.7814 20.6086C15.6724 20.65 15.5844 20.733 15.5366 20.8393C15.4888 20.9456 15.4852 21.0665 15.5266 21.1755C15.568 21.2844 15.651 21.3725 15.7573 21.4203C15.8636 21.4681 15.9845 21.4717 16.0935 21.4303L16.7396 21.1848L16.9403 22.2681C16.9615 22.3826 17.0274 22.4841 17.1235 22.5501C17.2195 22.6161 17.3378 22.6413 17.4524 22.6201C17.567 22.5989 17.6685 22.533 17.7345 22.437C17.8006 22.341 17.8257 22.2226 17.8045 22.108L17.5748 20.8676L20.9983 19.567C21.1545 19.5075 21.3218 19.4829 21.4884 19.4952C21.6551 19.5074 21.817 19.5562 21.9627 19.6379C22.108 19.7188 22.2336 19.8307 22.3306 19.9657C22.4276 20.1008 22.4936 20.2555 22.5238 20.419L23.4129 25.2187C23.4432 25.3818 23.4371 25.5496 23.3949 25.7101C23.3528 25.8706 23.2756 26.0197 23.1689 26.1468ZM24.7369 22.707C24.6375 22.7253 24.5474 22.7773 24.4818 22.8543C24.4163 22.9313 24.3793 23.0285 24.377 23.1296C24.3748 23.2307 24.4075 23.3294 24.4696 23.4092C24.5318 23.489 24.6195 23.5449 24.718 23.5675L27.9899 24.318L27.9082 24.8664L24.1152 24.1848L23.5223 20.9836L26.826 19.0333L27.1012 19.5207L24.3146 21.3834C24.2305 21.4396 24.1684 21.5231 24.1387 21.6197C24.109 21.7164 24.1136 21.8203 24.1516 21.914C24.1896 22.0077 24.2588 22.0854 24.3474 22.1341C24.4361 22.1827 24.5388 22.1993 24.6383 22.181L29.0156 21.3769L29.1131 21.9031L24.7369 22.707Z" fill="#FAFAFA"/>
</svg>
