<svg width="50" height="50" viewBox="0 0 50 50" fill="none" xmlns="http://www.w3.org/2000/svg">
<path d="M30.711 35.9792C30.6035 35.9792 30.5004 35.9365 30.4244 35.8605C30.3484 35.7844 30.3056 35.6813 30.3056 35.5738V14.0379L25.1675 11.8823L20.8528 13.5798V35.5738C20.8528 35.6813 20.8101 35.7844 20.7341 35.8605C20.658 35.9365 20.5549 35.9792 20.4474 35.9792C20.3399 35.9792 20.2368 35.9365 20.1607 35.8605C20.0847 35.7844 20.042 35.6813 20.042 35.5738V13.3033C20.042 13.2218 20.0665 13.1422 20.1123 13.0749C20.1582 13.0076 20.2232 12.9556 20.299 12.9258L25.024 11.0671C25.1223 11.0283 25.2318 11.0295 25.3293 11.0703L30.8679 13.3945C30.9416 13.4254 31.0044 13.4773 31.0486 13.5438C31.0929 13.6103 31.1164 13.6884 31.1165 13.7683V35.5738C31.1165 35.6813 31.0737 35.7844 30.9977 35.8605C30.9217 35.9365 30.8186 35.9792 30.711 35.9792Z" fill="#FAFAFA"/>
<path d="M25.1725 35.9792C25.065 35.9792 24.9619 35.9365 24.8858 35.8605C24.8098 35.7844 24.7671 35.6813 24.7671 35.5738V11.4445C24.7671 11.3369 24.8098 11.2338 24.8858 11.1578C24.9619 11.0818 25.065 11.0391 25.1725 11.0391C25.28 11.0391 25.3831 11.0818 25.4592 11.1578C25.5352 11.2338 25.5779 11.3369 25.5779 11.4445V35.5738C25.5779 35.6813 25.5352 35.7844 25.4592 35.8605C25.3831 35.9365 25.28 35.9792 25.1725 35.9792ZM37.2564 35.9792C37.1489 35.9792 37.0458 35.9365 36.9698 35.8605C36.8937 35.7844 36.851 35.6813 36.851 35.5738V22.8319L32.887 20.5255H30.7111C30.6036 20.5255 30.5005 20.4828 30.4245 20.4068C30.3485 20.3308 30.3057 20.2277 30.3057 20.1201C30.3057 20.0126 30.3485 19.9095 30.4245 19.8335C30.5005 19.7575 30.6036 19.7147 30.7111 19.7147H32.9964C33.0677 19.715 33.1376 19.734 33.1991 19.7699L37.4595 22.2485C37.521 22.284 37.5721 22.3351 37.6077 22.3966C37.6433 22.458 37.6621 22.5278 37.6622 22.5988V35.5718C37.6625 35.6252 37.6522 35.6782 37.6319 35.7276C37.6116 35.7771 37.5818 35.822 37.5441 35.8599C37.5063 35.8978 37.4615 35.9278 37.4122 35.9483C37.3628 35.9687 37.3099 35.9793 37.2564 35.9792Z" fill="#FAFAFA"/>
<path d="M32.9961 35.9792C32.8886 35.9792 32.7855 35.9365 32.7094 35.8604C32.6334 35.7844 32.5907 35.6813 32.5907 35.5738V20.1201C32.5907 20.0126 32.6334 19.9095 32.7094 19.8335C32.7855 19.7574 32.8886 19.7147 32.9961 19.7147C33.1036 19.7147 33.2068 19.7574 33.2828 19.8335C33.3588 19.9095 33.4015 20.0126 33.4015 20.1201V35.5738C33.4015 35.6813 33.3588 35.7844 33.2828 35.8604C33.2068 35.9365 33.1036 35.9792 32.9961 35.9792ZM12.1198 35.9792C12.0122 35.9792 11.9091 35.9365 11.8331 35.8604C11.7571 35.7844 11.7144 35.6813 11.7144 35.5738V22.9474C11.7144 22.8399 11.7571 22.7368 11.8331 22.6608C11.9091 22.5847 12.0122 22.542 12.1198 22.542H20.4472C20.5547 22.542 20.6578 22.5847 20.7339 22.6608C20.8099 22.7368 20.8526 22.8399 20.8526 22.9474C20.8526 23.0549 20.8099 23.1581 20.7339 23.2341C20.6578 23.3101 20.5547 23.3528 20.4472 23.3528H12.5252V35.5738C12.5252 35.6813 12.4825 35.7844 12.4064 35.8604C12.3304 35.9365 12.2273 35.9792 12.1198 35.9792Z" fill="#FAFAFA"/>
<path d="M14.3516 24.91H13.4901C13.3826 24.91 13.2795 24.8673 13.2034 24.7913C13.1274 24.7152 13.0847 24.6121 13.0847 24.5046C13.0847 24.3971 13.1274 24.294 13.2034 24.2179C13.2795 24.1419 13.3826 24.0992 13.4901 24.0992H14.3516C14.4591 24.0992 14.5622 24.1419 14.6383 24.2179C14.7143 24.294 14.757 24.3971 14.757 24.5046C14.757 24.6121 14.7143 24.7152 14.6383 24.7913C14.5622 24.8673 14.4591 24.91 14.3516 24.91ZM16.7147 24.91H15.8528C15.7453 24.91 15.6422 24.8673 15.5661 24.7913C15.4901 24.7152 15.4474 24.6121 15.4474 24.5046C15.4474 24.3971 15.4901 24.294 15.5661 24.2179C15.6422 24.1419 15.7453 24.0992 15.8528 24.0992H16.7147C16.8222 24.0992 16.9253 24.1419 17.0014 24.2179C17.0774 24.294 17.1201 24.3971 17.1201 24.5046C17.1201 24.6121 17.0774 24.7152 17.0014 24.7913C16.9253 24.8673 16.8222 24.91 16.7147 24.91ZM19.077 24.91H18.2155C18.108 24.91 18.0049 24.8673 17.9288 24.7913C17.8528 24.7152 17.8101 24.6121 17.8101 24.5046C17.8101 24.3971 17.8528 24.294 17.9288 24.2179C18.0049 24.1419 18.108 24.0992 18.2155 24.0992H19.077C19.1845 24.0992 19.2876 24.1419 19.3637 24.2179C19.4397 24.294 19.4824 24.3971 19.4824 24.5046C19.4824 24.6121 19.4397 24.7152 19.3637 24.7913C19.2876 24.8673 19.1845 24.91 19.077 24.91ZM14.3516 26.8126H13.4901C13.3826 26.8126 13.2795 26.7699 13.2034 26.6938C13.1274 26.6178 13.0847 26.5147 13.0847 26.4072C13.0847 26.2996 13.1274 26.1965 13.2034 26.1205C13.2795 26.0445 13.3826 26.0018 13.4901 26.0018H14.3516C14.4591 26.0018 14.5622 26.0445 14.6383 26.1205C14.7143 26.1965 14.757 26.2996 14.757 26.4072C14.757 26.5147 14.7143 26.6178 14.6383 26.6938C14.5622 26.7699 14.4591 26.8126 14.3516 26.8126ZM16.7147 26.8126H15.8528C15.7453 26.8126 15.6422 26.7699 15.5661 26.6938C15.4901 26.6178 15.4474 26.5147 15.4474 26.4072C15.4474 26.2996 15.4901 26.1965 15.5661 26.1205C15.6422 26.0445 15.7453 26.0018 15.8528 26.0018H16.7147C16.8222 26.0018 16.9253 26.0445 17.0014 26.1205C17.0774 26.1965 17.1201 26.2996 17.1201 26.4072C17.1201 26.5147 17.0774 26.6178 17.0014 26.6938C16.9253 26.7699 16.8222 26.8126 16.7147 26.8126ZM19.077 26.8126H18.2155C18.108 26.8126 18.0049 26.7699 17.9288 26.6938C17.8528 26.6178 17.8101 26.5147 17.8101 26.4072C17.8101 26.2996 17.8528 26.1965 17.9288 26.1205C18.0049 26.0445 18.108 26.0018 18.2155 26.0018H19.077C19.1845 26.0018 19.2876 26.0445 19.3637 26.1205C19.4397 26.1965 19.4824 26.2996 19.4824 26.4072C19.4824 26.5147 19.4397 26.6178 19.3637 26.6938C19.2876 26.7699 19.1845 26.8126 19.077 26.8126ZM14.3516 28.7147H13.4901C13.3826 28.7147 13.2795 28.672 13.2034 28.596C13.1274 28.52 13.0847 28.4168 13.0847 28.3093C13.0847 28.2018 13.1274 28.0987 13.2034 28.0227C13.2795 27.9466 13.3826 27.9039 13.4901 27.9039H14.3516C14.4591 27.9039 14.5622 27.9466 14.6383 28.0227C14.7143 28.0987 14.757 28.2018 14.757 28.3093C14.757 28.4168 14.7143 28.52 14.6383 28.596C14.5622 28.672 14.4591 28.7147 14.3516 28.7147ZM16.7147 28.7147H15.8528C15.7453 28.7147 15.6422 28.672 15.5661 28.596C15.4901 28.52 15.4474 28.4168 15.4474 28.3093C15.4474 28.2018 15.4901 28.0987 15.5661 28.0227C15.6422 27.9466 15.7453 27.9039 15.8528 27.9039H16.7147C16.8222 27.9039 16.9253 27.9466 17.0014 28.0227C17.0774 28.0987 17.1201 28.2018 17.1201 28.3093C17.1201 28.4168 17.0774 28.52 17.0014 28.596C16.9253 28.672 16.8222 28.7147 16.7147 28.7147ZM19.077 28.7147H18.2155C18.108 28.7147 18.0049 28.672 17.9288 28.596C17.8528 28.52 17.8101 28.4168 17.8101 28.3093C17.8101 28.2018 17.8528 28.0987 17.9288 28.0227C18.0049 27.9466 18.108 27.9039 18.2155 27.9039H19.077C19.1845 27.9039 19.2876 27.9466 19.3637 28.0227C19.4397 28.0987 19.4824 28.2018 19.4824 28.3093C19.4824 28.4168 19.4397 28.52 19.3637 28.596C19.2876 28.672 19.1845 28.7147 19.077 28.7147ZM14.3516 30.6173H13.4901C13.3826 30.6173 13.2795 30.5746 13.2034 30.4986C13.1274 30.4225 13.0847 30.3194 13.0847 30.2119C13.0847 30.1044 13.1274 30.0013 13.2034 29.9252C13.2795 29.8492 13.3826 29.8065 13.4901 29.8065H14.3516C14.4591 29.8065 14.5622 29.8492 14.6383 29.9252C14.7143 30.0013 14.757 30.1044 14.757 30.2119C14.757 30.3194 14.7143 30.4225 14.6383 30.4986C14.5622 30.5746 14.4591 30.6173 14.3516 30.6173ZM16.7147 30.6173H15.8528C15.7453 30.6173 15.6422 30.5746 15.5661 30.4986C15.4901 30.4225 15.4474 30.3194 15.4474 30.2119C15.4474 30.1044 15.4901 30.0013 15.5661 29.9252C15.6422 29.8492 15.7453 29.8065 15.8528 29.8065H16.7147C16.8222 29.8065 16.9253 29.8492 17.0014 29.9252C17.0774 30.0013 17.1201 30.1044 17.1201 30.2119C17.1201 30.3194 17.0774 30.4225 17.0014 30.4986C16.9253 30.5746 16.8222 30.6173 16.7147 30.6173ZM19.077 30.6173H18.2155C18.108 30.6173 18.0049 30.5746 17.9288 30.4986C17.8528 30.4225 17.8101 30.3194 17.8101 30.2119C17.8101 30.1044 17.8528 30.0013 17.9288 29.9252C18.0049 29.8492 18.108 29.8065 18.2155 29.8065H19.077C19.1845 29.8065 19.2876 29.8492 19.3637 29.9252C19.4397 30.0013 19.4824 30.1044 19.4824 30.2119C19.4824 30.3194 19.4397 30.4225 19.3637 30.4986C19.2876 30.5746 19.1845 30.6173 19.077 30.6173ZM14.3516 32.5199H13.4901C13.3826 32.5199 13.2795 32.4771 13.2034 32.4011C13.1274 32.3251 13.0847 32.222 13.0847 32.1145C13.0847 32.0069 13.1274 31.9038 13.2034 31.8278C13.2795 31.7518 13.3826 31.7091 13.4901 31.7091H14.3516C14.4591 31.7091 14.5622 31.7518 14.6383 31.8278C14.7143 31.9038 14.757 32.0069 14.757 32.1145C14.757 32.222 14.7143 32.3251 14.6383 32.4011C14.5622 32.4771 14.4591 32.5199 14.3516 32.5199ZM16.7147 32.5199H15.8528C15.7453 32.5199 15.6422 32.4771 15.5661 32.4011C15.4901 32.3251 15.4474 32.222 15.4474 32.1145C15.4474 32.0069 15.4901 31.9038 15.5661 31.8278C15.6422 31.7518 15.7453 31.7091 15.8528 31.7091H16.7147C16.8222 31.7091 16.9253 31.7518 17.0014 31.8278C17.0774 31.9038 17.1201 32.0069 17.1201 32.1145C17.1201 32.222 17.0774 32.3251 17.0014 32.4011C16.9253 32.4771 16.8222 32.5199 16.7147 32.5199ZM19.077 32.5199H18.2155C18.108 32.5199 18.0049 32.4771 17.9288 32.4011C17.8528 32.3251 17.8101 32.222 17.8101 32.1145C17.8101 32.0069 17.8528 31.9038 17.9288 31.8278C18.0049 31.7518 18.108 31.7091 18.2155 31.7091H19.077C19.1845 31.7091 19.2876 31.7518 19.3637 31.8278C19.4397 31.9038 19.4824 32.0069 19.4824 32.1145C19.4824 32.222 19.4397 32.3251 19.3637 32.4011C19.2876 32.4771 19.1845 32.5199 19.077 32.5199ZM14.3516 34.4224H13.4901C13.3826 34.4224 13.2795 34.3797 13.2034 34.3037C13.1274 34.2277 13.0847 34.1245 13.0847 34.017C13.0847 33.9095 13.1274 33.8064 13.2034 33.7304C13.2795 33.6543 13.3826 33.6116 13.4901 33.6116H14.3516C14.4591 33.6116 14.5622 33.6543 14.6383 33.7304C14.7143 33.8064 14.757 33.9095 14.757 34.017C14.757 34.1245 14.7143 34.2277 14.6383 34.3037C14.5622 34.3797 14.4591 34.4224 14.3516 34.4224ZM16.7147 34.4224H15.8528C15.7453 34.4224 15.6422 34.3797 15.5661 34.3037C15.4901 34.2277 15.4474 34.1245 15.4474 34.017C15.4474 33.9095 15.4901 33.8064 15.5661 33.7304C15.6422 33.6543 15.7453 33.6116 15.8528 33.6116H16.7147C16.8222 33.6116 16.9253 33.6543 17.0014 33.7304C17.0774 33.8064 17.1201 33.9095 17.1201 34.017C17.1201 34.1245 17.0774 34.2277 17.0014 34.3037C16.9253 34.3797 16.8222 34.4224 16.7147 34.4224ZM19.077 34.4224H18.2155C18.108 34.4224 18.0049 34.3797 17.9288 34.3037C17.8528 34.2277 17.8101 34.1245 17.8101 34.017C17.8101 33.9095 17.8528 33.8064 17.9288 33.7304C18.0049 33.6543 18.108 33.6116 18.2155 33.6116H19.077C19.1845 33.6116 19.2876 33.6543 19.3637 33.7304C19.4397 33.8064 19.4824 33.9095 19.4824 34.017C19.4824 34.1245 19.4397 34.2277 19.3637 34.3037C19.2876 34.3797 19.1845 34.4224 19.077 34.4224ZM23.7432 15.413C23.6357 15.413 23.5326 15.3703 23.4565 15.2942C23.3805 15.2182 23.3378 15.1151 23.3378 15.0076V14.2426C23.3378 14.135 23.3805 14.0319 23.4565 13.9559C23.5326 13.8799 23.6357 13.8372 23.7432 13.8372C23.8507 13.8372 23.9538 13.8799 24.0299 13.9559C24.1059 14.0319 24.1486 14.135 24.1486 14.2426V15.0076C24.1486 15.1151 24.1059 15.2182 24.0299 15.2942C23.9538 15.3703 23.8507 15.413 23.7432 15.413ZM21.8946 15.8845C21.787 15.8845 21.6839 15.8417 21.6079 15.7657C21.5319 15.6897 21.4892 15.5866 21.4892 15.4791V14.7141C21.4892 14.6065 21.5319 14.5034 21.6079 14.4274C21.6839 14.3514 21.787 14.3086 21.8946 14.3086C22.0021 14.3086 22.1052 14.3514 22.1812 14.4274C22.2573 14.5034 22.3 14.6065 22.3 14.7141V15.4791C22.3 15.5866 22.2573 15.6897 22.1812 15.7657C22.1052 15.8417 22.0021 15.8845 21.8946 15.8845ZM23.7432 18.4624C23.6357 18.4624 23.5326 18.4197 23.4565 18.3437C23.3805 18.2677 23.3378 18.1645 23.3378 18.057V17.292C23.3378 17.1845 23.3805 17.0814 23.4565 17.0054C23.5326 16.9293 23.6357 16.8866 23.7432 16.8866C23.8507 16.8866 23.9538 16.9293 24.0299 17.0054C24.1059 17.0814 24.1486 17.1845 24.1486 17.292V18.057C24.1486 18.1645 24.1059 18.2677 24.0299 18.3437C23.9538 18.4197 23.8507 18.4624 23.7432 18.4624ZM21.8946 18.9339C21.787 18.9339 21.6839 18.8912 21.6079 18.8152C21.5319 18.7391 21.4892 18.636 21.4892 18.5285V17.7635C21.4892 17.656 21.5319 17.5529 21.6079 17.4768C21.6839 17.4008 21.787 17.3581 21.8946 17.3581C22.0021 17.3581 22.1052 17.4008 22.1812 17.4768C22.2573 17.5529 22.3 17.656 22.3 17.7635V18.5285C22.3 18.636 22.2573 18.7391 22.1812 18.8152C22.1052 18.8912 22.0021 18.9339 21.8946 18.9339ZM23.7432 21.5135C23.6357 21.5135 23.5326 21.4708 23.4565 21.3948C23.3805 21.3187 23.3378 21.2156 23.3378 21.1081V20.3415C23.3378 20.234 23.3805 20.1308 23.4565 20.0548C23.5326 19.9788 23.6357 19.9361 23.7432 19.9361C23.8507 19.9361 23.9538 19.9788 24.0299 20.0548C24.1059 20.1308 24.1486 20.234 24.1486 20.3415V21.1081C24.1486 21.2156 24.1059 21.3187 24.0299 21.3948C23.9538 21.4708 23.8507 21.5135 23.7432 21.5135ZM21.8946 21.9834C21.787 21.9834 21.6839 21.9407 21.6079 21.8646C21.5319 21.7886 21.4892 21.6855 21.4892 21.578V20.813C21.4892 20.7055 21.5319 20.6023 21.6079 20.5263C21.6839 20.4503 21.787 20.4076 21.8946 20.4076C22.0021 20.4076 22.1052 20.4503 22.1812 20.5263C22.2573 20.6023 22.3 20.7055 22.3 20.813V21.578C22.3 21.6855 22.2573 21.7886 22.1812 21.8646C22.1052 21.9407 22.0021 21.9834 21.8946 21.9834ZM23.7432 24.5609C23.6357 24.5609 23.5326 24.5182 23.4565 24.4422C23.3805 24.3662 23.3378 24.2631 23.3378 24.1555V23.3905C23.3378 23.283 23.3805 23.1799 23.4565 23.1039C23.5326 23.0278 23.6357 22.9851 23.7432 22.9851C23.8507 22.9851 23.9538 23.0278 24.0299 23.1039C24.1059 23.1799 24.1486 23.283 24.1486 23.3905V24.1555C24.1486 24.2631 24.1059 24.3662 24.0299 24.4422C23.9538 24.5182 23.8507 24.5609 23.7432 24.5609ZM21.8946 25.0324C21.787 25.0324 21.6839 24.9897 21.6079 24.9137C21.5319 24.8377 21.4892 24.7345 21.4892 24.627V23.862C21.4892 23.7545 21.5319 23.6514 21.6079 23.5754C21.6839 23.4993 21.787 23.4566 21.8946 23.4566C22.0021 23.4566 22.1052 23.4993 22.1812 23.5754C22.2573 23.6514 22.3 23.7545 22.3 23.862V24.627C22.3 24.7345 22.2573 24.8377 22.1812 24.9137C22.1052 24.9897 22.0021 25.0324 21.8946 25.0324ZM23.7432 27.6104C23.6357 27.6104 23.5326 27.5677 23.4565 27.4917C23.3805 27.4156 23.3378 27.3125 23.3378 27.205V26.44C23.3378 26.3325 23.3805 26.2294 23.4565 26.1533C23.5326 26.0773 23.6357 26.0346 23.7432 26.0346C23.8507 26.0346 23.9538 26.0773 24.0299 26.1533C24.1059 26.2294 24.1486 26.3325 24.1486 26.44V27.205C24.1486 27.3125 24.1059 27.4156 24.0299 27.4917C23.9538 27.5677 23.8507 27.6104 23.7432 27.6104ZM21.8946 28.0811C21.787 28.0811 21.6839 28.0384 21.6079 27.9623C21.5319 27.8863 21.4892 27.7832 21.4892 27.6757V26.9115C21.4892 26.804 21.5319 26.7008 21.6079 26.6248C21.6839 26.5488 21.787 26.5061 21.8946 26.5061C22.0021 26.5061 22.1052 26.5488 22.1812 26.6248C22.2573 26.7008 22.3 26.804 22.3 26.9115V27.6757C22.3 27.7832 22.2573 27.8863 22.1812 27.9623C22.1052 28.0384 22.0021 28.0811 21.8946 28.0811ZM23.7432 30.6599C23.6357 30.6599 23.5326 30.6172 23.4565 30.5411C23.3805 30.4651 23.3378 30.362 23.3378 30.2545V29.4895C23.3378 29.3819 23.3805 29.2788 23.4565 29.2028C23.5326 29.1268 23.6357 29.0841 23.7432 29.0841C23.8507 29.0841 23.9538 29.1268 24.0299 29.2028C24.1059 29.2788 24.1486 29.3819 24.1486 29.4895V30.2545C24.1486 30.362 24.1059 30.4651 24.0299 30.5411C23.9538 30.6172 23.8507 30.6599 23.7432 30.6599ZM21.8946 31.1313C21.787 31.1313 21.6839 31.0886 21.6079 31.0126C21.5319 30.9366 21.4892 30.8335 21.4892 30.7259V29.9609C21.4892 29.8534 21.5319 29.7503 21.6079 29.6743C21.6839 29.5983 21.787 29.5555 21.8946 29.5555C22.0021 29.5555 22.1052 29.5983 22.1812 29.6743C22.2573 29.7503 22.3 29.8534 22.3 29.9609V30.7259C22.3 30.8335 22.2573 30.9366 22.1812 31.0126C22.1052 31.0886 22.0021 31.1313 21.8946 31.1313ZM23.7432 33.7089C23.6357 33.7089 23.5326 33.6662 23.4565 33.5902C23.3805 33.5141 23.3378 33.411 23.3378 33.3035V32.5405C23.3378 32.433 23.3805 32.3299 23.4565 32.2539C23.5326 32.1778 23.6357 32.1351 23.7432 32.1351C23.8507 32.1351 23.9538 32.1778 24.0299 32.2539C24.1059 32.3299 24.1486 32.433 24.1486 32.5405V33.3055C24.1481 33.4127 24.1051 33.5153 24.0292 33.5909C23.9532 33.6665 23.8504 33.7089 23.7432 33.7089ZM21.8946 34.1808C21.787 34.1808 21.6839 34.1381 21.6079 34.0621C21.5319 33.986 21.4892 33.8829 21.4892 33.7754V33.01C21.4892 32.9025 21.5319 32.7994 21.6079 32.7233C21.6839 32.6473 21.787 32.6046 21.8946 32.6046C22.0021 32.6046 22.1052 32.6473 22.1812 32.7233C22.2573 32.7994 22.3 32.9025 22.3 33.01V33.775C22.3 33.8283 22.2896 33.881 22.2692 33.9303C22.2489 33.9795 22.219 34.0242 22.1814 34.0619C22.1437 34.0996 22.099 34.1295 22.0498 34.1499C22.0006 34.1703 21.9478 34.1808 21.8946 34.1808ZM26.5405 15.027C26.433 15.027 26.3299 14.9843 26.2538 14.9083C26.1778 14.8323 26.1351 14.7291 26.1351 14.6216V13.8574C26.1351 13.7499 26.1778 13.6468 26.2538 13.5708C26.3299 13.4947 26.433 13.452 26.5405 13.452C26.648 13.452 26.7511 13.4947 26.8272 13.5708C26.9032 13.6468 26.9459 13.7499 26.9459 13.8574V14.6216C26.9459 14.7291 26.9032 14.8323 26.8272 14.9083C26.7511 14.9843 26.648 15.027 26.5405 15.027ZM27.9096 15.5439C27.802 15.5439 27.6989 15.5012 27.6229 15.4252C27.5469 15.3491 27.5042 15.246 27.5042 15.1385V14.3739C27.5042 14.2664 27.5469 14.1633 27.6229 14.0873C27.6989 14.0112 27.802 13.9685 27.9096 13.9685C28.0171 13.9685 28.1202 14.0112 28.1962 14.0873C28.2723 14.1633 28.315 14.2664 28.315 14.3739V15.1389C28.3149 15.2464 28.2721 15.3494 28.1961 15.4253C28.1201 15.5013 28.017 15.5439 27.9096 15.5439ZM29.2778 16.0604C29.1703 16.0604 29.0672 16.0177 28.9911 15.9417C28.9151 15.8656 28.8724 15.7625 28.8724 15.655V14.8904C28.8724 14.7829 28.9151 14.6798 28.9911 14.6037C29.0672 14.5277 29.1703 14.485 29.2778 14.485C29.3853 14.485 29.4884 14.5277 29.5645 14.6037C29.6405 14.6798 29.6832 14.7829 29.6832 14.8904V15.6554C29.6831 15.7629 29.6403 15.8659 29.5643 15.9418C29.4883 16.0177 29.3853 16.0604 29.2778 16.0604ZM26.5405 18.0676C26.433 18.0676 26.3299 18.0249 26.2538 17.9488C26.1778 17.8728 26.1351 17.7697 26.1351 17.6622V16.8959C26.1351 16.7884 26.1778 16.6853 26.2538 16.6093C26.3299 16.5333 26.433 16.4905 26.5405 16.4905C26.648 16.4905 26.7511 16.5333 26.8272 16.6093C26.9032 16.6853 26.9459 16.7884 26.9459 16.8959V17.6622C26.9459 17.7697 26.9032 17.8728 26.8272 17.9488C26.7511 18.0249 26.648 18.0676 26.5405 18.0676ZM27.9096 18.5824C27.802 18.5824 27.6989 18.5397 27.6229 18.4637C27.5469 18.3877 27.5042 18.2845 27.5042 18.177V17.4124C27.5042 17.3049 27.5469 17.2018 27.6229 17.1258C27.6989 17.0497 27.802 17.007 27.9096 17.007C28.0171 17.007 28.1202 17.0497 28.1962 17.1258C28.2723 17.2018 28.315 17.3049 28.315 17.4124V18.177C28.315 18.2845 28.2723 18.3877 28.1962 18.4637C28.1202 18.5397 28.0171 18.5824 27.9096 18.5824ZM29.2778 19.0989C29.1703 19.0989 29.0672 19.0562 28.9911 18.9802C28.9151 18.9041 28.8724 18.801 28.8724 18.6935V17.9289C28.8724 17.8214 28.9151 17.7183 28.9911 17.6423C29.0672 17.5662 29.1703 17.5235 29.2778 17.5235C29.3853 17.5235 29.4884 17.5662 29.5645 17.6423C29.6405 17.7183 29.6832 17.8214 29.6832 17.9289V18.6939C29.6831 18.8014 29.6403 18.9044 29.5643 18.9803C29.4883 19.0563 29.3853 19.0989 29.2778 19.0989ZM26.5405 21.1049C26.433 21.1049 26.3299 21.0622 26.2538 20.9861C26.1778 20.9101 26.1351 20.807 26.1351 20.6995V19.9324C26.1351 19.8249 26.1778 19.7218 26.2538 19.6458C26.3299 19.5697 26.433 19.527 26.5405 19.527C26.648 19.527 26.7511 19.5697 26.8272 19.6458C26.9032 19.7218 26.9459 19.8249 26.9459 19.9324V20.6974C26.9462 20.7508 26.9359 20.8038 26.9156 20.8532C26.8954 20.9026 26.8656 20.9475 26.8279 20.9854C26.7902 21.0233 26.7454 21.0533 26.6961 21.0738C26.6468 21.0943 26.5939 21.1049 26.5405 21.1049ZM27.9096 21.6214C27.802 21.6214 27.6989 21.5786 27.6229 21.5026C27.5469 21.4266 27.5042 21.3235 27.5042 21.2159V20.4509C27.5042 20.3434 27.5469 20.2403 27.6229 20.1643C27.6989 20.0883 27.802 20.0455 27.9096 20.0455C28.0171 20.0455 28.1202 20.0883 28.1962 20.1643C28.2723 20.2403 28.315 20.3434 28.315 20.4509V21.2159C28.315 21.3235 28.2723 21.4266 28.1962 21.5026C28.1202 21.5786 28.0171 21.6214 27.9096 21.6214ZM29.2778 22.1374C29.1703 22.1374 29.0672 22.0947 28.9911 22.0187C28.9151 21.9427 28.8724 21.8395 28.8724 21.732V20.9674C28.8724 20.8599 28.9151 20.7568 28.9911 20.6808C29.0672 20.6047 29.1703 20.562 29.2778 20.562C29.3853 20.562 29.4884 20.6047 29.5645 20.6808C29.6405 20.7568 29.6832 20.8599 29.6832 20.9674V21.7324C29.6831 21.8399 29.6403 21.9429 29.5643 22.0188C29.4883 22.0948 29.3853 22.1374 29.2778 22.1374ZM26.5405 24.1434C26.433 24.1434 26.3299 24.1007 26.2538 24.0246C26.1778 23.9486 26.1351 23.8455 26.1351 23.738V22.973C26.1351 22.8655 26.1778 22.7623 26.2538 22.6863C26.3299 22.6103 26.433 22.5676 26.5405 22.5676C26.648 22.5676 26.7511 22.6103 26.8272 22.6863C26.9032 22.7623 26.9459 22.8655 26.9459 22.973V23.738C26.9459 23.8455 26.9032 23.9486 26.8272 24.0246C26.7511 24.1007 26.648 24.1434 26.5405 24.1434ZM27.9096 24.6599C27.802 24.6599 27.6989 24.6172 27.6229 24.5411C27.5469 24.4651 27.5042 24.362 27.5042 24.2545V23.4895C27.5042 23.3819 27.5469 23.2788 27.6229 23.2028C27.6989 23.1268 27.802 23.0841 27.9096 23.0841C28.0171 23.0841 28.1202 23.1268 28.1962 23.2028C28.2723 23.2788 28.315 23.3819 28.315 23.4895V24.2545C28.315 24.362 28.2723 24.4651 28.1962 24.5411C28.1202 24.6172 28.0171 24.6599 27.9096 24.6599ZM29.2778 25.1764C29.1703 25.1764 29.0672 25.1336 28.9911 25.0576C28.9151 24.9816 28.8724 24.8785 28.8724 24.7709V24.0059C28.8724 23.8984 28.9151 23.7953 28.9911 23.7193C29.0672 23.6433 29.1703 23.6005 29.2778 23.6005C29.3853 23.6005 29.4884 23.6433 29.5645 23.7193C29.6405 23.7953 29.6832 23.8984 29.6832 24.0059V24.7709C29.6832 24.8785 29.6405 24.9816 29.5645 25.0576C29.4884 25.1336 29.3853 25.1764 29.2778 25.1764ZM26.5405 27.1819C26.433 27.1819 26.3299 27.1392 26.2538 27.0632C26.1778 26.9871 26.1351 26.884 26.1351 26.7765V26.0135C26.1351 25.906 26.1778 25.8029 26.2538 25.7268C26.3299 25.6508 26.433 25.6081 26.5405 25.6081C26.648 25.6081 26.7511 25.6508 26.8272 25.7268C26.9032 25.8029 26.9459 25.906 26.9459 26.0135V26.7785C26.9454 26.8857 26.9024 26.9883 26.8265 27.0639C26.7505 27.1395 26.6477 27.1819 26.5405 27.1819ZM27.9096 27.6984C27.802 27.6984 27.6989 27.6557 27.6229 27.5796C27.5469 27.5036 27.5042 27.4005 27.5042 27.293V26.528C27.5042 26.4205 27.5469 26.3173 27.6229 26.2413C27.6989 26.1653 27.802 26.1226 27.9096 26.1226C28.0171 26.1226 28.1202 26.1653 28.1962 26.2413C28.2723 26.3173 28.315 26.4205 28.315 26.528V27.293C28.315 27.4005 28.2723 27.5036 28.1962 27.5796C28.1202 27.6557 28.0171 27.6984 27.9096 27.6984ZM29.2778 28.2149C29.1703 28.2149 29.0672 28.1722 28.9911 28.0961C28.9151 28.0201 28.8724 27.917 28.8724 27.8095V27.0445C28.8724 26.9369 28.9151 26.8338 28.9911 26.7578C29.0672 26.6818 29.1703 26.6391 29.2778 26.6391C29.3853 26.6391 29.4884 26.6818 29.5645 26.7578C29.6405 26.8338 29.6832 26.9369 29.6832 27.0445V27.8095C29.6832 27.917 29.6405 28.0201 29.5645 28.0961C29.4884 28.1722 29.3853 28.2149 29.2778 28.2149ZM26.5405 30.2204C26.433 30.2204 26.3299 30.1777 26.2538 30.1017C26.1778 30.0256 26.1351 29.9225 26.1351 29.815V29.05C26.1351 28.9425 26.1778 28.8394 26.2538 28.7633C26.3299 28.6873 26.433 28.6446 26.5405 28.6446C26.648 28.6446 26.7511 28.6873 26.8272 28.7633C26.9032 28.8394 26.9459 28.9425 26.9459 29.05V29.815C26.9459 29.9225 26.9032 30.0256 26.8272 30.1017C26.7511 30.1777 26.648 30.2204 26.5405 30.2204ZM27.9096 30.7369C27.802 30.7369 27.6989 30.6942 27.6229 30.6182C27.5469 30.5421 27.5042 30.439 27.5042 30.3315V29.5665C27.5042 29.459 27.5469 29.3558 27.6229 29.2798C27.6989 29.2038 27.802 29.1611 27.9096 29.1611C28.0171 29.1611 28.1202 29.2038 28.1962 29.2798C28.2723 29.3558 28.315 29.459 28.315 29.5665V30.3315C28.315 30.439 28.2723 30.5421 28.1962 30.6182C28.1202 30.6942 28.0171 30.7369 27.9096 30.7369ZM29.2778 31.2534C29.1703 31.2534 29.0672 31.2107 28.9911 31.1346C28.9151 31.0586 28.8724 30.9555 28.8724 30.848V30.083C28.8724 29.9755 28.9151 29.8723 28.9911 29.7963C29.0672 29.7203 29.1703 29.6776 29.2778 29.6776C29.3853 29.6776 29.4884 29.7203 29.5645 29.7963C29.6405 29.8723 29.6832 29.9755 29.6832 30.083V30.848C29.6832 30.9555 29.6405 31.0586 29.5645 31.1346C29.4884 31.2107 29.3853 31.2534 29.2778 31.2534ZM26.5405 33.2589C26.433 33.2589 26.3299 33.2162 26.2538 33.1402C26.1778 33.0641 26.1351 32.961 26.1351 32.8535V32.0885C26.1351 31.981 26.1778 31.8779 26.2538 31.8018C26.3299 31.7258 26.433 31.6831 26.5405 31.6831C26.648 31.6831 26.7511 31.7258 26.8272 31.8018C26.9032 31.8779 26.9459 31.981 26.9459 32.0885V32.8535C26.9459 32.961 26.9032 33.0641 26.8272 33.1402C26.7511 33.2162 26.648 33.2589 26.5405 33.2589ZM27.9096 33.7754C27.802 33.7754 27.6989 33.7327 27.6229 33.6567C27.5469 33.5806 27.5042 33.4775 27.5042 33.37V32.605C27.5042 32.4975 27.5469 32.3944 27.6229 32.3183C27.6989 32.2423 27.802 32.1996 27.9096 32.1996C28.0171 32.1996 28.1202 32.2423 28.1962 32.3183C28.2723 32.3944 28.315 32.4975 28.315 32.605V33.37C28.315 33.4775 28.2723 33.5806 28.1962 33.6567C28.1202 33.7327 28.0171 33.7754 27.9096 33.7754ZM29.2778 34.2919C29.1703 34.2919 29.0672 34.2492 28.9911 34.1731C28.9151 34.0971 28.8724 33.994 28.8724 33.8865V33.1215C28.8724 33.014 28.9151 32.9108 28.9911 32.8348C29.0672 32.7588 29.1703 32.7161 29.2778 32.7161C29.3853 32.7161 29.4884 32.7588 29.5645 32.8348C29.6405 32.9108 29.6832 33.014 29.6832 33.1215V33.8865C29.6832 33.994 29.6405 34.0971 29.5645 34.1731C29.4884 34.2492 29.3853 34.2919 29.2778 34.2919ZM34.4054 23.6419C34.2979 23.6419 34.1947 23.5992 34.1187 23.5231C34.0427 23.4471 34 23.344 34 23.2365V22.8266C34 22.7191 34.0427 22.616 34.1187 22.54C34.1947 22.4639 34.2979 22.4212 34.4054 22.4212C34.5129 22.4212 34.616 22.4639 34.692 22.54C34.7681 22.616 34.8108 22.7191 34.8108 22.8266V23.2365C34.8108 23.344 34.7681 23.4471 34.692 23.5231C34.616 23.5992 34.5129 23.6419 34.4054 23.6419ZM35.7716 24.5005C35.6641 24.5005 35.561 24.4578 35.4849 24.3818C35.4089 24.3058 35.3662 24.2027 35.3662 24.0951V23.6853C35.3662 23.5777 35.4089 23.4746 35.4849 23.3986C35.561 23.3226 35.6641 23.2799 35.7716 23.2799C35.8791 23.2799 35.9822 23.3226 36.0583 23.3986C36.1343 23.4746 36.177 23.5777 36.177 23.6853V24.0951C36.177 24.2027 36.1343 24.3058 36.0583 24.3818C35.9822 24.4578 35.8791 24.5005 35.7716 24.5005ZM34.4054 25.6438C34.2979 25.6438 34.1947 25.6011 34.1187 25.525C34.0427 25.449 34 25.3459 34 25.2384V24.8289C34 24.7214 34.0427 24.6183 34.1187 24.5423C34.1947 24.4662 34.2979 24.4235 34.4054 24.4235C34.5129 24.4235 34.616 24.4662 34.692 24.5423C34.7681 24.6183 34.8108 24.7214 34.8108 24.8289V25.2388C34.8107 25.3462 34.7679 25.4492 34.6919 25.5252C34.6159 25.6011 34.5128 25.6438 34.4054 25.6438ZM35.7716 26.5024C35.6641 26.5024 35.561 26.4597 35.4849 26.3837C35.4089 26.3077 35.3662 26.2045 35.3662 26.097V25.6892C35.3662 25.5817 35.4089 25.4786 35.4849 25.4025C35.561 25.3265 35.6641 25.2838 35.7716 25.2838C35.8791 25.2838 35.9822 25.3265 36.0583 25.4025C36.1343 25.4786 36.177 25.5817 36.177 25.6892V26.0991C36.1765 26.2062 36.1335 26.3088 36.0575 26.3844C35.9816 26.46 35.8788 26.5024 35.7716 26.5024ZM34.4054 27.6461C34.2979 27.6461 34.1947 27.6034 34.1187 27.5273C34.0427 27.4513 34 27.3482 34 27.2407V26.8308C34 26.7233 34.0427 26.6202 34.1187 26.5441C34.1947 26.4681 34.2979 26.4254 34.4054 26.4254C34.5129 26.4254 34.616 26.4681 34.692 26.5441C34.7681 26.6202 34.8108 26.7233 34.8108 26.8308V27.2407C34.8108 27.3482 34.7681 27.4513 34.692 27.5273C34.616 27.6034 34.5129 27.6461 34.4054 27.6461ZM35.7716 28.5047C35.6641 28.5047 35.561 28.462 35.4849 28.386C35.4089 28.31 35.3662 28.2068 35.3662 28.0993V27.6895C35.3662 27.5819 35.4089 27.4788 35.4849 27.4028C35.561 27.3268 35.6641 27.2841 35.7716 27.2841C35.8791 27.2841 35.9822 27.3268 36.0583 27.4028C36.1343 27.4788 36.177 27.5819 36.177 27.6895V28.0993C36.177 28.2068 36.1343 28.31 36.0583 28.386C35.9822 28.462 35.8791 28.5047 35.7716 28.5047ZM34.4054 29.6484C34.2979 29.6484 34.1947 29.6057 34.1187 29.5296C34.0427 29.4536 34 29.3505 34 29.243V28.8331C34 28.7256 34.0427 28.6225 34.1187 28.5464C34.1947 28.4704 34.2979 28.4277 34.4054 28.4277C34.5129 28.4277 34.616 28.4704 34.692 28.5464C34.7681 28.6225 34.8108 28.7256 34.8108 28.8331V29.243C34.8108 29.3505 34.7681 29.4536 34.692 29.5296C34.616 29.6057 34.5129 29.6484 34.4054 29.6484ZM35.7716 30.5066C35.6641 30.5066 35.561 30.4639 35.4849 30.3879C35.4089 30.3119 35.3662 30.2087 35.3662 30.1012V29.6913C35.3662 29.5838 35.4089 29.4807 35.4849 29.4047C35.561 29.3287 35.6641 29.2859 35.7716 29.2859C35.8791 29.2859 35.9822 29.3287 36.0583 29.4047C36.1343 29.4807 36.177 29.5838 36.177 29.6913V30.1012C36.177 30.2087 36.1343 30.3119 36.0583 30.3879C35.9822 30.4639 35.8791 30.5066 35.7716 30.5066ZM34.4054 31.6486C34.2979 31.6486 34.1947 31.6059 34.1187 31.5299C34.0427 31.4539 34 31.3508 34 31.2432V30.835C34 30.7275 34.0427 30.6244 34.1187 30.5483C34.1947 30.4723 34.2979 30.4296 34.4054 30.4296C34.5129 30.4296 34.616 30.4723 34.692 30.5483C34.7681 30.6244 34.8108 30.7275 34.8108 30.835V31.2432C34.8108 31.3508 34.7681 31.4539 34.692 31.5299C34.616 31.6059 34.5129 31.6486 34.4054 31.6486ZM35.7716 32.5089C35.6641 32.5089 35.561 32.4662 35.4849 32.3902C35.4089 32.3141 35.3662 32.211 35.3662 32.1035V31.6936C35.3662 31.5861 35.4089 31.483 35.4849 31.407C35.561 31.331 35.6641 31.2882 35.7716 31.2882C35.8791 31.2882 35.9822 31.331 36.0583 31.407C36.1343 31.483 36.177 31.5861 36.177 31.6936V32.1035C36.177 32.211 36.1343 32.3141 36.0583 32.3902C35.9822 32.4662 35.8791 32.5089 35.7716 32.5089ZM34.4054 33.6526C34.2979 33.6526 34.1947 33.6099 34.1187 33.5338C34.0427 33.4578 34 33.3547 34 33.2472V32.8373C34 32.7298 34.0427 32.6267 34.1187 32.5506C34.1947 32.4746 34.2979 32.4319 34.4054 32.4319C34.5129 32.4319 34.616 32.4746 34.692 32.5506C34.7681 32.6267 34.8108 32.7298 34.8108 32.8373V33.2472C34.8108 33.3547 34.7681 33.4578 34.692 33.5338C34.616 33.6099 34.5129 33.6526 34.4054 33.6526ZM35.7716 34.5108C35.6641 34.5108 35.561 34.4681 35.4849 34.3921C35.4089 34.316 35.3662 34.2129 35.3662 34.1054V33.6955C35.3662 33.588 35.4089 33.4849 35.4849 33.4089C35.561 33.3328 35.6641 33.2901 35.7716 33.2901C35.8791 33.2901 35.9822 33.3328 36.0583 33.4089C36.1343 33.4849 36.177 33.588 36.177 33.6955V34.1054C36.177 34.2129 36.1343 34.316 36.0583 34.3921C35.9822 34.4681 35.8791 34.5108 35.7716 34.5108ZM38.472 35.9727H10.9044C10.7969 35.9727 10.6938 35.93 10.6178 35.854C10.5417 35.7779 10.499 35.6748 10.499 35.5673C10.499 35.4598 10.5417 35.3567 10.6178 35.2806C10.6938 35.2046 10.7969 35.1619 10.9044 35.1619H38.472C38.5795 35.1619 38.6826 35.2046 38.7587 35.2806C38.8347 35.3567 38.8774 35.4598 38.8774 35.5673C38.8774 35.6748 38.8347 35.7779 38.7587 35.854C38.6826 35.93 38.5795 35.9727 38.472 35.9727Z" fill="#FAFAFA"/>
<path fill-rule="evenodd" clip-rule="evenodd" d="M25 49C38.2548 49 49 38.2548 49 25C49 11.7452 38.2548 1 25 1C11.7452 1 1 11.7452 1 25C1 38.2548 11.7452 49 25 49ZM25 50C38.8071 50 50 38.8071 50 25C50 11.1929 38.8071 0 25 0C11.1929 0 0 11.1929 0 25C0 38.8071 11.1929 50 25 50Z" fill="#FAFAFA"/>
</svg>
