<svg width="88" height="53" viewBox="0 0 88 53" fill="none" xmlns="http://www.w3.org/2000/svg">
<path d="M36.4147 14.3947C39.2293 12.9314 41.9202 11.2417 44.461 9.34227C50.0438 5.3366 55.7801 0.968036 62.6051 0.151548C58.418 -0.392777 54.1681 0.591194 50.2252 2.11251C46.2823 3.63383 42.5488 5.67855 38.7037 7.37433C35.7029 8.69327 32.5486 9.81682 29.2687 9.90056C25.9888 9.9843 22.5553 8.88867 20.4269 6.41129L27.9916 0.0747838C27.859 0.18644 27.224 0.116656 27.0425 0.130613L25.926 0.228312C25.2281 0.298098 24.4954 0.388818 23.7836 0.500475C22.3728 0.719889 20.9751 1.01575 19.5964 1.38675C14.0167 2.85868 8.80311 5.4726 4.28555 9.06314C3.44347 9.73773 2.62698 10.4356 1.83608 11.1567C1.48715 11.4777 1.13823 11.7778 0.775349 12.1128C0.412465 12.4477 -0.0202043 12.9013 0.000731257 13.327C0.0216669 13.7527 0.600886 14.0249 1.02658 14.1714C1.60715 14.3334 2.19996 14.4477 2.79912 14.5134C4.4791 14.5413 6.15766 14.4011 7.8097 14.0947C8.37496 14.0249 8.94023 13.9621 9.50549 13.9411C15.0395 13.6829 20.2454 16.7325 25.7794 16.9907C29.489 17.0563 33.1525 16.162 36.4147 14.3947Z" fill="url(#paint0_linear_1855_748)"/>
<path d="M48.4319 20.438C52.0816 17.6466 55.4593 14.5551 59.1788 11.8754C67.0017 6.22973 75.6133 4.7433 84.9366 6.75312L88.0001 7.45097C75.5225 1.54714 63.2403 0.472439 51.2233 8.60243C47.4339 11.1705 43.7842 13.955 39.7924 16.223C35.8007 18.491 31.5578 19.8239 26.9101 19.454C26.4565 19.454 26.0099 19.3633 25.5144 19.2935C24.6909 19.1749 23.8256 19.0214 22.8276 18.8818C23.5255 19.3703 24.1815 19.8239 24.8584 20.2775C26.6314 21.4156 28.4992 22.3985 30.4412 23.2155C36.9941 25.9231 42.9119 24.6112 48.4319 20.438Z" fill="url(#paint1_linear_1855_748)"/>
<path d="M55.9336 17.0604C52.9538 19.3075 50.1065 21.7291 46.9523 23.7458C43.798 25.7626 40.4134 27.0258 36.617 26.9211C35.5982 26.9211 34.5793 26.7466 33.3022 26.628C35.2934 27.9247 37.4235 28.9944 39.6527 29.8172C45.096 31.7781 49.8553 30.4592 54.1611 26.8304C57.0153 24.4228 59.6253 21.75 62.5353 19.4052C68.6555 14.5202 75.5921 12.9082 83.2615 14.1434L85.7878 14.5551C75.3758 10.3261 65.3616 9.94231 55.9336 17.0604Z" fill="url(#paint2_linear_1855_748)"/>
<path d="M5.86954 49.727L2.04531 45.6585V49.727H1.16602V40.9201H2.04531V45.0374L5.86954 40.9201H6.98611L2.86878 45.3166L7.0559 49.727H5.86954Z" fill="#2B2B2B"/>
<path d="M14.9629 49.727H14.0836L9.19863 42.3158V49.727H8.31934V40.9201H9.19863L14.0836 48.3173V40.9201H14.9629V49.727Z" fill="#2B2B2B"/>
<path d="M22.0668 47.6334H18.0612L17.2935 49.727H16.3584L19.5476 41.0317H20.5455L23.7417 49.727H22.8135L22.0668 47.6334ZM21.8017 46.9356L20.064 42.1692L18.3263 46.9356H21.8017Z" fill="#2B2B2B"/>
<path d="M32.1088 43.4883C31.8733 42.9275 31.4714 42.4526 30.9574 42.1275C30.4129 41.7846 29.7793 41.6098 29.136 41.625C28.5198 41.616 27.9124 41.7726 27.3774 42.0786C26.8527 42.3846 26.4247 42.832 26.1422 43.3696C25.8274 43.9693 25.6713 44.6396 25.6886 45.3167C25.6722 45.9958 25.8283 46.6681 26.1422 47.2706C26.4205 47.8131 26.8494 48.2638 27.3774 48.5686C27.8995 48.8565 28.4841 49.0121 29.0802 49.0218C29.6763 49.0316 30.2657 48.8951 30.7969 48.6245C31.2853 48.3616 31.693 47.9708 31.9763 47.4939C32.2866 46.9702 32.4639 46.3784 32.4927 45.7703H28.7871V45.0724H33.4208V45.7144C33.3875 46.4534 33.1717 47.1727 32.7927 47.808C32.4234 48.4254 31.8989 48.9354 31.2714 49.2874C30.6202 49.6544 29.8834 49.8422 29.136 49.8317C28.3611 49.8386 27.5981 49.6413 26.9238 49.2595C26.2609 48.8815 25.717 48.3255 25.3536 47.6544C24.9777 46.9375 24.7812 46.1401 24.7812 45.3306C24.7813 44.5211 24.9777 43.7236 25.3536 43.0067C25.7171 42.3376 26.2612 41.7839 26.9238 41.4087C27.6455 41.0121 28.46 40.8152 29.2831 40.8386C30.1063 40.8619 30.9083 41.1044 31.6064 41.5413C32.3159 42.0126 32.8543 42.7004 33.1417 43.5022L32.1088 43.4883Z" fill="#2B2B2B"/>
<path d="M35.9195 41.6389V44.9258H39.2552V45.6585H35.9195V48.9943H39.6321V49.6921H35.0332V40.9062H39.6321V41.6389H35.9195Z" fill="#2B2B2B"/>
<path d="M46.066 49.727L43.8887 46.0493H42.2627V49.727H41.3765V40.9201H44.0283C44.8341 40.8621 45.632 41.1114 46.2614 41.6179C46.5142 41.8545 46.713 42.1427 46.8443 42.4631C46.9756 42.7834 47.0362 43.1283 47.0221 43.4742C47.0382 44.0635 46.8454 44.6394 46.4778 45.1002C46.0625 45.5799 45.4872 45.8923 44.8588 45.9795L47.1268 49.72L46.066 49.727ZM42.2627 45.3305H44.0353C44.5998 45.3731 45.1585 45.1927 45.5915 44.828C45.7677 44.6524 45.9053 44.4418 45.9954 44.2099C46.0856 43.978 46.1263 43.7298 46.1149 43.4812C46.1303 43.234 46.0935 42.9864 46.0069 42.7543C45.9204 42.5223 45.786 42.311 45.6124 42.1343C45.1623 41.7843 44.5964 41.6173 44.0283 41.6668H42.2627V45.3305Z" fill="#2B2B2B"/>
<path d="M54.1609 50.027C54.203 50.7423 53.9959 51.4501 53.5747 52.0298C53.3709 52.2669 53.1148 52.4534 52.8265 52.5745C52.5383 52.6956 52.2258 52.7481 51.9139 52.7277C51.2896 52.7369 50.6828 52.5214 50.2041 52.1206L50.7066 51.3459C51.0448 51.6054 51.4596 51.7453 51.8859 51.7437C52.0604 51.7475 52.2331 51.7073 52.388 51.6268C52.5429 51.5463 52.675 51.4281 52.7722 51.2831C53.0048 50.9196 53.1193 50.493 53.1002 50.0619V43.5928H54.1609V47.5077C54.1522 47.6702 54.1781 47.8326 54.2371 47.9842C54.2961 48.1359 54.3867 48.2732 54.5029 48.387C54.6246 48.4994 54.7675 48.5864 54.9233 48.6427C55.0791 48.699 55.2447 48.7236 55.4101 48.715H55.6055V49.699H55.5706C55.2949 49.7349 55.0148 49.6877 54.7661 49.5633C54.5174 49.439 54.3116 49.2433 54.1749 49.0011L54.1609 50.027Z" fill="#2B2B2B"/>
<path d="M55.3613 48.7431H57.7619V49.727H55.3613V48.7431Z" fill="#2B2B2B"/>
<path d="M57.5107 48.7431H59.9183V49.727H57.5107V48.7431Z" fill="#2B2B2B"/>
<path d="M59.667 48.7431H62.0676V49.727H59.667V48.7431Z" fill="#2B2B2B"/>
<path d="M61.8167 48.7431H64.2103V49.727H61.8027L61.8167 48.7431Z" fill="#2B2B2B"/>
<path d="M63.9727 48.7431H66.3802V49.727H63.9727V48.7431Z" fill="#2B2B2B"/>
<path d="M66.1226 49.727V48.743H68.1254C67.822 48.4574 67.5849 48.1089 67.4306 47.7219C67.2762 47.3349 67.2085 46.9188 67.2321 46.5029C67.2066 46.0949 67.2666 45.6861 67.4085 45.3027C67.5503 44.9193 67.7707 44.5699 68.0556 44.2767C68.3476 44.0088 68.6896 43.8012 69.0621 43.6659C69.4345 43.5306 69.8301 43.4701 70.2259 43.4882C70.8328 43.4742 71.4347 43.6008 71.9845 43.858L71.6426 44.8001C71.1785 44.5938 70.6779 44.4822 70.1701 44.4721C68.9768 44.4721 68.3766 45.17 68.3766 46.5657C68.3536 47.1248 68.5021 47.6776 68.8023 48.1498C68.9229 48.3379 69.0892 48.4923 69.2857 48.5984C69.4822 48.7046 69.7025 48.7592 69.9259 48.757H72.173V49.7409L66.1226 49.727ZM69.9259 41.0317C70.3655 41.0317 70.5819 41.269 70.5819 41.7296C70.5819 42.1902 70.3655 42.4274 69.9259 42.4274C69.4862 42.4274 69.2769 42.1971 69.2769 41.7296C69.2769 41.262 69.4932 41.0317 69.9259 41.0317Z" fill="#2B2B2B"/>
<path d="M75.0756 48.743H76.8063V49.727H73.98V40.1525H75.0965L75.0756 48.743Z" fill="#2B2B2B"/>
<path d="M76.5552 48.743H78.2789V43.6208H79.3954V47.5357C79.3867 47.6982 79.4126 47.8606 79.4716 48.0122C79.5306 48.1639 79.6212 48.3012 79.7374 48.415C79.8591 48.5274 80.002 48.6143 80.1578 48.6707C80.3136 48.727 80.4791 48.7516 80.6446 48.743H81.0982V49.727H80.8121C80.5364 49.7629 80.2563 49.7157 80.0076 49.5913C79.7589 49.467 79.5531 49.2712 79.4164 49.0291V49.727H76.5761L76.5552 48.743ZM78.8651 41.0317C79.2977 41.0317 79.5141 41.2643 79.5141 41.7296C79.5141 42.1971 79.2977 42.4274 78.8651 42.4274C78.4324 42.4274 78.2091 42.1971 78.2091 41.7296C78.2091 41.262 78.3975 41.0317 78.8651 41.0317Z" fill="#2B2B2B"/>
<path d="M80.8472 49.727V48.743H85.7321V46.4262C85.7321 45.2049 84.9575 44.5978 83.4083 44.5978H81.7753V43.572C82.2198 42.6584 82.8385 41.8405 83.5967 41.1644C84.3543 40.4425 85.2393 39.8675 86.2067 39.4686L86.6114 40.4316C85.784 40.7735 85.0161 41.2446 84.3364 41.8273C83.7154 42.322 83.2004 42.9367 82.8221 43.6348H83.4083C84.297 43.5891 85.1765 43.8341 85.9136 44.3326C86.2078 44.5612 86.4421 44.8578 86.5965 45.197C86.7509 45.5361 86.8207 45.9076 86.7999 46.2796V49.7689L80.8472 49.727Z" fill="#2B2B2B"/>
<defs>
<linearGradient id="paint0_linear_1855_748" x1="105.307" y1="11.7778" x2="34.5933" y2="8.02333" gradientUnits="userSpaceOnUse">
<stop stop-color="#F5DE01"/>
<stop offset="1" stop-color="#F5AC01"/>
</linearGradient>
<linearGradient id="paint1_linear_1855_748" x1="105.063" y1="16.4114" x2="34.3422" y2="12.657" gradientUnits="userSpaceOnUse">
<stop stop-color="#F5DE01"/>
<stop offset="1" stop-color="#F5AC01"/>
</linearGradient>
<linearGradient id="paint2_linear_1855_748" x1="104.679" y1="23.5644" x2="33.9652" y2="19.81" gradientUnits="userSpaceOnUse">
<stop stop-color="#F5DE01"/>
<stop offset="1" stop-color="#F5AC01"/>
</linearGradient>
</defs>
</svg>
