<svg width="76" height="76" viewBox="0 0 76 76" fill="none" xmlns="http://www.w3.org/2000/svg">
<path d="M47.2359 21.1382C47.2357 19.3116 46.6938 17.5261 45.6788 16.0075C44.6638 14.4889 43.2213 13.3053 41.5337 12.6065C39.8461 11.9076 37.9892 11.7249 36.1977 12.0814C34.4063 12.4379 32.7608 13.3176 31.4693 14.6093C30.1778 15.901 29.2983 17.5466 28.942 19.3381C28.5858 21.1296 28.7687 22.9865 29.4678 24.674C30.1669 26.3616 31.3506 27.8039 32.8694 28.8187C34.3881 29.8334 36.1737 30.3751 38.0003 30.3751C40.449 30.3721 42.7966 29.3979 44.528 27.6663C46.2594 25.9346 47.2333 23.5869 47.2359 21.1382ZM30.9522 21.1382C30.9524 19.7443 31.366 18.3817 32.1406 17.2228C32.9152 16.0639 34.016 15.1607 35.3039 14.6275C36.5918 14.0942 38.0089 13.9548 39.3761 14.2269C40.7432 14.499 41.9989 15.1704 42.9845 16.1561C43.9701 17.1418 44.6412 18.3977 44.9131 19.7649C45.1849 21.132 45.0453 22.5491 44.5118 23.8369C43.9783 25.1247 43.0749 26.2254 41.9159 26.9998C40.7568 27.7742 39.3942 28.1876 38.0003 28.1876C36.1314 28.1854 34.3398 27.442 33.0184 26.1204C31.6971 24.7988 30.954 23.007 30.9522 21.1382Z" fill="#F5AC01"/>
<path d="M75.0801 73.6682L66.1639 50.2932C66.0848 50.0862 65.9448 49.9081 65.7623 49.7825C65.5798 49.6568 65.3635 49.5895 65.142 49.5894H48.267C48.3701 49.4213 48.4726 49.2582 48.5757 49.0894C55.0689 38.3394 58.3364 28.9357 58.2895 21.1432C58.2904 15.7619 56.1536 10.6007 52.3491 6.79497C48.5447 2.98921 43.3842 0.850643 38.0029 0.849732C32.6217 0.84882 27.4605 2.98564 23.6547 6.7901C19.849 10.5946 17.7104 15.7551 17.7095 21.1363C17.6626 28.9357 20.9301 38.3407 27.4232 49.0894C27.5264 49.26 27.6289 49.4232 27.732 49.5894H10.857C10.6354 49.5895 10.4191 49.6568 10.2367 49.7825C10.0542 49.9081 9.9142 50.0862 9.83512 50.2932L0.920118 73.6682C0.856596 73.8338 0.834352 74.0124 0.855308 74.1885C0.876265 74.3646 0.939792 74.533 1.0404 74.6791C1.14101 74.8252 1.27567 74.9446 1.43275 75.027C1.58984 75.1093 1.76462 75.1522 1.94199 75.1519H74.0582C74.2356 75.1522 74.4104 75.1093 74.5675 75.027C74.7246 74.9446 74.8592 74.8252 74.9598 74.6791C75.0604 74.533 75.124 74.3646 75.1449 74.1885C75.1659 74.0124 75.1436 73.8338 75.0801 73.6682ZM19.8976 21.1382C19.898 18.7609 20.3667 16.407 21.2768 14.2109C22.1869 12.0147 23.5207 10.0194 25.2019 8.33868C26.8832 6.658 28.879 5.32493 31.0755 4.41557C33.2719 3.50621 35.626 3.03838 38.0032 3.03879C40.3805 3.0392 42.7344 3.50785 44.9305 4.41796C47.1267 5.32808 49.122 6.66184 50.8027 8.3431C52.4834 10.0244 53.8165 12.0202 54.7258 14.2167C55.6352 16.4131 56.103 18.7672 56.1026 21.1444C56.1964 36.6807 41.6714 55.8426 38.0001 60.4376C34.3289 55.8444 19.8032 36.6875 19.8976 21.1382ZM37.167 62.8751C37.2697 62.9958 37.3974 63.0927 37.5412 63.1592C37.6851 63.2257 37.8416 63.2601 38.0001 63.2601C38.1586 63.2601 38.3152 63.2257 38.459 63.1592C38.6029 63.0927 38.7306 62.9958 38.8332 62.8751C41.7372 59.3375 44.4294 55.6312 46.8957 51.7757H64.3876L65.7876 55.4476L31.6057 67.6044L19.422 51.7738H29.1032C31.5699 55.63 34.2625 59.3369 37.167 62.8751ZM31.5676 69.9376H31.5739L51.9657 62.6875L59.8751 72.9644H23.0626L31.5676 69.9376ZM11.6114 51.7738H16.6614L29.4376 68.3751L16.5357 72.9638H3.52949L11.6114 51.7738ZM62.6382 72.9644L54.1326 61.9132L66.5701 57.4901L72.472 72.9644H62.6382Z" fill="#F5AC01"/>
</svg>
