<svg width="137" height="83" viewBox="0 0 137 83" fill="none" xmlns="http://www.w3.org/2000/svg">
<path d="M56.6911 22.41C61.0728 20.1318 65.2621 17.5012 69.2176 14.5442C77.909 8.30811 86.8395 1.50706 97.4648 0.235933C90.9462 -0.611483 84.3298 0.920381 78.1915 3.2888C72.0532 5.65722 66.2408 8.84047 60.2545 11.4805C55.5829 13.5338 50.6722 15.283 45.566 15.4134C40.4598 15.5437 35.1145 13.838 31.8009 9.98121L43.5779 0.116425C43.3714 0.290254 42.3828 0.181613 42.1003 0.203341L40.362 0.355441C39.2756 0.464084 38.1348 0.605319 37.0267 0.779148C34.8304 1.12074 32.6544 1.58134 30.5081 2.15892C21.8214 4.45045 13.7048 8.51983 6.67182 14.1097C5.36086 15.1599 4.08973 16.2463 2.85844 17.3689C2.31522 17.8687 1.77202 18.3359 1.20708 18.8573C0.642133 19.3788 -0.0314545 20.085 0.00113843 20.7477C0.0337313 21.4105 0.93547 21.8342 1.59819 22.0623C2.50204 22.3145 3.42493 22.4925 4.35772 22.5947C6.97314 22.6382 9.58635 22.4198 12.1583 21.9428C13.0383 21.8342 13.9183 21.7364 14.7983 21.7038C23.4137 21.3018 31.5185 26.0495 40.1339 26.4515C45.909 26.5535 51.6124 25.1613 56.6911 22.41Z" fill="#FAFAFA"/>
<path d="M75.3992 31.8185C81.0813 27.4728 86.3396 22.6599 92.1302 18.488C104.309 9.69877 117.716 7.38467 132.23 10.5136L137 11.6C117.574 2.40882 98.4533 0.735715 79.7449 13.3926C73.8456 17.3907 68.1636 21.7255 61.9492 25.2564C55.7348 28.7873 49.1293 30.8624 41.8937 30.2866C41.1875 30.2866 40.4922 30.1454 39.7208 30.0367C38.4389 29.8521 37.0917 29.613 35.5381 29.3957C36.6245 30.1562 37.6458 30.8624 38.6996 31.5686C41.4598 33.3403 44.3678 34.8706 47.391 36.1425C57.5926 40.3578 66.8056 38.3153 75.3992 31.8185Z" fill="#FAFAFA"/>
<path d="M87.0786 26.5599C82.4396 30.0582 78.0069 33.8281 73.0963 36.9679C68.1856 40.1077 62.9164 42.0741 57.0062 41.9112C55.4201 41.9112 53.8339 41.6396 51.8457 41.4549C54.9456 43.4736 58.2617 45.139 61.7322 46.4198C70.2064 49.4727 77.6158 47.4194 84.3191 41.7699C88.7626 38.0217 92.8259 33.8607 97.3563 30.2103C106.884 22.6053 117.683 20.0956 129.623 22.0186L133.556 22.6596C117.347 16.0758 101.756 15.4783 87.0786 26.5599Z" fill="#FAFAFA"/>
<path d="M9.13796 77.4158L3.18433 71.0819V77.4158H1.81543V63.7051H3.18433V70.115L9.13796 63.7051H10.8763L4.46632 70.5496L10.9849 77.4158H9.13796Z" fill="#FAFAFA"/>
<path d="M23.294 77.4158H21.9251L14.3201 65.8779V77.4158H12.9512V63.7051H14.3201L21.9251 75.2212V63.7051H23.294V77.4158Z" fill="#FAFAFA"/>
<path d="M34.3543 74.1565H28.1182L26.9231 77.4158H25.4673L30.4323 63.8789H31.9859L36.9617 77.4158H35.5168L34.3543 74.1565ZM33.9414 73.0701L31.2362 65.6498L28.531 73.0701H33.9414Z" fill="#FAFAFA"/>
<path d="M49.9878 67.7032C49.621 66.8303 48.9954 66.0909 48.1952 65.5847C47.3475 65.0508 46.3612 64.7788 45.3596 64.8024C44.4002 64.7884 43.4547 65.0322 42.6218 65.5086C41.805 65.985 41.1386 66.6815 40.6988 67.5185C40.2088 68.4521 39.9657 69.4956 39.9927 70.5497C39.9672 71.6071 40.2101 72.6536 40.6988 73.5917C41.132 74.4362 41.7997 75.1379 42.6218 75.6124C43.4346 76.0606 44.3447 76.3028 45.2728 76.318C46.2008 76.3331 47.1184 76.1207 47.9453 75.6993C48.7057 75.2901 49.3404 74.6817 49.7814 73.9393C50.2645 73.1239 50.5406 72.2026 50.5854 71.2558H44.8164V70.1694H52.0303V71.1689C51.9785 72.3194 51.6425 73.4391 51.0525 74.4282C50.4774 75.3894 49.6609 76.1834 48.6841 76.7314C47.6703 77.3027 46.5232 77.5951 45.3596 77.5788C44.1533 77.5896 42.9654 77.2823 41.9156 76.688C40.8836 76.0995 40.0369 75.2339 39.4712 74.1892C38.8859 73.0731 38.5801 71.8316 38.5801 70.5714C38.5801 69.3111 38.8859 68.0696 39.4712 66.9535C40.0371 65.9118 40.884 65.0498 41.9156 64.4656C43.0392 63.8482 44.3071 63.5418 45.5887 63.5781C46.8702 63.6144 48.1188 63.992 49.2056 64.6721C50.3101 65.4059 51.1484 66.4766 51.5957 67.7249L49.9878 67.7032Z" fill="#FAFAFA"/>
<path d="M55.9198 64.8243V69.9414H61.1129V71.0822H55.9198V76.2753H61.6996V77.3617H54.54V63.6836H61.6996V64.8243H55.9198Z" fill="#FAFAFA"/>
<path d="M71.7163 77.416L68.3267 71.6905H65.7953V77.416H64.4155V63.7052H68.544C69.7985 63.615 71.0406 64.0031 72.0205 64.7917C72.4141 65.1599 72.7236 65.6087 72.928 66.1074C73.1323 66.6061 73.2267 67.143 73.2047 67.6816C73.2297 68.5989 72.9296 69.4955 72.3573 70.2129C71.7109 70.9597 70.8151 71.4462 69.8368 71.5818L73.3677 77.4051L71.7163 77.416ZM65.7953 70.5715H68.5548C69.4336 70.6378 70.3034 70.3569 70.9776 69.7892C71.2519 69.5157 71.4661 69.188 71.6064 68.8269C71.7467 68.4658 71.8101 68.0794 71.7924 67.6924C71.8164 67.3076 71.7591 66.9221 71.6243 66.5608C71.4896 66.1996 71.2803 65.8707 71.0102 65.5956C70.3093 65.0506 69.4284 64.7907 68.544 64.8677H65.7953V70.5715Z" fill="#FAFAFA"/>
<path d="M84.3188 77.8826C84.3843 78.9962 84.0618 80.0981 83.4062 81.0007C83.0889 81.3698 82.6901 81.6601 82.2414 81.8486C81.7926 82.0372 81.3062 82.1188 80.8205 82.0871C79.8486 82.1014 78.9039 81.766 78.1587 81.1419L78.9409 79.9359C79.4675 80.3399 80.1133 80.5577 80.777 80.5552C81.0487 80.5611 81.3175 80.4985 81.5586 80.3732C81.7998 80.2479 82.0054 80.0639 82.1567 79.8382C82.5189 79.2722 82.6972 78.6082 82.6674 77.9369V67.8657H84.3188V73.9606C84.3051 74.2135 84.3455 74.4664 84.4373 74.7024C84.5291 74.9385 84.6702 75.1523 84.8511 75.3295C85.0406 75.5045 85.2631 75.6398 85.5057 75.7275C85.7482 75.8152 86.0059 75.8535 86.2635 75.8401H86.5677V77.372H86.5133C86.0841 77.4279 85.648 77.3544 85.2609 77.1608C84.8738 76.9672 84.5533 76.6625 84.3405 76.2856L84.3188 77.8826Z" fill="#FAFAFA"/>
<path d="M86.1875 75.8843H89.9248V77.4161H86.1875V75.8843Z" fill="#FAFAFA"/>
<path d="M89.5337 75.8843H93.2819V77.4161H89.5337V75.8843Z" fill="#FAFAFA"/>
<path d="M92.8911 75.8843H96.6284V77.4161H92.8911V75.8843Z" fill="#FAFAFA"/>
<path d="M96.2371 75.8843H99.9635V77.4161H96.2153L96.2371 75.8843Z" fill="#FAFAFA"/>
<path d="M99.5942 75.8843H103.342V77.4161H99.5942V75.8843Z" fill="#FAFAFA"/>
<path d="M102.94 77.4158V75.8839H106.058C105.586 75.4394 105.217 74.8968 104.977 74.2943C104.737 73.6918 104.631 73.0441 104.668 72.3965C104.628 71.7614 104.722 71.1249 104.942 70.5281C105.163 69.9312 105.506 69.3871 105.95 68.9308C106.404 68.5137 106.937 68.1905 107.517 67.9798C108.097 67.7691 108.712 67.6751 109.329 67.7031C110.273 67.6814 111.21 67.8784 112.066 68.2789L111.534 69.7456C110.812 69.4243 110.032 69.2507 109.242 69.235C107.384 69.235 106.45 70.3214 106.45 72.4943C106.414 73.3647 106.645 74.2253 107.112 74.9605C107.3 75.2533 107.559 75.4936 107.865 75.6589C108.171 75.8242 108.514 75.9092 108.861 75.9057H112.36V77.4376L102.94 77.4158ZM108.861 63.8789C109.546 63.8789 109.883 64.2483 109.883 64.9653C109.883 65.6824 109.546 66.0518 108.861 66.0518C108.177 66.0518 107.851 65.6932 107.851 64.9653C107.851 64.2374 108.188 63.8789 108.861 63.8789Z" fill="#FAFAFA"/>
<path d="M116.88 75.8837H119.574V77.4156H115.174V62.5098H116.912L116.88 75.8837Z" fill="#FAFAFA"/>
<path d="M119.183 75.8839H121.866V67.9096H123.604V74.0044C123.591 74.2573 123.631 74.5102 123.723 74.7463C123.815 74.9823 123.956 75.1961 124.137 75.3733C124.326 75.5483 124.549 75.6837 124.791 75.7714C125.034 75.859 125.292 75.8973 125.549 75.8839H126.255V77.4158H125.81C125.381 77.4717 124.945 77.3982 124.557 77.2047C124.17 77.0111 123.85 76.7063 123.637 76.3294V77.4158H119.215L119.183 75.8839ZM122.779 63.8789C123.452 63.8789 123.789 64.241 123.789 64.9653C123.789 65.6932 123.452 66.0518 122.779 66.0518C122.105 66.0518 121.757 65.6932 121.757 64.9653C121.757 64.2374 122.051 63.8789 122.779 63.8789Z" fill="#FAFAFA"/>
<path d="M125.864 77.4158V75.8839H133.469V72.277C133.469 70.3758 132.263 69.4305 129.851 69.4305H127.309V67.8335C128.001 66.4113 128.964 65.138 130.145 64.0853C131.324 62.9615 132.702 62.0664 134.208 61.4453L134.838 62.9446C133.55 63.4769 132.355 64.2103 131.296 65.1175C130.33 65.8875 129.528 66.8445 128.939 67.9313H129.851C131.235 67.8602 132.604 68.2416 133.752 69.0177C134.21 69.3737 134.575 69.8354 134.815 70.3634C135.055 70.8913 135.164 71.4697 135.132 72.0488V77.481L125.864 77.4158Z" fill="#FAFAFA"/>
</svg>
