<svg width="80" height="80" viewBox="0 0 80 80" fill="none" xmlns="http://www.w3.org/2000/svg">
<path d="M78.9189 0H35.8791C35.5924 4.14293e-05 35.3174 0.113955 35.1147 0.316691C34.9119 0.519426 34.798 0.794383 34.798 1.08109V24.4298H26.637C26.3503 24.4299 26.0754 24.5438 25.8726 24.7465C25.6699 24.9493 25.556 25.2242 25.5559 25.5109V35.778H21.5856V26.8861C21.5856 22.0705 17.8202 18.1283 13.0802 17.8227C16.332 16.5717 18.7077 12.7297 18.7077 8.19234C18.7078 3.13906 15.675 0 10.7933 0C5.91078 0 2.87797 3.13906 2.87797 8.1925C2.87797 12.7298 5.25359 16.5719 8.50578 17.8228C3.76578 18.1281 0 22.0706 0 26.8863V54.9289C4.14293e-05 55.2156 0.113955 55.4906 0.316691 55.6933C0.519426 55.896 0.794383 56.01 1.08109 56.01H4.00625V78.9189C4.00625 79.5158 4.49047 80 5.08734 80C5.68422 80 6.16844 79.5158 6.16844 78.9189V56.01H15.4175V78.9189C15.4175 79.5158 15.9017 80 16.4986 80C17.0955 80 17.5797 79.5158 17.5797 78.9189V56.01H20.5048C20.7916 56.01 21.0665 55.896 21.2692 55.6933C21.472 55.4906 21.5859 55.2156 21.5859 54.9289V44.5616H25.5563V51.9216C25.5563 52.2083 25.6702 52.4832 25.8729 52.686C26.0757 52.8887 26.3506 53.0026 26.6373 53.0027H34.7983V78.9191C34.7983 79.2058 34.9122 79.4807 35.115 79.6835C35.3177 79.8862 35.5927 80.0001 35.8794 80.0002H78.9192C79.2059 80.0001 79.4809 79.8862 79.6836 79.6835C79.8864 79.4807 80.0003 79.2058 80.0003 78.9191V1.08109C80.0002 0.794354 79.8862 0.519398 79.6834 0.316672C79.4806 0.113945 79.2057 4.13975e-05 78.9189 0ZM36.9602 26.592H42.7245V31.092L40.34 30.188C40.0993 30.097 39.8342 30.0945 39.5919 30.1809L36.9603 31.123V26.592H36.9602ZM14.6797 42.3994C13.5339 42.3994 12.5633 41.6173 12.3197 40.498L9.51984 27.6264C9.25875 26.4247 10.0238 25.2341 11.2252 24.973C12.4231 24.7119 13.6167 25.4769 13.8778 26.6783L15.7761 35.4064C16.1013 36.8981 17.3934 37.9402 18.9202 37.9402H32.3563C33.5858 37.9402 34.5859 38.9403 34.5859 40.1695C34.5859 41.3991 33.5858 42.3992 32.3563 42.3992L14.6797 42.3994ZM5.04016 8.1925C5.04016 2.94547 8.64453 2.16203 10.7933 2.16203C12.9414 2.16203 16.5456 2.94547 16.5456 8.1925C16.5456 12.5489 13.9653 16.093 10.7933 16.093C7.62125 16.093 5.04016 12.5489 5.04016 8.1925ZM19.4236 53.8478H2.16219V26.8863C2.16219 23.0645 5.27172 19.9553 9.09344 19.9553H12.4922C16.3139 19.9553 19.4234 23.0645 19.4234 26.8863V35.7781H18.9202C18.4113 35.7781 17.9975 35.4442 17.8891 34.9469L15.9908 26.2188C15.4756 23.8528 13.1305 22.3434 10.7656 22.8602H10.7648C8.4 23.375 6.89313 25.7187 7.40688 28.0858L10.2067 40.9573C10.6684 43.0794 12.5075 44.5617 14.6795 44.5617H19.4233V53.8478H19.4236ZM27.7181 44.5616H32.3564C34.7783 44.5616 36.7483 42.5916 36.7483 40.1697C36.7483 37.7481 34.7783 35.7781 32.3564 35.7781H27.7181V26.592H34.798V32.658C34.798 33.0095 34.9691 33.3392 35.2569 33.542C35.3984 33.6421 35.5621 33.7065 35.7339 33.7298C35.9056 33.7531 36.0805 33.7346 36.2436 33.6758L39.9458 32.3508L43.422 33.6688C43.7431 33.7905 44.1303 33.747 44.42 33.5477C44.5639 33.4482 44.6816 33.3152 44.7628 33.1603C44.8441 33.0053 44.8866 32.8329 44.8866 32.658V26.592H51.9664V50.8403H27.7181V44.5616ZM77.8378 77.8378H36.9602V53.0025H53.0475C53.3342 53.0025 53.6092 52.8885 53.8119 52.6858C54.0146 52.4831 54.1286 52.2081 54.1286 51.9214V25.5109C54.1286 25.2242 54.0146 24.9493 53.8119 24.7465C53.6092 24.5438 53.3342 24.4299 53.0475 24.4298H36.9602V2.16219H77.8378V77.8378ZM61.7792 40.0992H66.4659V49.0814C66.466 49.3681 66.5799 49.6431 66.7826 49.8458C66.9854 50.0485 67.2603 50.1625 67.547 50.1625H74.358C74.6447 50.1625 74.9196 50.0485 75.1224 49.8458C75.3251 49.6431 75.439 49.3681 75.4391 49.0814V30.9189C75.439 30.6322 75.3251 30.3572 75.1224 30.1545C74.9196 29.9518 74.6447 29.8379 74.358 29.8378H67.547C67.2603 29.8379 66.9854 29.9518 66.7826 30.1545C66.5799 30.3572 66.466 30.6322 66.4659 30.9189V34.3786H61.7792C60.2019 34.3786 58.9189 35.662 58.9189 37.2394C58.9189 38.8161 60.202 40.0992 61.7792 40.0992ZM68.6283 32H73.277V48.0005H68.6283V40.0992H69.3884C70.9658 40.0992 72.2488 38.8158 72.2488 37.2384C72.2488 35.6616 70.9656 34.3784 69.3884 34.3784H68.6283V32ZM61.7792 36.5406H69.3883C69.7669 36.5406 70.0864 36.8605 70.0864 37.2392C70.0864 37.6175 69.7669 37.937 69.3883 37.937H61.7792C61.4006 37.937 61.0811 37.6172 61.0811 37.2384C61.0811 36.8602 61.4006 36.5406 61.7792 36.5406Z" fill="#F5AC01"/>
</svg>
