<svg width="26" height="26" viewBox="0 0 26 26" fill="none" xmlns="http://www.w3.org/2000/svg">
<path d="M6.81013 11.2063L8.51679 10.2209C8.70879 10.1101 8.7089 9.83221 8.51679 9.72133L6.81013 8.73594C6.61848 8.62523 6.37744 8.76352 6.37744 8.98575V10.9565C6.37744 11.1801 6.62038 11.3159 6.81013 11.2063ZM6.95436 9.48542L7.79563 9.97114L6.95436 10.4568V9.48542ZM12.875 21.6538C12.2387 21.6538 11.7211 22.1714 11.7211 22.8077C11.7211 23.4439 12.2387 23.9615 12.875 23.9615C13.5112 23.9615 14.0288 23.4439 14.0288 22.8077C14.0288 22.1714 13.5112 21.6538 12.875 21.6538ZM12.875 23.3846C12.5569 23.3846 12.2981 23.1258 12.2981 22.8077C12.2981 22.4896 12.5569 22.2308 12.875 22.2308C13.1931 22.2308 13.4519 22.4896 13.4519 22.8077C13.4519 23.1258 13.1931 23.3846 12.875 23.3846ZM11.9904 2.90383H13.7404C13.8169 2.90383 13.8902 2.87344 13.9443 2.81934C13.9984 2.76524 14.0288 2.69187 14.0288 2.61537C14.0288 2.53886 13.9984 2.46549 13.9443 2.41139C13.8902 2.3573 13.8169 2.3269 13.7404 2.3269H11.9904C11.9139 2.3269 11.8405 2.3573 11.7864 2.41139C11.7323 2.46549 11.7019 2.53886 11.7019 2.61537C11.7019 2.69187 11.7323 2.76524 11.7864 2.81934C11.8405 2.87344 11.9139 2.90383 11.9904 2.90383ZM19.4147 10.6774C17.8051 10.6774 16.4955 11.9861 16.4955 13.5947C16.4955 15.2043 17.805 16.5138 19.4147 16.5138C21.0233 16.5138 22.3319 15.2043 22.3319 13.5947C22.3319 11.986 21.0232 10.6774 19.4147 10.6774ZM19.4147 15.9369C18.1232 15.9369 17.0724 14.8861 17.0724 13.5946C17.0724 12.3042 18.1232 11.2543 19.4147 11.2543C20.7052 11.2543 21.755 12.3042 21.755 13.5946C21.755 14.8861 20.7052 15.9369 19.4147 15.9369Z" fill="#FAFAFA"/>
<path d="M19.4142 11.9802C18.5232 11.9802 17.7983 12.7047 17.7983 13.5951C17.7983 14.4861 18.5232 15.2111 19.4142 15.2111C20.3047 15.2111 21.0291 14.4862 21.0291 13.5951C21.0291 12.7047 20.3046 11.9802 19.4142 11.9802ZM19.4142 14.6341C18.8413 14.6341 18.3753 14.168 18.3753 13.5951C18.3753 13.0227 18.8413 12.5571 19.4142 12.5571C19.9866 12.5571 20.4522 13.0227 20.4522 13.5951C20.4522 14.168 19.9866 14.6341 19.4142 14.6341Z" fill="#FAFAFA"/>
<path d="M24.9654 14.705C24.9733 14.6654 24.9728 14.6247 24.964 14.5853C24.9551 14.546 24.9381 14.5089 24.9141 14.4765C24.8901 14.4441 24.8595 14.4172 24.8244 14.3973C24.7893 14.3775 24.7504 14.3652 24.7103 14.3613C24.3145 14.323 24.016 13.9934 24.016 13.5948C24.0153 13.4036 24.0862 13.2192 24.2147 13.0776C24.3432 12.9361 24.52 12.8478 24.7103 12.83C24.7504 12.8261 24.7893 12.8139 24.8244 12.794C24.8595 12.7742 24.89 12.7472 24.9141 12.7148C24.9381 12.6825 24.9551 12.6454 24.9639 12.6061C24.9728 12.5668 24.9733 12.526 24.9654 12.4865C24.8196 11.7553 24.5362 11.0713 24.123 10.4535C24.1006 10.42 24.0714 10.3916 24.0373 10.37C24.0032 10.3485 23.965 10.3343 23.9251 10.3285C23.8852 10.3226 23.8445 10.3252 23.8057 10.336C23.7669 10.3468 23.7307 10.3657 23.6996 10.3913C23.4025 10.6364 22.9543 10.6265 22.668 10.3402C22.5321 10.2058 22.4515 10.0254 22.442 9.83459C22.4325 9.64374 22.4947 9.45624 22.6165 9.309C22.7241 9.17786 22.6961 8.98154 22.5542 8.8864C21.9392 8.4739 21.2557 8.1904 20.5228 8.04381C20.3559 8.01017 20.1955 8.12873 20.1791 8.29886C20.1673 8.42458 20.1245 8.5454 20.0547 8.65057C19.9848 8.75574 19.8899 8.84197 19.7786 8.90158V3.21156C19.7787 1.76942 18.6055 0.596191 17.1633 0.596191H8.56712C7.12498 0.596191 5.95175 1.76942 5.95175 3.21156V6.94234H4.29795C3.6087 6.94234 3.04793 7.50311 3.04793 8.19236V11.7501C3.04793 12.4393 3.6087 13 4.29795 13H5.95175V22.7885C5.95175 24.2307 7.12498 25.4039 8.56712 25.4039H17.1633C18.6055 25.4039 19.7787 24.2306 19.7787 22.7885V18.2897C19.89 18.3493 19.9848 18.4356 20.0547 18.5408C20.1246 18.6459 20.1674 18.7668 20.1792 18.8925C20.1831 18.9326 20.1954 18.9715 20.2152 19.0066C20.235 19.0417 20.262 19.0722 20.2944 19.0963C20.3267 19.1203 20.3638 19.1373 20.4031 19.1461C20.4425 19.1549 20.4832 19.1554 20.5228 19.1476C21.254 19.0017 21.9379 18.7182 22.5557 18.3051C22.5892 18.2827 22.6176 18.2535 22.6391 18.2194C22.6607 18.1854 22.6748 18.1471 22.6807 18.1073C22.6865 18.0674 22.684 18.0267 22.6731 17.9879C22.6623 17.949 22.6434 17.9129 22.6178 17.8818C22.3646 17.5748 22.3862 17.1317 22.6689 16.8501C22.9546 16.5632 23.403 16.5547 23.7002 16.7987C23.7313 16.8242 23.7675 16.8429 23.8062 16.8537C23.845 16.8644 23.8857 16.8669 23.9255 16.861C23.9653 16.8551 24.0034 16.8409 24.0375 16.8194C24.0715 16.7979 24.1006 16.7695 24.123 16.736C24.536 16.1185 24.8194 15.4351 24.9654 14.705ZM8.56712 1.17311H17.1633C18.2873 1.17311 19.2018 2.08754 19.2018 3.21156V3.76927H6.52868V3.21156C6.52868 2.08754 7.4431 1.17311 8.56712 1.17311ZM3.62485 11.75V9.25004H4.7787C4.8552 9.25004 4.92857 9.21965 4.98267 9.16555C5.03677 9.11145 5.06716 9.03808 5.06716 8.96158C5.06716 8.88507 5.03677 8.8117 4.98267 8.7576C4.92857 8.70351 4.8552 8.67311 4.7787 8.67311H3.62485V8.19236C3.62485 7.82123 3.92681 7.51927 4.29795 7.51927H10.7402C11.1113 7.51927 11.4133 7.82117 11.4133 8.19236V10.9808H8.81716C8.74065 10.9808 8.66728 11.0112 8.61318 11.0653C8.55909 11.1194 8.5287 11.1928 8.5287 11.2693C8.5287 11.3458 8.55909 11.4191 8.61318 11.4732C8.66728 11.5273 8.74065 11.5577 8.81716 11.5577H11.4133V11.75C11.4133 12.1212 11.1113 12.4231 10.7402 12.4231H4.29795C3.92681 12.4231 3.62485 12.1212 3.62485 11.75ZM10.7402 13C11.4295 13 11.9902 12.4393 11.9902 11.75V8.19231C11.9902 7.50306 11.4295 6.94229 10.7402 6.94229H6.52868V4.34613H19.2018V8.96371C19.0531 8.92172 18.9207 8.83574 18.8218 8.71708C18.723 8.59842 18.6623 8.45263 18.6479 8.29886C18.644 8.25872 18.6317 8.21984 18.6119 8.18473C18.592 8.14962 18.565 8.11907 18.5327 8.09503C18.5003 8.071 18.4632 8.05402 18.4239 8.0452C18.3845 8.03637 18.3437 8.0359 18.3042 8.04381C17.5714 8.19034 16.8878 8.47385 16.2727 8.8864C16.2393 8.90882 16.211 8.93797 16.1895 8.97198C16.1681 9.006 16.1539 9.04413 16.1481 9.08392C16.1422 9.12372 16.1447 9.1643 16.1555 9.20306C16.1662 9.24182 16.185 9.27791 16.2105 9.309C16.3323 9.45636 16.3946 9.644 16.3849 9.83495C16.3753 10.0259 16.2945 10.2063 16.1585 10.3407C15.8736 10.6257 15.4253 10.6371 15.1274 10.3914C15.0963 10.3657 15.0602 10.3469 15.0213 10.3361C14.9825 10.3252 14.9418 10.3227 14.902 10.3285C14.8621 10.3344 14.8238 10.3485 14.7898 10.3701C14.7557 10.3916 14.7265 10.42 14.7041 10.4536C14.2909 11.0714 14.0076 11.7554 13.8617 12.4865C13.8538 12.5261 13.8543 12.5668 13.8631 12.6062C13.872 12.6455 13.8889 12.6825 13.913 12.7149C13.937 12.7473 13.9676 12.7743 14.0027 12.7941C14.0378 12.8139 14.0766 12.8262 14.1168 12.8301C14.3071 12.8478 14.4839 12.9362 14.6124 13.0777C14.7409 13.2192 14.8118 13.4037 14.8111 13.5948C14.8111 13.9935 14.5126 14.323 14.1168 14.3613C13.9468 14.3777 13.8283 14.5377 13.8617 14.705C14.0077 15.4352 14.2911 16.1186 14.7041 16.7361C14.7265 16.7696 14.7556 16.798 14.7896 16.8195C14.8236 16.8411 14.8618 16.8552 14.9016 16.8611C14.9414 16.867 14.982 16.8645 15.0208 16.8538C15.0596 16.8431 15.0957 16.8243 15.1268 16.7988C15.423 16.5557 15.8711 16.562 16.159 16.8512C16.2949 16.9855 16.3755 17.1659 16.3851 17.3568C16.3946 17.5476 16.3323 17.7351 16.2105 17.8824C16.185 17.9135 16.1663 17.9496 16.1555 17.9884C16.1448 18.0272 16.1423 18.0678 16.1482 18.1076C16.1541 18.1475 16.1682 18.1856 16.1897 18.2196C16.2113 18.2537 16.2397 18.2828 16.2731 18.3052C16.8906 18.718 17.5739 19.0014 18.3043 19.1476C18.3438 19.1555 18.3846 19.155 18.4239 19.1462C18.4633 19.1373 18.5003 19.1203 18.5327 19.0963C18.5651 19.0723 18.5921 19.0417 18.6119 19.0066C18.6317 18.9715 18.644 18.9326 18.6479 18.8925C18.6624 18.7387 18.723 18.5929 18.8219 18.4743C18.9207 18.3556 19.0532 18.2696 19.2018 18.2277V20.2116H6.52868V13H10.7402ZM17.1633 24.827H8.56712C7.4431 24.827 6.52868 23.9125 6.52868 22.7885V20.7885H19.2018V22.7885C19.2018 23.9125 18.2873 24.827 17.1633 24.827ZM23.7923 16.179C23.2949 15.9422 22.6777 16.0238 22.261 16.4422C21.8458 16.8557 21.7528 17.4703 21.9971 17.9753C21.5873 18.2179 21.1452 18.401 20.6839 18.5193C20.4993 17.9902 19.9994 17.6212 19.4144 17.6212C18.8285 17.6212 18.328 17.9901 18.1432 18.5192C17.6823 18.4007 17.2406 18.2175 16.8311 17.975C17.2635 17.0773 16.5952 16.0478 15.6147 16.0478C15.4131 16.0478 15.2146 16.0933 15.0347 16.1789C14.7919 15.7693 14.6085 15.3272 14.49 14.8659C15.0191 14.6811 15.388 14.1806 15.388 13.5947C15.388 13.0096 15.019 12.5098 14.4899 12.3252C14.6083 11.8636 14.7916 11.4211 15.0345 11.011C15.2157 11.0976 15.414 11.1425 15.6148 11.1426C16.5995 11.1426 17.2619 10.1101 16.8311 9.216C17.2404 8.97332 17.6822 8.79017 18.1432 8.67208C18.328 9.20111 18.8285 9.57011 19.4144 9.57011C19.9995 9.57011 20.4994 9.20117 20.6839 8.67208C21.1449 8.79016 21.5868 8.97331 21.9961 9.216C21.5651 10.1104 22.2278 11.1426 23.2124 11.1426C23.4143 11.1426 23.6128 11.0969 23.7927 11.011C24.0356 11.4211 24.2189 11.8636 24.3373 12.3252C23.8082 12.5098 23.4392 13.0097 23.4392 13.5947C23.4392 14.1806 23.8082 14.6811 24.3371 14.8659C24.2186 15.3272 24.0351 15.7693 23.7923 16.179ZM24.1056 2.32696C23.3103 2.32696 22.6633 2.97398 22.6633 3.76927C22.6633 4.56456 23.3103 5.21158 24.1056 5.21158C24.9009 5.21158 25.5479 4.56456 25.5479 3.76927C25.5479 2.97398 24.9009 2.32696 24.1056 2.32696ZM24.1056 4.63465C23.6284 4.63465 23.2402 4.24644 23.2402 3.76927C23.2402 3.2921 23.6284 2.90388 24.1056 2.90388C24.5828 2.90388 24.971 3.2921 24.971 3.76927C24.971 4.24644 24.5828 4.63465 24.1056 4.63465ZM2.471 18.1923C1.51666 18.1923 0.740234 18.9688 0.740234 19.9231C0.740234 20.8775 1.51666 21.6539 2.471 21.6539C3.42535 21.6539 4.20177 20.8775 4.20177 19.9231C4.20177 18.9688 3.42535 18.1923 2.471 18.1923ZM2.471 21.077C1.83477 21.077 1.31716 20.5593 1.31716 19.9231C1.31716 19.2869 1.83477 18.7693 2.471 18.7693C3.10723 18.7693 3.62485 19.2869 3.62485 19.9231C3.62485 20.5593 3.10723 21.077 2.471 21.077Z" fill="#FAFAFA"/>
<path d="M22.5191 1.46158C22.7581 1.46158 22.9518 1.26785 22.9518 1.02888C22.9518 0.789914 22.7581 0.596191 22.5191 0.596191C22.2801 0.596191 22.0864 0.789914 22.0864 1.02888C22.0864 1.26785 22.2801 1.46158 22.5191 1.46158Z" fill="#FAFAFA"/>
<path d="M23.6729 7.51919C23.9119 7.51919 24.1056 7.32547 24.1056 7.0865C24.1056 6.84753 23.9119 6.65381 23.6729 6.65381C23.434 6.65381 23.2402 6.84753 23.2402 7.0865C23.2402 7.32547 23.434 7.51919 23.6729 7.51919Z" fill="#FAFAFA"/>
<path d="M24.5382 19.6347C24.7771 19.6347 24.9709 19.4409 24.9709 19.202C24.9709 18.963 24.7771 18.7693 24.5382 18.7693C24.2992 18.7693 24.1055 18.963 24.1055 19.202C24.1055 19.4409 24.2992 19.6347 24.5382 19.6347Z" fill="#FAFAFA"/>
<path d="M1.17293 2.03848C1.4119 2.03848 1.60562 1.84476 1.60562 1.60579C1.60562 1.36682 1.4119 1.1731 1.17293 1.1731C0.933957 1.1731 0.740234 1.36682 0.740234 1.60579C0.740234 1.84476 0.933957 2.03848 1.17293 2.03848Z" fill="#FAFAFA"/>
<path d="M4.05769 4.923C4.29666 4.923 4.49038 4.72928 4.49038 4.49031C4.49038 4.25134 4.29666 4.05762 4.05769 4.05762C3.81872 4.05762 3.625 4.25134 3.625 4.49031C3.625 4.72928 3.81872 4.923 4.05769 4.923Z" fill="#FAFAFA"/>
<path d="M1.4615 15.0192C1.70047 15.0192 1.89419 14.8255 1.89419 14.5865C1.89419 14.3475 1.70047 14.1538 1.4615 14.1538C1.22253 14.1538 1.02881 14.3475 1.02881 14.5865C1.02881 14.8255 1.22253 15.0192 1.4615 15.0192Z" fill="#FAFAFA"/>
<path d="M4.63435 25.404C4.87332 25.404 5.06704 25.2102 5.06704 24.9713C5.06704 24.7323 4.87332 24.5386 4.63435 24.5386C4.39538 24.5386 4.20166 24.7323 4.20166 24.9713C4.20166 25.2102 4.39538 25.404 4.63435 25.404Z" fill="#FAFAFA"/>
<path d="M21.3653 24.8271C21.6043 24.8271 21.798 24.6333 21.798 24.3944C21.798 24.1554 21.6043 23.9617 21.3653 23.9617C21.1263 23.9617 20.9326 24.1554 20.9326 24.3944C20.9326 24.6333 21.1263 24.8271 21.3653 24.8271Z" fill="#FAFAFA"/>
<path d="M11.99 18.4808H7.95155C7.87504 18.4808 7.80167 18.5112 7.74757 18.5653C7.69348 18.6194 7.66309 18.6928 7.66309 18.7693C7.66309 18.8458 7.69348 18.9192 7.74757 18.9733C7.80167 19.0274 7.87504 19.0577 7.95155 19.0577H11.99C12.0665 19.0577 12.1399 19.0274 12.194 18.9733C12.2481 18.9192 12.2785 18.8458 12.2785 18.7693C12.2785 18.6928 12.2481 18.6194 12.194 18.5653C12.1399 18.5112 12.0665 18.4808 11.99 18.4808ZM7.95155 17.9039H11.99C12.0665 17.9039 12.1399 17.8735 12.194 17.8194C12.2481 17.7653 12.2785 17.6919 12.2785 17.6154C12.2785 17.5389 12.2481 17.4656 12.194 17.4115C12.1399 17.3574 12.0665 17.327 11.99 17.327H7.95155C7.87504 17.327 7.80167 17.3574 7.74757 17.4115C7.69348 17.4656 7.66309 17.5389 7.66309 17.6154C7.66309 17.6919 7.69348 17.7653 7.74757 17.8194C7.80167 17.8735 7.87504 17.9039 7.95155 17.9039ZM7.95155 16.7501H11.99C12.0665 16.7501 12.1399 16.7197 12.194 16.6656C12.2481 16.6115 12.2785 16.5381 12.2785 16.4616C12.2785 16.3851 12.2481 16.3117 12.194 16.2576C12.1399 16.2035 12.0665 16.1731 11.99 16.1731H7.95155C7.87504 16.1731 7.80167 16.2035 7.74757 16.2576C7.69348 16.3117 7.66309 16.3851 7.66309 16.4616C7.66309 16.5381 7.69348 16.6115 7.74757 16.6656C7.80167 16.7197 7.87504 16.7501 7.95155 16.7501ZM7.95155 15.5962H11.99C12.0665 15.5962 12.1399 15.5658 12.194 15.5117C12.2481 15.4576 12.2785 15.3843 12.2785 15.3077C12.2785 15.2312 12.2481 15.1579 12.194 15.1038C12.1399 15.0497 12.0665 15.0193 11.99 15.0193H7.95155C7.87504 15.0193 7.80167 15.0497 7.74757 15.1038C7.69348 15.1579 7.66309 15.2312 7.66309 15.3077C7.66309 15.3843 7.69348 15.4576 7.74757 15.5117C7.80167 15.5658 7.87504 15.5962 7.95155 15.5962Z" fill="#FAFAFA"/>
</svg>
