<svg width="366" height="735" viewBox="0 0 366 735" fill="none" xmlns="http://www.w3.org/2000/svg">
<path fill-rule="evenodd" clip-rule="evenodd" d="M307.628 0.855734C337.723 0.855734 362.122 25.2276 362.122 55.2919V220.427H362.782C363.825 220.427 364.67 221.271 364.67 222.313V306.502C364.67 307.544 363.825 308.388 362.782 308.388H362.122V655.503V660.401V680.083C362.122 709.847 338.209 734.032 308.529 734.513L307.628 734.52H76.5537H58.9236C28.8282 734.52 4.43105 710.148 4.43105 680.083V660.493L4.43086 655.598L4.43098 326.771H3.10969C2.71882 326.771 2.35561 326.654 2.05435 326.454C1.954 326.387 1.86046 326.311 1.77498 326.226C1.68949 326.142 1.61227 326.049 1.54454 325.95C1.34095 325.651 1.22222 325.29 1.22222 324.9V273.587C1.22222 273.196 1.34095 272.835 1.54454 272.536C1.61227 272.436 1.68949 272.344 1.77498 272.259C1.86046 272.175 1.954 272.098 2.05435 272.031C2.35561 271.83 2.71882 271.713 3.10969 271.713H4.43098V256.817H3.10969C2.71882 256.817 2.35561 256.701 2.05435 256.5C1.954 256.433 1.86046 256.357 1.77498 256.272C1.68949 256.188 1.61227 256.095 1.54454 255.996C1.34095 255.697 1.22222 255.337 1.22222 254.946V203.633C1.22222 203.242 1.34095 202.881 1.54454 202.582C1.61227 202.483 1.68949 202.39 1.77498 202.306C1.86046 202.221 1.954 202.145 2.05435 202.078C2.35561 201.877 2.71882 201.76 3.10969 201.76H4.43098L4.43094 176.682H2.7322C1.68966 176.682 0.844727 175.837 0.844727 174.796V150.852C0.844727 149.81 1.68966 148.965 2.7322 148.965H4.43094L4.4309 79.967L4.43086 75.0697L4.4309 55.2919C4.4309 25.2276 28.8282 0.855713 58.9237 0.855713L307.628 0.855734ZM61.2462 17.8255C60.7377 17.8255 60.2315 17.8351 59.7277 17.854L59.4257 17.8666C60.0291 17.8394 60.636 17.8255 61.2462 17.8255ZM305.495 17.8255H255.097C255.015 17.8255 254.934 17.8276 254.854 17.8316L254.975 17.8271L255.097 17.8255H305.495C306.106 17.8255 306.712 17.8394 307.316 17.8666L307.014 17.854C306.51 17.8351 306.004 17.8255 305.495 17.8255ZM156.965 13.2053L157.039 13.2061H209.323C209.367 13.2061 209.41 13.2053 209.453 13.2039L209.323 13.2061H157.039C157.015 13.2061 156.99 13.2058 156.965 13.2053Z" fill="#F4F7FA"/>
<path fill-rule="evenodd" clip-rule="evenodd" d="M58.9236 1.26515C29.0539 1.26515 4.84034 25.454 4.84034 55.2918L4.84038 148.965C4.84038 149.074 4.79723 149.178 4.72042 149.255C4.64362 149.331 4.53945 149.375 4.43083 149.375H2.73208C1.91563 149.375 1.25416 150.036 1.25416 150.852V174.796C1.25416 175.611 1.91563 176.273 2.73208 176.273H4.43083C4.65702 176.273 4.84038 176.456 4.84038 176.682L4.84042 201.76C4.84042 201.869 4.79727 201.973 4.72047 202.05C4.64366 202.127 4.53949 202.17 4.43087 202.17H3.10958C2.80146 202.17 2.51716 202.262 2.28177 202.418C2.20308 202.471 2.12982 202.531 2.06293 202.597C1.99632 202.663 1.93575 202.735 1.88293 202.813C1.72442 203.045 1.63166 203.326 1.63166 203.633V254.946C1.63166 255.252 1.72439 255.533 1.88271 255.765C1.93553 255.842 1.99596 255.915 2.06258 255.981C2.12941 256.047 2.20276 256.106 2.28177 256.159C2.51708 256.316 2.80137 256.407 3.10958 256.407H4.43087C4.65706 256.407 4.84042 256.591 4.84042 256.817V271.713C4.84042 271.939 4.65706 272.123 4.43087 272.123H3.10958C2.80152 272.123 2.51716 272.215 2.28166 272.372C2.20374 272.424 2.13019 272.484 2.06293 272.55C1.99605 272.616 1.93583 272.689 1.88315 272.766C1.72469 272.999 1.63166 273.28 1.63166 273.586V324.9C1.63166 325.206 1.72439 325.487 1.88271 325.719C1.93555 325.796 1.99599 325.869 2.06258 325.935C2.12964 326.001 2.20289 326.061 2.28134 326.113C2.51675 326.27 2.80121 326.361 3.10958 326.361H4.43087C4.53949 326.361 4.64366 326.405 4.72047 326.481C4.79727 326.558 4.84042 326.662 4.84042 326.771L4.84048 680.083C4.84048 709.921 29.0539 734.11 58.9235 734.11H76.144V729.247H76.9631V734.11H307.628L308.523 734.103L308.526 734.103C308.525 734.103 308.524 734.103 308.523 734.103M308.526 734.103C337.981 733.624 361.712 709.622 361.712 680.083V308.388C361.712 308.162 361.895 307.978 362.121 307.978H362.782C363.599 307.978 364.26 307.318 364.26 306.502V222.312C364.26 221.497 363.599 220.836 362.782 220.836H362.121C361.895 220.836 361.712 220.653 361.712 220.427V55.2918C361.712 25.4541 337.497 1.26517 307.628 1.26517L58.9236 1.26515M4.02123 55.2918C4.02123 25.0009 28.6023 0.446045 58.9236 0.446045L307.628 0.446066C337.949 0.446066 362.531 25.0009 362.531 55.2918V220.017H362.782C364.051 220.017 365.079 221.044 365.079 222.312V306.502C365.079 307.771 364.051 308.798 362.782 308.798H362.531V680.083C362.531 710.071 338.438 734.438 308.536 734.922L308.533 734.922L307.632 734.93H58.9235C28.6023 734.93 4.02138 710.374 4.02138 680.083L4.02132 327.18H3.10958C2.63622 327.18 2.19428 327.039 1.82718 326.794M1.20592 326.18C0.957189 325.815 0.812553 325.375 0.812553 324.9V273.586C0.812553 273.111 0.957272 272.67 1.20599 272.305C1.20609 272.305 1.20589 272.305 1.20599 272.305C1.2887 272.184 1.38283 272.071 1.4868 271.968C1.59041 271.866 1.70454 271.772 1.82719 271.69C1.82732 271.69 1.82706 271.69 1.82719 271.69C2.19413 271.445 2.63605 271.304 3.10958 271.304H4.02132V271.713H4.43087V271.304H4.02132V257.227H4.43087V256.817H4.02132V257.227H3.10958C2.63622 257.227 2.19426 257.085 1.82713 256.841C1.70544 256.759 1.59129 256.666 1.48715 256.564C1.38289 256.461 1.28873 256.348 1.20614 256.227C1.20607 256.226 1.20621 256.227 1.20614 256.227M1.20599 202.352C1.20602 202.352 1.20597 202.352 1.20599 202.352ZM1.20599 202.352C1.28852 202.231 1.38261 202.118 1.48679 202.015C1.48691 202.015 1.48667 202.015 1.48679 202.015C1.59088 201.912 1.70469 201.819 1.8267 201.737C2.19378 201.493 2.63606 201.351 3.10958 201.351H4.02131L4.02132 201.76H4.43087V201.351H4.02131L4.02128 177.092H4.43083V176.682H4.02127L4.02128 177.092H2.73208C1.46346 177.092 0.435059 176.064 0.435059 174.796V150.852C0.435059 149.584 1.46346 148.555 2.73208 148.555H4.02127L4.02127 148.965H4.43083V148.555H4.02127L4.02123 55.2918M156.953 13.6146L156.88 13.6125L156.903 12.7937L156.969 12.7957L156.973 12.7958C156.974 12.7958 156.974 12.7958 156.975 12.7958C156.976 12.7958 156.976 12.7958 156.977 12.7958C156.998 12.7962 157.018 12.7964 157.039 12.7964H209.323L209.439 12.7944L209.446 12.7943C209.671 12.7905 209.857 12.9686 209.863 13.1934C209.868 13.4182 209.692 13.6055 209.467 13.6131C209.419 13.6147 209.371 13.6155 209.323 13.6155H157.039C157.012 13.6155 156.984 13.6152 156.957 13.6147L156.953 13.6146ZM59.444 18.2756L59.4426 18.2757C59.2169 18.2851 59.0262 18.11 59.0164 17.8843C59.0066 17.6586 59.1814 17.4676 59.4071 17.4574C59.5008 17.4531 59.5946 17.4492 59.6885 17.4456L59.7105 17.4447L59.7122 17.4446C60.0302 17.4327 60.3493 17.4244 60.6692 17.4199C60.8611 17.4172 61.0534 17.4158 61.2461 17.4158H111.46L111.582 17.4174L111.572 18.2364L111.455 18.2349H61.2461C61.032 18.2349 60.8184 18.2367 60.6051 18.2401C60.3096 18.2448 60.0149 18.2529 59.7211 18.2641L59.444 18.2756ZM254.833 17.4225C254.92 17.4181 255.008 17.4158 255.097 17.4158H305.495C306.009 17.4158 306.52 17.4255 307.029 17.4446M305.495 18.2349H255.097L254.99 18.2363L254.98 18.2365L254.875 18.2405L254.869 18.2408C254.644 18.2491 254.454 18.0744 254.445 17.8495C254.435 17.6246 254.608 17.4339 254.833 17.4225M305.495 18.2349C305.998 18.2349 306.499 18.2444 306.998 18.2632C306.998 18.2631 306.998 18.2632 306.998 18.2632C307.005 18.2634 307.013 18.2638 307.02 18.2641C307.113 18.2676 307.205 18.2715 307.297 18.2756L307.299 18.2757C307.524 18.2851 307.715 18.11 307.725 17.8843C307.735 17.6586 307.56 17.4676 307.334 17.4574C307.24 17.4531 307.147 17.4492 307.053 17.4456L307.031 17.4447" fill="#959FAE"/>
<path fill-rule="evenodd" clip-rule="evenodd" d="M345.134 678.331C345.134 681.065 344.857 683.734 344.329 686.311C344.131 687.278 343.897 688.231 343.63 689.171C343.452 689.797 343.259 690.417 343.051 691.031C342.844 691.644 342.621 692.251 342.385 692.85C342.148 693.449 341.897 694.042 341.633 694.626C341.368 695.211 341.089 695.788 340.798 696.357C340.652 696.642 340.503 696.924 340.35 697.205C340.045 697.766 339.727 698.319 339.395 698.863C338.899 699.68 338.373 700.477 337.821 701.253C330.637 711.344 318.836 717.928 305.495 717.928H61.2462C47.9059 717.928 36.1049 711.344 28.9209 701.253C28.3682 700.477 27.8429 699.68 27.3463 698.863C27.0153 698.319 26.6969 697.766 26.3919 697.205C26.2393 696.924 26.09 696.642 25.9443 696.357C25.6523 695.788 25.374 695.211 25.1093 694.626C24.8445 694.042 24.5939 693.449 24.3572 692.85C24.1206 692.251 23.8982 691.644 23.6903 691.031C23.4826 690.417 23.2895 689.797 23.1115 689.171C22.8443 688.231 22.611 687.278 22.413 686.311C21.885 683.734 21.6077 681.065 21.6077 678.331V57.4218C21.6077 51.9548 22.7169 46.7465 24.7227 42.0092C25.0987 41.1208 25.5065 40.2492 25.9443 39.3956C26.09 39.1109 26.2393 38.8285 26.3919 38.5479C26.6969 37.9869 27.0153 37.434 27.3463 36.8897C27.5119 36.6176 27.6806 36.3475 27.8524 36.0797C28.5398 35.0087 29.2775 33.9728 30.062 32.9754C30.2581 32.7262 30.4572 32.4792 30.6593 32.235C31.2652 31.5015 31.8968 30.7903 32.5532 30.1027C33.4283 29.1858 34.3469 28.311 35.3058 27.4812C35.7853 27.0663 36.2749 26.6628 36.7739 26.2707C37.2732 25.879 37.782 25.4989 38.3001 25.1308C38.8181 24.7628 39.3453 24.4069 39.8815 24.0636C40.4176 23.7202 40.9627 23.3893 41.5159 23.0716C41.7925 22.9127 42.0715 22.757 42.3521 22.6045C43.7564 21.8426 45.2117 21.1629 46.7118 20.5721C47.9119 20.0992 49.1407 19.6834 50.3947 19.3275C53.8434 18.3492 57.4837 17.8254 61.2462 17.8254H111.455C112.025 17.8254 112.572 17.9264 113.078 18.1115C113.222 18.1643 113.363 18.224 113.501 18.2904C113.707 18.3896 113.905 18.5033 114.093 18.6306C114.282 18.7575 114.46 18.898 114.628 19.0501C114.74 19.1516 114.846 19.2582 114.948 19.3698C115.05 19.4815 115.146 19.598 115.236 19.7189C115.327 19.8398 115.412 19.9655 115.491 20.095C115.924 20.8077 116.174 21.6445 116.174 22.5393V27.0647C116.174 29.9056 116.822 32.5952 117.979 34.994C118.108 35.2606 118.243 35.5235 118.384 35.7826C118.736 36.4304 119.126 37.0547 119.552 37.6522C119.722 37.8914 119.898 38.1261 120.079 38.3566C120.26 38.5869 120.447 38.8126 120.639 39.0339C120.831 39.2551 121.027 39.4717 121.23 39.6834C121.432 39.8953 121.639 40.1021 121.851 40.3038C122.381 40.8087 122.941 41.282 123.528 41.7208C123.763 41.8964 124.003 42.0664 124.246 42.2306C124.733 42.5595 125.237 42.8653 125.756 43.1469C126.015 43.2876 126.279 43.4223 126.545 43.5506C128.947 44.7066 131.639 45.3543 134.483 45.3543H232.07C234.914 45.3543 237.606 44.7066 240.007 43.5506C240.274 43.4223 240.537 43.2876 240.797 43.1469C241.316 42.8653 241.819 42.5595 242.306 42.2306C242.55 42.0664 242.789 41.8964 243.024 41.7208C243.612 41.282 244.172 40.8087 244.702 40.3038C244.914 40.1021 245.121 39.8953 245.323 39.6834C245.525 39.4717 245.722 39.2551 245.914 39.0339C246.106 38.8126 246.292 38.5869 246.474 38.3566C246.655 38.1261 246.831 37.8914 247.001 37.6522C247.426 37.0547 247.817 36.4304 248.169 35.7826C248.31 35.5235 248.444 35.2606 248.573 34.994C249.73 32.5952 250.379 29.9056 250.379 27.0647V22.5393C250.379 21.6445 250.628 20.8077 251.062 20.095C251.141 19.9655 251.225 19.8398 251.316 19.7189C251.406 19.598 251.503 19.4815 251.604 19.3698C251.706 19.2582 251.813 19.1516 251.924 19.0501C252.092 18.898 252.27 18.7575 252.459 18.6306C252.647 18.5033 252.845 18.3896 253.051 18.2904C253.189 18.224 253.33 18.1643 253.474 18.1115C253.98 17.9264 254.527 17.8254 255.097 17.8254H305.495C309.258 17.8254 312.898 18.3492 316.347 19.3275C317.601 19.6834 318.83 20.0992 320.03 20.5721C321.53 21.1629 322.985 21.8426 324.389 22.6045C324.67 22.757 324.949 22.9127 325.226 23.0716C325.779 23.3893 326.324 23.7202 326.86 24.0636C327.396 24.4069 327.923 24.7628 328.442 25.1308C328.96 25.4989 329.468 25.879 329.968 26.2707C330.467 26.6628 330.956 27.0663 331.436 27.4812C332.395 28.311 333.313 29.1858 334.188 30.1027C334.845 30.7903 335.477 31.5015 336.082 32.235C336.284 32.4792 336.483 32.7262 336.68 32.9754C337.464 33.9728 338.202 35.0087 338.889 36.0797C339.061 36.3475 339.23 36.6176 339.395 36.8897C339.727 37.434 340.045 37.9869 340.35 38.5479C340.503 38.8285 340.652 39.1109 340.798 39.3956C341.235 40.2492 341.643 41.1208 342.019 42.0092C344.025 46.7465 345.134 51.9548 345.134 57.4218V678.331ZM126.744 27.0647C126.744 26.7783 126.759 26.4952 126.787 26.2165C126.886 25.2402 127.155 24.314 127.563 23.4677C127.796 22.9841 128.075 22.5267 128.394 22.1007C128.633 21.7813 128.895 21.4796 129.177 21.198C129.365 21.0105 129.561 20.8318 129.767 20.6626C131.202 19.4792 133.043 18.7682 135.049 18.7682C137.056 18.7682 138.897 19.4792 140.332 20.6626C140.537 20.8318 140.734 21.0105 140.922 21.198C141.204 21.4796 141.465 21.7813 141.705 22.1007C142.024 22.5267 142.302 22.9841 142.536 23.4677C142.944 24.314 143.213 25.2402 143.312 26.2165C143.34 26.4952 143.355 26.7783 143.355 27.0647C143.355 27.9238 143.224 28.7523 142.981 29.5318C142.536 30.9605 141.715 32.2236 140.634 33.2057C139.159 34.5447 137.2 35.3609 135.049 35.3609C132.899 35.3609 130.94 34.5447 129.465 33.2057C128.384 32.2236 127.563 30.9605 127.118 29.5318C126.875 28.7523 126.744 27.9238 126.744 27.0647ZM357.03 75.0695V57.0393C357.03 55.7213 356.979 54.4151 356.881 53.1223C356.783 51.8295 356.636 50.5504 356.442 49.2863C356.185 47.6011 355.844 45.9429 355.425 44.3163C355.216 43.5028 354.987 42.6975 354.739 41.9003C354.242 40.3063 353.67 38.7457 353.025 37.2229C352.541 36.0809 352.017 34.9602 351.454 33.8626C351.267 33.4968 351.075 33.1335 350.879 32.7728C350.487 32.0513 350.077 31.3406 349.652 30.641C349.226 29.9411 348.784 29.2524 348.326 28.5753C346.723 26.2053 344.926 23.9775 342.957 21.9148C341.832 20.7359 340.651 19.611 339.418 18.5442C338.802 18.0106 338.173 17.4919 337.531 16.9879C337.21 16.7362 336.886 16.488 336.559 16.2435C335.905 15.755 335.239 15.2817 334.561 14.8243C333.883 14.3669 333.194 13.9251 332.493 13.4999C331.793 13.0749 331.081 12.666 330.359 12.2742C329.637 11.8824 328.904 11.5073 328.162 11.15C327.419 10.7924 326.666 10.4524 325.904 10.1303C325.142 9.80828 324.371 9.50437 323.59 9.21883C322.81 8.93328 322.02 8.66631 321.222 8.41852C316.435 6.93098 311.345 6.12964 306.067 6.12964H290.66H285.663H213.1V9.43484C213.1 10.0856 212.935 10.6979 212.644 11.2323C212.412 11.6598 212.099 12.0373 211.726 12.3447C211.539 12.4984 211.337 12.6346 211.124 12.7508C211.016 12.8087 210.906 12.8618 210.793 12.9096C210.567 13.005 210.33 13.079 210.084 13.1294C209.839 13.1795 209.584 13.2059 209.323 13.2059H157.039C154.961 13.2059 153.276 11.5279 153.265 9.45424C153.265 9.44763 153.264 9.44144 153.264 9.43484V6.12964H60.4858C57.8471 6.12964 55.2551 6.32997 52.7244 6.7162C51.8809 6.84515 51.0443 6.99452 50.2148 7.16411C49.3854 7.3335 48.5634 7.52311 47.7492 7.73231C47.342 7.83712 46.9369 7.94647 46.5338 8.06097C44.9214 8.51838 43.3416 9.05315 41.7987 9.66097C41.4128 9.81281 41.0294 9.96941 40.6484 10.1303C39.8863 10.4524 39.1336 10.7924 38.3909 11.15C35.4202 12.5799 32.6096 14.2891 29.9934 16.2435C25.4148 19.6641 21.4314 23.8356 18.2259 28.5753C17.0809 30.2679 16.0355 32.0332 15.0975 33.8626C11.5331 40.8143 9.52197 48.6923 9.52197 57.0393V75.0695V79.9669V655.597V660.493V678.335C9.52197 706.452 32.3393 729.246 60.486 729.246H76.5537H81.1732H306.067C322.339 729.246 336.83 721.628 346.16 709.767C346.412 709.446 346.661 709.123 346.905 708.796C348.128 707.163 349.255 705.453 350.278 703.677C350.891 702.611 351.467 701.52 352.004 700.407C352.362 699.665 352.702 698.914 353.025 698.152C355.604 692.061 357.03 685.365 357.03 678.335V660.4V655.502V80.0612V75.0695Z" fill="#F4F7FA"/>
<path fill-rule="evenodd" clip-rule="evenodd" d="M52.6625 6.31146C55.2136 5.92213 57.8262 5.72021 60.4856 5.72021H153.264C153.49 5.72021 153.674 5.90358 153.674 6.12977V9.42299L153.674 9.4247C153.674 9.42948 153.674 9.4357 153.675 9.44302C153.675 9.44594 153.675 9.44904 153.675 9.45228C153.684 11.3005 155.186 12.7965 157.039 12.7965H209.323C209.556 12.7965 209.783 12.7729 210.003 12.7282C210.221 12.6834 210.432 12.6174 210.633 12.5327C210.734 12.49 210.832 12.4427 210.928 12.391C211.119 12.2874 211.299 12.1659 211.465 12.0287C211.798 11.7544 212.077 11.4176 212.284 11.0367C212.543 10.5609 212.69 10.0156 212.69 9.43497V6.12977C212.69 5.90358 212.874 5.72021 213.1 5.72021H306.067C311.386 5.72021 316.517 6.52791 321.343 8.02754C322.148 8.27733 322.944 8.54647 323.731 8.83433C324.517 9.12217 325.295 9.42853 326.064 9.75321C326.832 10.0779 327.591 10.4206 328.339 10.7811C329.088 11.1413 329.827 11.5194 330.554 11.9143C331.282 12.3093 332 12.7215 332.706 13.1499C333.412 13.5786 334.107 14.0239 334.79 14.4849C335.473 14.946 336.145 15.4231 336.804 15.9155C337.133 16.1618 337.46 16.4121 337.784 16.6659C338.431 17.1739 339.065 17.6968 339.686 18.2346C340.929 19.31 342.12 20.4438 343.254 21.6322C345.238 23.7114 347.05 25.957 348.665 28.346C349.127 29.0286 349.572 29.7228 350.002 30.4282C350.431 31.1335 350.843 31.85 351.239 32.5773C351.436 32.9407 351.63 33.3071 351.819 33.6759C352.386 34.7823 352.914 35.9121 353.402 37.0633C354.052 38.5985 354.629 40.1717 355.129 41.7787C355.38 42.5824 355.611 43.3942 355.822 44.2142C356.244 45.8541 356.587 47.5257 356.847 49.2245C357.042 50.4988 357.19 51.7883 357.289 53.0913C357.389 54.3945 357.439 55.711 357.439 57.0394V678.336C357.439 685.421 356.002 692.171 353.402 698.312C353.077 699.08 352.734 699.837 352.373 700.585C351.832 701.707 351.251 702.806 350.633 703.881C349.602 705.672 348.466 707.395 347.233 709.042C346.987 709.371 346.736 709.697 346.482 710.02C337.077 721.976 322.47 729.656 306.067 729.656H60.4858C32.1134 729.656 9.1123 706.679 9.1123 678.336V57.0394C9.1123 48.6259 11.1396 40.684 14.7329 33.6759C15.6785 31.8317 16.7324 30.0522 17.8865 28.346M52.7862 7.12118C51.9494 7.2491 51.1195 7.39727 50.2967 7.56549C49.474 7.73351 48.6586 7.92159 47.851 8.12911C47.447 8.23311 47.0452 8.34156 46.6456 8.45507C45.0463 8.90877 43.4791 9.43925 41.9487 10.0421C41.5661 10.1927 41.1856 10.3481 40.8077 10.5077M52.7862 7.12118C55.2965 6.73807 57.8678 6.53932 60.4856 6.53932H152.855V9.43497C152.855 9.44726 152.855 9.45755 152.855 9.46463L152.856 9.4675C152.873 11.7616 154.739 13.6156 157.039 13.6156H209.323C209.612 13.6156 209.894 13.5864 210.166 13.5308C210.438 13.475 210.702 13.3928 210.952 13.2871C211.077 13.2341 211.2 13.1752 211.318 13.1111C211.555 12.9824 211.779 12.8312 211.986 12.661C212.399 12.3206 212.746 11.9021 213.004 11.4281C213.326 10.8353 213.509 10.1558 213.509 9.43497V6.53932H306.067C311.303 6.53932 316.352 7.3343 321.1 8.80976C321.892 9.05553 322.675 9.32036 323.449 9.60358C324.223 9.88683 324.989 10.1883 325.745 10.5077C326.501 10.8272 327.247 11.1644 327.984 11.5191C328.721 11.8736 329.447 12.2456 330.164 12.6343C330.88 13.0229 331.586 13.4285 332.281 13.8502C332.975 14.2719 333.659 14.7101 334.332 15.1639C335.004 15.6176 335.665 16.0871 336.314 16.5718C336.638 16.8144 336.96 17.0606 337.278 17.3102C337.915 17.8102 338.539 18.3247 339.15 18.8539C340.373 19.9123 341.545 21.0282 342.661 22.1976C344.614 24.2439 346.397 26.4539 347.987 28.8049C348.441 29.4765 348.879 30.1597 349.302 30.854C349.724 31.5479 350.13 32.253 350.519 32.9686C350.713 33.3264 350.904 33.6868 351.09 34.0495C351.648 35.1383 352.168 36.25 352.648 37.3827C353.287 38.8932 353.855 40.4411 354.347 42.0222C354.594 42.8129 354.821 43.6116 355.029 44.4186C355.444 46.032 355.782 47.6767 356.037 49.3483C356.229 50.6022 356.375 51.8711 356.473 53.1536C356.57 54.436 356.62 55.7318 356.62 57.0394V678.336C356.62 685.309 355.205 691.951 352.648 697.992C352.328 698.748 351.99 699.494 351.635 700.229C351.103 701.333 350.531 702.415 349.923 703.472C348.908 705.235 347.79 706.93 346.577 708.551C346.335 708.875 346.088 709.196 345.838 709.514C336.582 721.28 322.208 728.837 306.067 728.837H60.4858C32.565 728.837 9.93141 706.226 9.93141 678.336V57.0394C9.93141 48.7589 11.9264 40.9448 15.4618 34.0496C16.3923 32.2349 17.4293 30.4839 18.565 28.8049C21.7448 24.1032 25.6964 19.9649 30.2384 16.5717C32.8336 14.633 35.6217 12.9376 38.5684 11.5191C39.3051 11.1645 40.0518 10.8272 40.8077 10.5077M152.856 9.47791C152.857 9.4802 152.856 9.47758 152.856 9.47425L152.856 9.47791ZM152.856 9.45856C152.856 9.45722 152.856 9.45582 152.856 9.45436L152.856 9.45644C152.856 9.45717 152.856 9.45784 152.856 9.45856ZM52.6625 6.31146C51.8124 6.44143 50.9689 6.59201 50.1328 6.76297ZM50.1328 6.76297C49.2966 6.93373 48.4679 7.12488 47.6472 7.33577C47.2369 7.44138 46.8283 7.55165 46.4218 7.66714C44.7964 8.12823 43.2039 8.6673 41.6487 9.27998C41.6487 9.27996 41.6486 9.28 41.6487 9.27998L41.7971 9.65712M61.2461 18.235C57.5217 18.235 53.919 18.7535 50.5063 19.7217C49.2654 20.0739 48.0494 20.4853 46.8618 20.9532C45.3773 21.538 43.9371 22.2105 42.5473 22.9646C42.2695 23.1155 41.9935 23.2697 41.7197 23.4269C41.1722 23.7413 40.6328 24.0688 40.1023 24.4086C39.5717 24.7483 39.0499 25.1005 38.5372 25.4648C38.0244 25.8291 37.5209 26.2052 37.0268 26.593C36.5328 26.981 36.0482 27.3804 35.5737 27.791C34.6246 28.6123 33.7154 29.4781 32.8494 30.3856C32.1997 31.0661 31.5746 31.77 30.975 32.4959C30.7751 32.7375 30.5779 32.9821 30.3837 33.2289C29.6073 34.2159 28.8772 35.2411 28.1969 36.301C28.027 36.566 27.86 36.8333 27.6961 37.1026M50.2828 18.9337C53.7675 17.9451 57.4454 17.4159 61.2461 17.4159H111.455C112.074 17.4159 112.668 17.5257 113.218 17.727C113.218 17.727 113.218 17.727 113.218 17.727C113.375 17.7844 113.529 17.8493 113.679 17.9217M118.348 34.8162C118.348 34.8162 118.348 34.8162 118.348 34.8162ZM61.2461 18.235H111.455ZM111.455 18.235C111.976 18.235 112.475 18.3274 112.937 18.4963ZM255.097 18.235C254.575 18.235 254.077 18.3274 253.615 18.4963C253.483 18.5445 253.354 18.5989 253.229 18.6593C253.041 18.7499 252.86 18.8539 252.688 18.97C252.517 19.0855 252.353 19.2141 252.2 19.3533C252.098 19.4461 252 19.5436 251.907 19.6456C251.814 19.7475 251.726 19.854 251.643 19.9647C251.561 20.0749 251.484 20.1896 251.411 20.308C251.016 20.9583 250.788 21.7218 250.788 22.5394V27.0648C250.788 29.9687 250.125 32.719 248.942 35.1721C248.81 35.4446 248.673 35.7134 248.529 35.9783C248.168 36.6407 247.769 37.2791 247.334 37.8899C247.16 38.1344 246.98 38.3744 246.795 38.6098C246.61 38.8452 246.419 39.0761 246.223 39.3023C246.027 39.5283 245.826 39.7499 245.619 39.9664C245.619 39.9665 245.619 39.9664 245.619 39.9664C245.412 40.1831 245.201 40.3944 244.984 40.6005C244.442 41.1166 243.87 41.6004 243.269 42.0491C243.029 42.2285 242.784 42.4024 242.535 42.5703C242.535 42.5703 242.535 42.5702 242.535 42.5703C242.037 42.9065 241.522 43.2191 240.992 43.507C240.727 43.6507 240.458 43.7885 240.185 43.9198C240.185 43.9198 240.185 43.9198 240.185 43.9198M126.368 43.9198C126.368 43.9198 126.368 43.9198 126.368 43.9198ZM126.368 43.9198C126.095 43.7886 125.826 43.6508 125.56 43.5071C125.03 43.2192 124.515 42.9065 124.017 42.5703C124.017 42.5702 124.017 42.5703 124.017 42.5703M114.352 19.3533C114.199 19.2142 114.036 19.086 113.864 18.9704C113.693 18.8543 113.512 18.7502 113.323 18.6596C113.198 18.5992 113.069 18.5445 112.937 18.4963M253.334 17.727C253.884 17.5257 254.478 17.4159 255.097 17.4159H305.495C309.296 17.4159 312.974 17.9451 316.458 18.9337C317.726 19.2933 318.967 19.7133 320.18 20.1911C321.695 20.7882 323.166 21.4748 324.585 22.2446C324.868 22.3987 325.15 22.5561 325.429 22.7166C325.988 23.0376 326.539 23.372 327.081 23.7188C327.622 24.0657 328.155 24.4252 328.679 24.7971C329.202 25.1689 329.716 25.5529 330.22 25.9487C330.724 26.3447 331.219 26.7524 331.704 27.1716C332.672 28.01 333.6 28.8937 334.485 29.82C335.148 30.5147 335.786 31.2332 336.398 31.9743C336.602 32.221 336.803 32.4705 337.001 32.7223C337.794 33.7298 338.539 34.7765 339.234 35.8586C339.408 36.1292 339.578 36.4021 339.745 36.6771C340.08 37.2269 340.401 37.7856 340.71 38.3523C340.864 38.6356 341.014 38.9211 341.162 39.2088C341.604 40.0713 342.016 40.952 342.396 41.8497C344.423 46.6365 345.544 51.899 345.544 57.4219V678.331C345.544 681.093 345.263 683.789 344.73 686.393C344.53 687.37 344.294 688.334 344.024 689.283C343.844 689.916 343.649 690.543 343.439 691.162C343.229 691.782 343.005 692.395 342.765 693C342.526 693.606 342.273 694.205 342.006 694.795C341.738 695.386 341.457 695.969 341.162 696.544C341.076 696.711 340.989 696.878 340.901 697.044C340.838 697.163 340.774 697.282 340.71 697.401C340.401 697.968 340.08 698.526 339.745 699.076C339.243 699.901 338.713 700.706 338.154 701.49C330.897 711.685 318.973 718.337 305.495 718.337H61.2461C47.7678 718.337 35.8448 711.685 28.5872 701.49C28.0287 700.706 27.498 699.901 26.9963 699.076C26.6619 698.526 26.3402 697.968 26.032 697.401C25.8778 697.117 25.727 696.832 25.5797 696.544C25.2847 695.969 25.0035 695.386 24.736 694.795C24.4685 694.204 24.2152 693.606 23.9762 693C23.7371 692.395 23.5124 691.782 23.3023 691.162C23.0924 690.543 22.8973 689.916 22.7175 689.283C22.4475 688.334 22.2117 687.37 22.0116 686.393C21.4782 683.789 21.198 681.093 21.198 678.331V57.4219C21.198 51.8991 22.3187 46.6366 24.3454 41.8497C24.7254 40.952 25.1375 40.0712 25.5797 39.2088C25.5798 39.2088 25.5797 39.2089 25.5797 39.2088C25.7271 38.9211 25.8779 38.6357 26.032 38.3524L26.3887 38.5463M255.097 18.235H305.495ZM253.334 17.727C253.177 17.7844 253.023 17.8493 252.873 17.9217C252.873 17.9216 252.873 17.9218 252.873 17.9217M246.151 38.1037C245.974 38.3286 245.792 38.5493 245.604 38.7657C245.417 38.9821 245.224 39.1938 245.027 39.4007C244.829 39.6078 244.626 39.81 244.419 40.0074C243.901 40.501 243.353 40.9638 242.779 41.3928C242.549 41.5645 242.315 41.7307 242.077 41.8912C241.601 42.2127 241.109 42.5117 240.601 42.787C240.347 42.9246 240.09 43.0563 239.83 43.1817C237.482 44.3116 234.851 44.9448 232.07 44.9448H134.483C131.702 44.9448 129.07 44.3116 126.723 43.1818C126.462 43.0563 126.205 42.9246 125.951 42.787C125.444 42.5116 124.951 42.2127 124.475 41.8913C124.237 41.7308 124.003 41.5645 123.773 41.3929C123.199 40.9638 122.651 40.501 122.133 40.0075C121.926 39.8102 121.723 39.6079 121.526 39.4009C121.328 39.194 121.136 38.9821 120.948 38.7657C120.76 38.5491 120.578 38.3285 120.401 38.1035C120.224 37.8783 120.052 37.6487 119.886 37.4149C119.47 36.8309 119.088 36.2205 118.743 35.5872M246.151 38.1037C246.152 38.1036 246.151 38.1038 246.151 38.1037ZM305.495 18.235C309.22 18.235 312.822 18.7535 316.235 19.7217ZM130.027 20.9787C131.392 19.8535 133.141 19.1779 135.049 19.1779ZM129.506 20.3467C131.012 19.105 132.944 18.3588 135.049 18.3588C137.155 18.3588 139.086 19.105 140.593 20.3467C140.808 20.5241 141.014 20.7116 141.211 20.9083C141.507 21.2037 141.781 21.5203 142.032 21.8553C142.367 22.3023 142.66 22.7823 142.904 23.2899C143.333 24.1783 143.615 25.1506 143.719 26.1752C143.719 26.1753 143.719 26.1752 143.719 26.1752C143.749 26.4679 143.764 26.7647 143.764 27.0648C143.764 27.9656 143.627 28.8352 143.372 29.6536C142.905 31.1536 142.043 32.479 140.909 33.509C139.362 34.9138 137.305 35.7706 135.049 35.7706C132.794 35.7706 130.737 34.9138 129.19 33.509C128.055 32.479 127.194 31.1537 126.726 29.6537C126.472 28.8353 126.335 27.9656 126.335 27.0648C126.335 26.7647 126.35 26.4679 126.38 26.1752C126.38 26.1752 126.38 26.1753 126.38 26.1752M135.049 19.1779C136.958 19.1779 138.707 19.8535 140.072 20.9787ZM140.072 20.9787C140.267 21.1395 140.454 21.3095 140.632 21.4879C140.9 21.7557 141.149 22.0426 141.377 22.3462C141.68 22.7514 141.945 23.1862 142.167 23.6458C142.555 24.45 142.81 25.33 142.904 26.258C142.931 26.5227 142.945 26.7922 142.945 27.0648C142.945 27.8821 142.821 28.6697 142.59 29.4102C142.167 30.7677 141.387 31.9685 140.358 32.9026C138.956 34.1758 137.094 34.9515 135.049 34.9515C133.005 34.9515 131.143 34.1758 129.74 32.9026C128.712 31.9685 127.931 30.7676 127.508 29.4101C127.278 28.6696 127.154 27.8821 127.154 27.0648C127.154 26.7922 127.167 26.523 127.194 26.2583C127.289 25.3303 127.544 24.45 127.932 23.6458C128.154 23.1862 128.419 22.7514 128.722 22.3463C128.949 22.0426 129.198 21.7557 129.466 21.4879C129.645 21.3095 129.832 21.1395 130.027 20.9787M316.235 19.7217C317.476 20.0739 318.692 20.4853 319.88 20.9532ZM50.2828 18.9337C49.0158 19.2933 47.7742 19.7133 46.5616 20.1911ZM46.5616 20.1911C45.0459 20.7882 43.5755 21.4748 42.1567 22.2446ZM319.88 20.9532C321.364 21.538 322.804 22.2105 324.194 22.9646ZM324.194 22.9646C324.472 23.1155 324.748 23.2696 325.021 23.4268ZM325.021 23.4268L325.225 23.0717ZM42.1567 22.2446C41.8733 22.3986 41.5913 22.5561 41.3118 22.7165ZM326.639 24.4086C326.109 24.0688 325.569 23.7412 325.021 23.4268L325.225 23.0717M41.3118 22.7165C40.7529 23.0376 40.2021 23.372 39.6605 23.7188ZM39.6605 23.7188C39.1187 24.0657 38.5861 24.4253 38.0628 24.7971C37.5394 25.1689 37.0254 25.5529 36.521 25.9487C36.0169 26.3447 35.5221 26.7525 35.0377 27.1716C34.069 28.01 33.1409 28.8937 32.2568 29.82C31.5937 30.5147 30.9557 31.2331 30.3437 31.974M326.639 24.4086C327.17 24.7483 327.691 25.1006 328.204 25.4648ZM328.204 25.4648C328.717 25.8291 329.221 26.2053 329.715 26.5931ZM329.715 26.5931C330.209 26.981 330.693 27.3804 331.168 27.791ZM331.168 27.791C332.117 28.6123 333.026 29.4781 333.892 30.3856ZM333.892 30.3856L334.188 30.1028ZM335.767 32.4959C335.167 31.77 334.542 31.0662 333.892 30.3856L334.188 30.1028M335.767 32.4959L336.082 32.2351ZM336.358 33.2289C336.164 32.9821 335.966 32.7376 335.767 32.4959L336.082 32.2351M336.358 33.2289C337.134 34.2159 337.864 35.2411 338.544 36.301ZM338.544 36.301L338.889 36.0798ZM339.045 37.1025C338.882 36.8333 338.715 36.5659 338.544 36.301L338.889 36.0798M339.045 37.1025L339.395 36.8898ZM339.99 38.7437C339.688 38.1885 339.373 37.6411 339.045 37.1025L339.395 36.8898M27.6961 37.1026C27.3685 37.6413 27.0534 38.1885 26.7516 38.7436C26.6006 39.0214 26.4529 39.3008 26.3087 39.5824C25.8755 40.4271 25.4718 41.2899 25.0998 42.169C23.115 46.8567 22.0171 52.0108 22.0171 57.4219V678.331C22.0171 681.037 22.2916 683.678 22.8141 686.229C23.01 687.186 23.2409 688.129 23.5053 689.059C23.6815 689.679 23.8725 690.293 24.0781 690.9C24.2838 691.506 24.5039 692.107 24.7381 692.7C24.9722 693.293 25.2203 693.879 25.4822 694.458C25.7442 695.036 26.0197 695.607 26.3086 696.17C26.4528 696.452 26.6006 696.732 26.7516 697.01C27.0534 697.565 27.3685 698.112 27.6961 698.651C28.1875 699.458 28.7074 700.247 29.2544 701.015C36.3649 711.004 48.0438 717.518 61.2461 717.518H305.495C318.697 717.518 330.377 711.004 337.487 701.015C338.034 700.247 338.554 699.458 339.045 698.65C339.373 698.112 339.688 697.565 339.99 697.01C340.141 696.732 340.289 696.452 340.433 696.171C340.722 695.607 340.997 695.036 341.259 694.458C341.521 693.879 341.769 693.293 342.004 692.7C342.238 692.107 342.458 691.506 342.663 690.9C342.869 690.292 343.06 689.679 343.236 689.059C343.501 688.129 343.732 687.186 343.927 686.229C344.45 683.678 344.724 681.037 344.724 678.331V57.4219C344.724 52.0108 343.627 46.8567 341.642 42.1691C341.27 41.2899 340.866 40.4273 340.433 39.5826C340.289 39.3011 340.141 39.0214 339.99 38.7437" fill="#959FAE"/>
<path fill-rule="evenodd" clip-rule="evenodd" d="M157.039 13.6157C154.735 13.6157 152.867 11.7558 152.855 9.45655L153.675 9.45239C153.684 11.3006 155.186 12.7966 157.039 12.7966V13.6157Z" fill="#959FAE"/>
<path fill-rule="evenodd" clip-rule="evenodd" d="M306.068 6.1298C311.346 6.1298 316.436 6.93114 321.223 8.41869C322.021 8.66647 322.811 8.93345 323.591 9.21899C324.372 9.50453 325.143 9.80844 325.905 10.1305C326.668 10.4526 327.42 10.7926 328.163 11.1501C328.905 11.5075 329.638 11.8825 330.36 12.2743C331.082 12.6661 331.794 13.0751 332.494 13.5001C333.195 13.9253 333.884 14.367 334.562 14.8244C335.24 15.2818 335.906 15.7551 336.56 16.2437C336.887 16.4882 337.211 16.7362 337.532 16.9881C338.174 17.4919 338.803 18.0108 339.42 18.5443C340.652 19.6112 341.834 20.736 342.959 21.9149C344.927 23.9777 346.725 26.2055 348.327 28.5755C348.785 29.2524 349.227 29.9413 349.653 30.6409C350.078 31.3407 350.488 32.0515 350.88 32.7728C351.076 33.1336 351.268 33.497 351.456 33.8628C352.018 34.9604 352.542 36.0811 353.026 37.2231C353.671 38.7459 354.243 40.3063 354.74 41.9005C354.988 42.6975 355.217 43.5029 355.426 44.3162C355.845 45.9431 356.186 47.601 356.444 49.2864C356.637 50.5503 356.784 51.8297 356.882 53.1225C356.981 54.4153 357.031 55.7215 357.031 57.0394V75.0697H362.123V55.2919C362.123 25.2276 337.725 0.855713 307.629 0.855713H290.661V6.1298H306.068Z" fill="#657B9A" fill-opacity="0.15"/>
<path fill-rule="evenodd" clip-rule="evenodd" d="M290.251 0.855842C290.251 0.629652 290.434 0.446289 290.661 0.446289H307.629C337.95 0.446289 362.532 25.0011 362.532 55.292V75.0698C362.532 75.296 362.349 75.4794 362.123 75.4794H357.031C356.805 75.4794 356.621 75.296 356.621 75.0698V57.0395C356.621 55.732 356.571 54.4362 356.474 53.1537C356.376 51.8713 356.23 50.6022 356.039 49.3485C355.783 47.6767 355.445 46.0321 355.03 44.4185L355.414 44.3195L355.03 44.4186C355.03 44.4186 355.03 44.4185 355.03 44.4185C354.822 43.6118 354.595 42.8128 354.349 42.0224C353.856 40.4411 353.288 38.8934 352.649 37.3829L353.026 37.2232L352.649 37.3828C352.649 37.3829 352.649 37.3829 352.649 37.3829C352.169 36.2502 351.649 35.1385 351.091 34.0498L351.091 34.0497C350.905 33.687 350.715 33.3266 350.52 32.9685C350.131 32.2532 349.725 31.5482 349.303 30.854L349.653 30.641L349.303 30.8538C349.303 30.8539 349.303 30.8539 349.303 30.854C348.881 30.1599 348.442 29.4765 347.988 28.805C346.398 26.4541 344.615 24.2441 342.662 22.1978L342.662 22.1978C341.546 21.0283 340.375 19.9125 339.151 18.8542L339.151 18.8541C338.54 18.3249 337.916 17.8102 337.279 17.3104L337.279 17.3103C336.961 17.0605 336.639 16.8144 336.315 16.5718C336.315 16.5718 336.315 16.5719 336.315 16.5719L336.56 16.2438L336.315 16.5718C335.666 16.0872 335.005 15.6177 334.333 15.1641C333.66 14.7103 332.977 14.2721 332.282 13.8503C332.282 13.8503 332.282 13.8503 332.282 13.8503L332.494 13.5002L332.282 13.8503C331.587 13.4287 330.881 13.0231 330.165 12.6344C330.165 12.6345 330.165 12.6345 330.165 12.6345L330.36 12.2745L330.165 12.6344C329.448 12.2458 328.722 11.8737 327.985 11.5193L327.985 11.5193C327.248 11.1646 326.502 10.8273 325.746 10.5079C324.99 10.1884 324.225 9.88699 323.45 9.60374C322.676 9.32052 321.893 9.05571 321.102 8.80994L321.102 8.80992C316.353 7.33446 311.304 6.53948 306.068 6.53948H290.661C290.434 6.53948 290.251 6.35612 290.251 6.12993V0.855842ZM291.07 1.26539V5.72038H306.068C311.387 5.72038 316.518 6.52807 321.345 8.02771C322.149 8.2775 322.945 8.54664 323.732 8.8345C324.519 9.12233 325.296 9.42869 326.065 9.75338C326.833 10.078 327.592 10.4208 328.34 10.7812C329.089 11.1415 329.827 11.5196 330.555 11.9145L330.555 11.9145C331.283 12.3095 332.001 12.7217 332.707 13.1501L332.707 13.1501C333.413 13.5788 334.108 14.024 334.791 14.4851C335.474 14.9462 336.146 15.4232 336.805 15.9157L336.805 15.9158C337.135 16.1621 337.461 16.4121 337.785 16.666C338.432 17.1739 339.066 17.6969 339.687 18.2348C340.93 19.3101 342.121 20.444 343.255 21.6323C345.239 23.7115 347.051 25.9572 348.666 28.3462C349.128 29.0286 349.574 29.723 350.003 30.4281L350.003 30.4283C350.432 31.1337 350.844 31.8502 351.24 32.5773L350.922 32.75L351.24 32.5773C351.437 32.941 351.631 33.3072 351.82 33.6761C352.387 34.7826 352.916 35.9123 353.403 37.0635L353.403 37.0635C354.053 38.5987 354.63 40.1717 355.131 41.7788C355.381 42.5824 355.612 43.3943 355.823 44.2142L355.823 44.2142C356.245 45.8542 356.589 47.5256 356.848 49.2247C357.043 50.4987 357.191 51.7884 357.29 53.0915C357.39 54.3946 357.44 55.7112 357.44 57.0395V74.6603H361.713V55.292C361.713 25.4543 337.499 1.26539 307.629 1.26539H291.07Z" fill="#959FAE"/>
<path fill-rule="evenodd" clip-rule="evenodd" d="M9.52174 57.0394C9.52174 48.6922 11.5327 40.8144 15.0972 33.8628C16.0351 32.0334 17.0807 30.2681 18.2255 28.5755C21.4311 23.8357 25.4146 19.6642 29.993 16.2437C32.6093 14.2892 35.42 12.5799 38.3907 11.1501C39.1332 10.7926 39.8858 10.4526 40.6482 10.1305C41.0291 9.96957 41.4126 9.81298 41.7983 9.66113C43.3414 9.05332 44.9212 8.51854 46.5336 8.06114C46.9367 7.94663 47.3418 7.83708 47.7488 7.73247C48.5631 7.52327 49.3851 7.33366 50.2146 7.16407C51.0438 6.99468 51.8807 6.8451 52.7242 6.71636C55.2549 6.33014 57.8467 6.1298 60.4855 6.1298H153.264H213.1H285.662V0.855713H58.9235C28.828 0.855713 4.43066 25.2276 4.43066 55.2919V75.0697H9.52174V57.0394Z" fill="#657B9A" fill-opacity="0.15"/>
<path fill-rule="evenodd" clip-rule="evenodd" d="M4.021 55.2918C4.021 25.0009 28.6021 0.446045 58.9234 0.446045H285.662C285.888 0.446045 286.072 0.629408 286.072 0.855597V6.12969C286.072 6.35588 285.888 6.53924 285.662 6.53924H60.4854C57.8673 6.53924 55.2962 6.738 52.7859 7.12111C51.9492 7.24881 51.1191 7.39719 50.2964 7.56522C49.4737 7.73344 48.6584 7.92151 47.8506 8.12902C47.4469 8.23277 47.0451 8.34143 46.6454 8.45498C45.046 8.90868 43.4789 9.43917 41.9483 10.0421C41.5658 10.1927 41.1854 10.348 40.8074 10.5077C40.0513 10.8271 39.3048 11.1644 38.5683 11.519C35.6216 12.9372 32.8334 14.6329 30.238 16.5717C25.6962 19.9649 21.7446 24.1031 18.5646 28.8048C17.429 30.4838 16.3918 32.2349 15.4616 34.0495C11.926 40.9447 9.93117 48.7586 9.93117 57.0393V75.0696C9.93117 75.2958 9.74781 75.4791 9.52162 75.4791H4.43055C4.20436 75.4791 4.021 75.2958 4.021 75.0696V55.2918ZM58.9234 1.26515C29.0537 1.26515 4.8401 25.454 4.8401 55.2918V74.66H9.11207V57.0393C9.11207 48.6256 11.1392 40.6839 14.7327 33.6758C15.6781 31.8316 16.7322 30.0521 17.8861 28.3459C21.1174 23.5682 25.1328 19.3633 29.7477 15.9155C32.385 13.9454 35.2183 12.2223 38.2129 10.781C38.9614 10.4206 39.7202 10.0778 40.4887 9.75312C40.8726 9.59093 41.2592 9.43306 41.6481 9.27996M58.9234 1.26515H285.253Z" fill="#959FAE"/>
<path fill-rule="evenodd" clip-rule="evenodd" d="M362.122 80.0615H357.03V655.503H362.122V308.388V220.427V80.0615Z" fill="#657B9A" fill-opacity="0.15"/>
<path fill-rule="evenodd" clip-rule="evenodd" d="M356.62 80.0614C356.62 79.8352 356.803 79.6519 357.03 79.6519H362.122C362.348 79.6519 362.531 79.8352 362.531 80.0614V655.503C362.531 655.729 362.348 655.912 362.122 655.912H357.03C356.803 655.912 356.62 655.729 356.62 655.503V80.0614ZM357.439 80.471V655.093H361.712V80.471H357.439Z" fill="#959FAE"/>
<path fill-rule="evenodd" clip-rule="evenodd" d="M9.52174 79.967H4.43066V148.965V176.682V201.76V256.817V271.713V326.771V655.597H9.52174V79.967Z" fill="#657B9A" fill-opacity="0.15"/>
<path fill-rule="evenodd" clip-rule="evenodd" d="M4.021 79.9672C4.021 79.741 4.20436 79.5576 4.43055 79.5576H9.52162C9.74781 79.5576 9.93117 79.741 9.93117 79.9672V655.598C9.93117 655.824 9.74781 656.007 9.52162 656.007H4.43055C4.20436 656.007 4.021 655.824 4.021 655.598V79.9672ZM4.8401 80.3767V655.188H9.11207V80.3767H4.8401Z" fill="#959FAE"/>
<path fill-rule="evenodd" clip-rule="evenodd" d="M9.52186 79.5576C9.74805 79.5576 9.93141 79.741 9.93141 79.9672V655.598C9.93141 655.824 9.74805 656.007 9.52186 656.007C9.29567 656.007 9.1123 655.824 9.1123 655.598V79.9672C9.1123 79.741 9.29567 79.5576 9.52186 79.5576Z" fill="#959FAE"/>
<path fill-rule="evenodd" clip-rule="evenodd" d="M155.812 9.52913C155.812 9.47054 155.815 9.41277 155.821 9.35562C155.844 9.12743 155.913 8.91265 156.017 8.72016C156.07 8.62402 156.131 8.53344 156.2 8.44968C156.27 8.36591 156.347 8.28875 156.431 8.21963C156.473 8.18497 156.516 8.15237 156.561 8.12184C156.832 7.93884 157.159 7.83217 157.511 7.83217H209.23C209.342 7.83217 209.452 7.84372 209.557 7.86435C210.339 8.01662 210.93 8.70386 210.93 9.52913C210.93 10.3544 210.339 11.0416 209.557 11.1939C209.452 11.2145 209.342 11.2261 209.23 11.2261H157.511C157.042 11.2261 156.617 11.0361 156.31 10.7291C156.079 10.4988 155.915 10.2025 155.847 9.8712C155.824 9.76062 155.812 9.64632 155.812 9.52913ZM153.265 9.45424C153.276 11.5279 154.961 13.2059 157.039 13.2059H209.323C209.584 13.2059 209.839 13.1795 210.084 13.1294C210.33 13.079 210.567 13.005 210.793 12.9096C210.906 12.8618 211.016 12.8087 211.123 12.7508C211.337 12.6346 211.539 12.4984 211.726 12.3447C212.098 12.0373 212.412 11.6598 212.644 11.2323C212.935 10.6981 213.1 10.0858 213.1 9.43484V6.12964H153.264V9.43484C153.264 9.44144 153.265 9.44763 153.265 9.45424Z" fill="#657B9A" fill-opacity="0.15"/>
<path fill-rule="evenodd" clip-rule="evenodd" d="M152.854 6.12977C152.854 5.90358 153.038 5.72021 153.264 5.72021H213.1C213.326 5.72021 213.509 5.90358 213.509 6.12977V9.43497C213.509 10.156 213.326 10.8354 213.004 11.4281M153.674 6.53932V9.42311L153.674 9.42504C153.674 9.43205 153.675 9.44222 153.675 9.45437H153.265L153.675 9.45229C153.684 11.3005 155.186 12.7965 157.039 12.7965H209.323C209.556 12.7965 209.783 12.7729 210.002 12.7282C210.221 12.6833 210.433 12.6174 210.634 12.5325C210.735 12.4898 210.833 12.4425 210.928 12.3908C211.119 12.2874 211.298 12.166 211.465 12.0289C211.798 11.7545 212.077 11.4177 212.284 11.0367L212.284 11.0366C212.543 10.561 212.69 10.0158 212.69 9.43497V6.53932H153.674ZM211.725 12.3447L211.725 12.3449L211.725 12.3447L152.854 9.43497M156.79 8.46139C156.996 8.32276 157.243 8.24185 157.511 8.24185ZM156.332 7.78251C156.669 7.55515 157.075 7.42275 157.511 7.42275H209.23C209.371 7.42275 209.506 7.43722 209.636 7.46251L209.557 7.86444L209.636 7.46249C209.636 7.4625 209.636 7.46251 209.636 7.46251C210.605 7.65142 211.339 8.50347 211.339 9.52926C211.339 10.555 210.605 11.4071 209.636 11.596M157.511 8.24185H209.23ZM209.23 8.24185C209.314 8.24185 209.397 8.25048 209.479 8.26645ZM210.52 9.52926C210.52 8.90455 210.072 8.38213 209.479 8.26647L209.479 8.26645M156.332 7.78251L156.332 7.78255ZM156.79 8.46142C156.756 8.48456 156.723 8.50921 156.691 8.53538L156.691 8.53608C156.627 8.58819 156.569 8.64668 156.516 8.71059L156.516 8.71105C156.463 8.77443 156.417 8.843 156.377 8.91582L156.377 8.91596C156.298 9.06168 156.246 9.22422 156.228 9.39741L155.821 9.35575L156.228 9.39697C156.224 9.44013 156.222 9.48414 156.222 9.52926C156.222 9.61835 156.231 9.70522 156.248 9.78942C156.299 10.0398 156.424 10.2643 156.599 10.4394C156.833 10.6728 157.155 10.8167 157.511 10.8167H209.23C209.314 10.8167 209.397 10.808 209.479 10.7921L209.479 10.792C210.072 10.6764 210.52 10.154 210.52 9.52926M156.332 7.78255C156.276 7.82037 156.222 7.86079 156.17 7.90379ZM156.17 7.90379C156.065 7.98983 155.97 8.08554 155.884 8.18902L156.2 8.44977L155.885 8.18856C155.799 8.29271 155.722 8.40528 155.657 8.52475M152.854 9.43497C152.854 9.44712 152.855 9.45728 152.855 9.46429ZM152.855 9.46429L152.856 9.46726ZM152.856 9.46726C152.873 11.7615 154.739 13.6156 157.039 13.6156H209.323C209.612 13.6156 209.894 13.5864 210.166 13.5308L210.167 13.5307C210.439 13.4749 210.702 13.3928 210.952 13.2871L210.953 13.2869C211.078 13.2339 211.2 13.1752 211.318 13.111L211.318 13.1109C211.556 12.9821 211.779 12.8312 211.986 12.661L211.986 12.6609C212.399 12.3204 212.746 11.9022 213.004 11.4282" fill="#959FAE"/>
<path fill-rule="evenodd" clip-rule="evenodd" d="M155.812 9.52913C155.812 9.47054 155.815 9.41277 155.821 9.35562C155.844 9.12743 155.913 8.91265 156.017 8.72016C156.07 8.62402 156.131 8.53344 156.2 8.44968C156.27 8.36591 156.347 8.28875 156.431 8.21963C156.473 8.18497 156.516 8.15237 156.561 8.12184C156.832 7.93884 157.159 7.83217 157.511 7.83217H209.23C209.342 7.83217 209.452 7.84372 209.557 7.86435C210.339 8.01662 210.93 8.70386 210.93 9.52913C210.93 10.3544 210.339 11.0416 209.557 11.1939C209.452 11.2145 209.342 11.2261 209.23 11.2261H157.511C157.042 11.2261 156.617 11.0361 156.31 10.7291C156.079 10.4988 155.915 10.2025 155.847 9.8712C155.824 9.76062 155.812 9.64632 155.812 9.52913ZM153.265 9.45424C153.276 11.5279 154.961 13.2059 157.039 13.2059H209.323C209.584 13.2059 209.839 13.1795 210.084 13.1294C210.33 13.079 210.567 13.005 210.793 12.9096C210.906 12.8618 211.016 12.8087 211.123 12.7508C211.337 12.6346 211.539 12.4984 211.726 12.3447C212.098 12.0373 212.412 11.6598 212.644 11.2323C212.935 10.6981 213.1 10.0858 213.1 9.43484V6.12964H153.264V9.43484C153.264 9.44144 153.265 9.44763 153.265 9.45424Z" fill="#657B9A" fill-opacity="0.15"/>
<path fill-rule="evenodd" clip-rule="evenodd" d="M152.854 6.12977C152.854 5.90358 153.038 5.72021 153.264 5.72021H213.1C213.326 5.72021 213.509 5.90358 213.509 6.12977V9.43497C213.509 10.156 213.326 10.8354 213.004 11.4281M153.674 6.53932V9.42311L153.674 9.42504C153.674 9.43205 153.675 9.44222 153.675 9.45437H153.265L153.675 9.45229C153.684 11.3005 155.186 12.7965 157.039 12.7965H209.323C209.556 12.7965 209.783 12.7729 210.002 12.7282C210.221 12.6833 210.433 12.6174 210.634 12.5325C210.735 12.4898 210.833 12.4425 210.928 12.3908C211.119 12.2874 211.298 12.166 211.465 12.0289C211.798 11.7545 212.077 11.4177 212.284 11.0367L212.284 11.0366C212.543 10.561 212.69 10.0158 212.69 9.43497V6.53932H153.674ZM211.725 12.3447L211.725 12.3449L211.725 12.3447L152.854 9.43497M156.79 8.46139C156.996 8.32276 157.243 8.24185 157.511 8.24185ZM156.332 7.78251C156.669 7.55515 157.075 7.42275 157.511 7.42275H209.23C209.371 7.42275 209.506 7.43722 209.636 7.46251L209.557 7.86444L209.636 7.46249C209.636 7.4625 209.636 7.46251 209.636 7.46251C210.605 7.65142 211.339 8.50347 211.339 9.52926C211.339 10.555 210.605 11.4071 209.636 11.596M157.511 8.24185H209.23ZM209.23 8.24185C209.314 8.24185 209.397 8.25048 209.479 8.26645ZM210.52 9.52926C210.52 8.90455 210.072 8.38213 209.479 8.26647L209.479 8.26645M156.332 7.78251L156.332 7.78255ZM156.79 8.46142C156.756 8.48456 156.723 8.50921 156.691 8.53538L156.691 8.53608C156.627 8.58819 156.569 8.64668 156.516 8.71059L156.516 8.71105C156.463 8.77443 156.417 8.843 156.377 8.91582L156.377 8.91596C156.298 9.06168 156.246 9.22422 156.228 9.39741L155.821 9.35575L156.228 9.39697C156.224 9.44013 156.222 9.48414 156.222 9.52926C156.222 9.61835 156.231 9.70522 156.248 9.78942C156.299 10.0398 156.424 10.2643 156.599 10.4394C156.833 10.6728 157.155 10.8167 157.511 10.8167H209.23C209.314 10.8167 209.397 10.808 209.479 10.7921L209.479 10.792C210.072 10.6764 210.52 10.154 210.52 9.52926M156.332 7.78255C156.276 7.82037 156.222 7.86079 156.17 7.90379ZM156.17 7.90379C156.065 7.98983 155.97 8.08554 155.884 8.18902L156.2 8.44977L155.885 8.18856C155.799 8.29271 155.722 8.40528 155.657 8.52475M152.854 9.43497C152.854 9.44712 152.855 9.45728 152.855 9.46429ZM152.855 9.46429L152.856 9.46726ZM152.856 9.46726C152.873 11.7615 154.739 13.6156 157.039 13.6156H209.323C209.612 13.6156 209.894 13.5864 210.166 13.5308L210.167 13.5307C210.439 13.4749 210.702 13.3928 210.952 13.2871L210.953 13.2869C211.078 13.2339 211.2 13.1752 211.318 13.111L211.318 13.1109C211.556 12.9821 211.779 12.8312 211.986 12.661L211.986 12.6609C212.399 12.3204 212.746 11.9022 213.004 11.4282" fill="#959FAE"/>
<path fill-rule="evenodd" clip-rule="evenodd" d="M2.7322 148.965C1.68966 148.965 0.844727 149.81 0.844727 150.852V174.796C0.844727 175.837 1.68966 176.682 2.7322 176.682H4.43094V148.965H2.7322Z" fill="#F4F7FA"/>
<path fill-rule="evenodd" clip-rule="evenodd" d="M0.435059 150.852C0.435059 149.584 1.46346 148.555 2.73208 148.555H4.43083C4.65702 148.555 4.84038 148.739 4.84038 148.965V176.682C4.84038 176.908 4.65702 177.092 4.43083 177.092H2.73208C1.46346 177.092 0.435059 176.063 0.435059 174.796V150.852ZM2.73208 149.375C1.91563 149.375 1.25416 150.036 1.25416 150.852V174.796C1.25416 175.611 1.91563 176.273 2.73208 176.273H4.02127V149.375H2.73208Z" fill="#959FAE"/>
<path fill-rule="evenodd" clip-rule="evenodd" d="M3.11013 201.76C2.71925 201.76 2.35605 201.877 2.05479 202.078C1.95444 202.145 1.8609 202.221 1.77541 202.306C1.68993 202.39 1.6127 202.483 1.54498 202.582C1.34138 202.881 1.22266 203.242 1.22266 203.633V254.946C1.22266 255.337 1.34138 255.697 1.54498 255.996C1.6127 256.095 1.68993 256.188 1.77541 256.272C1.8609 256.357 1.95444 256.433 2.05479 256.5C2.35605 256.7 2.71925 256.817 3.11013 256.817H4.43142V201.76H3.11013Z" fill="#F4F7FA"/>
<path fill-rule="evenodd" clip-rule="evenodd" d="M1.8274 201.737C2.19449 201.492 2.63649 201.351 3.11001 201.351H4.4313C4.65749 201.351 4.84086 201.534 4.84086 201.76V256.817C4.84086 257.043 4.65749 257.226 4.4313 257.226H3.11001C2.63665 257.226 2.19469 257.085 1.82757 256.84L1.82714 256.84C1.70544 256.759 1.59172 256.666 1.48758 256.564C1.38323 256.461 1.289 256.347 1.20636 256.226H1.20636C0.957629 255.862 0.812988 255.421 0.812988 254.946V203.632C0.812988 203.157 0.957721 202.717 1.20636 202.352M2.28206 202.418C2.20342 202.471 2.13021 202.531 2.06337 202.597L2.06301 202.597C1.9964 202.663 1.93618 202.735 1.88337 202.813L1.8833 202.813C1.72479 203.046 1.63209 203.326 1.63209 203.632V254.946C1.63209 255.252 1.72483 255.533 1.88315 255.765L1.88337 255.765C1.93618 255.843 1.9964 255.915 2.06301 255.981C2.12984 256.047 2.2032 256.106 2.28221 256.159C2.51752 256.316 2.80181 256.407 3.11001 256.407H4.02175V202.17H3.11001C2.80183 202.17 2.51747 202.261 2.28206 202.418ZM1.8274 201.737L1.82714 201.737ZM1.82714 201.737C1.7052 201.819 1.59144 201.912 1.48741 202.015ZM1.48741 202.015C1.38315 202.117 1.289 202.23 1.20643 202.352Z" fill="#959FAE"/>
<path fill-rule="evenodd" clip-rule="evenodd" d="M3.11013 271.713C2.71925 271.713 2.35605 271.83 2.05479 272.031C1.95444 272.098 1.8609 272.175 1.77541 272.259C1.68993 272.344 1.6127 272.436 1.54498 272.536C1.34138 272.835 1.22266 273.196 1.22266 273.587V324.9C1.22266 325.29 1.34138 325.651 1.54498 325.95C1.6127 326.049 1.68993 326.142 1.77541 326.226C1.8609 326.31 1.95444 326.387 2.05479 326.454C2.35605 326.654 2.71925 326.771 3.11013 326.771H4.43142V271.713H3.11013Z" fill="#F4F7FA"/>
<path fill-rule="evenodd" clip-rule="evenodd" d="M1.82743 271.69C2.19442 271.445 2.6364 271.303 3.11001 271.303H4.4313C4.65749 271.303 4.84086 271.487 4.84086 271.713V326.771C4.84086 326.997 4.65749 327.18 4.4313 327.18H3.11001C2.63665 327.18 2.19472 327.039 1.82762 326.794M1.82743 271.69C1.70486 271.772 1.59115 271.865 1.48758 271.967L1.48758 271.967L1.48723 271.968C1.38327 272.071 1.28913 272.184 1.20643 272.305C0.957707 272.67 0.812988 273.111 0.812988 273.586V324.9C0.812988 325.375 0.957713 325.816 1.20658 326.18H1.20658C1.28914 326.302 1.38329 326.415 1.48758 326.517C1.59148 326.62 1.70528 326.713 1.82757 326.794M3.11001 272.123C2.80196 272.123 2.5176 272.215 2.2821 272.372L2.28172 272.372C2.20366 272.424 2.13037 272.484 2.06302 272.55L1.7753 272.259L2.06337 272.55C1.99648 272.616 1.93627 272.689 1.88359 272.766L1.8833 272.766C1.72483 272.999 1.63209 273.28 1.63209 273.586V324.9C1.63209 325.206 1.72483 325.487 1.88315 325.719L1.88337 325.719C1.9362 325.797 1.99643 325.869 2.06301 325.935C2.13008 326.001 2.20333 326.06 2.28173 326.113L2.28178 326.113C2.51719 326.27 2.80164 326.361 3.11001 326.361H4.02175V272.123H3.11001Z" fill="#959FAE"/>
<path fill-rule="evenodd" clip-rule="evenodd" d="M357.03 80.0615H362.122V75.0698H357.03V80.0615Z" fill="#F4F7FA"/>
<path fill-rule="evenodd" clip-rule="evenodd" d="M356.62 75.07C356.62 74.8438 356.803 74.6604 357.03 74.6604H362.122C362.348 74.6604 362.531 74.8438 362.531 75.07V80.0616C362.531 80.2878 362.348 80.4712 362.122 80.4712H357.03C356.803 80.4712 356.62 80.2878 356.62 80.0616V75.07ZM357.439 75.4795V79.652H361.712V75.4795H357.439Z" fill="#959FAE"/>
<path d="M362.783 220.427H362.123V308.388H362.783C363.826 308.388 364.671 307.544 364.671 306.503V222.313C364.671 221.271 363.826 220.427 362.783 220.427Z" fill="white" fill-opacity="0.3"/>
<path fill-rule="evenodd" clip-rule="evenodd" d="M361.713 220.427C361.713 220.201 361.896 220.017 362.122 220.017H362.783C364.052 220.017 365.08 221.044 365.08 222.313V306.502C365.08 307.771 364.052 308.798 362.783 308.798H362.122C361.896 308.798 361.713 308.614 361.713 308.388V220.427ZM362.532 220.836V307.979H362.783C363.6 307.979 364.261 307.318 364.261 306.502V222.313C364.261 221.497 363.6 220.836 362.783 220.836H362.532Z" fill="#959FAE"/>
<path fill-rule="evenodd" clip-rule="evenodd" d="M285.664 6.1298H290.66V0.855713H285.664V6.1298Z" fill="#F4F7FA"/>
<path fill-rule="evenodd" clip-rule="evenodd" d="M285.254 0.855842C285.254 0.629652 285.437 0.446289 285.663 0.446289H290.66C290.887 0.446289 291.07 0.629652 291.07 0.855842V6.12993C291.07 6.35612 290.887 6.53948 290.66 6.53948H285.663C285.437 6.53948 285.254 6.35612 285.254 6.12993V0.855842ZM286.073 1.26539V5.72038H290.251V1.26539H286.073Z" fill="#959FAE"/>
<path fill-rule="evenodd" clip-rule="evenodd" d="M357.03 678.336C357.03 685.365 355.604 692.061 353.025 698.152C352.703 698.914 352.362 699.665 352.004 700.407C351.468 701.52 350.892 702.611 350.278 703.677C349.255 705.454 348.128 707.163 346.906 708.796C346.661 709.123 346.412 709.447 346.16 709.767C336.83 721.628 322.339 729.246 306.068 729.246H81.1733V734.52H307.629C337.724 734.52 362.122 710.148 362.122 680.083V660.4H357.03V678.336Z" fill="#657B9A" fill-opacity="0.15"/>
<path fill-rule="evenodd" clip-rule="evenodd" d="M356.62 660.401C356.62 660.174 356.804 659.991 357.03 659.991H362.122C362.348 659.991 362.531 660.174 362.531 660.401V680.083C362.531 710.374 337.949 734.93 307.628 734.93H81.1732C80.947 734.93 80.7637 734.746 80.7637 734.52V729.247C80.7637 729.02 80.947 728.837 81.1732 728.837H306.067C322.208 728.837 336.582 721.28 345.838 709.514C346.088 709.196 346.335 708.875 346.578 708.551C347.791 706.93 348.909 705.235 349.923 703.473C350.532 702.415 351.103 701.333 351.635 700.23C351.99 699.494 352.328 698.748 352.648 697.993L353.025 698.152L352.648 697.993C355.206 691.951 356.62 685.309 356.62 678.336V660.401ZM357.439 660.81V678.336C357.439 685.421 356.002 692.171 353.402 698.312L353.062 698.168L353.402 698.312C353.077 699.08 352.734 699.838 352.373 700.585L352.004 700.408L352.373 700.585C351.832 701.707 351.251 702.807 350.633 703.881C349.602 705.672 348.466 707.395 347.233 709.042L346.925 708.811L347.233 709.042C346.987 709.371 346.736 709.697 346.482 710.02C337.077 721.976 322.47 729.656 306.067 729.656H81.5828V734.11H307.628C337.498 734.11 361.712 709.921 361.712 680.083V660.81H357.439Z" fill="#959FAE"/>
<path fill-rule="evenodd" clip-rule="evenodd" d="M357.03 660.4H362.122V655.502H357.03V660.4Z" fill="#F4F7FA"/>
<path fill-rule="evenodd" clip-rule="evenodd" d="M356.62 655.502C356.62 655.276 356.803 655.093 357.03 655.093H362.122C362.348 655.093 362.531 655.276 362.531 655.502V660.4C362.531 660.627 362.348 660.81 362.122 660.81H357.03C356.803 660.81 356.62 660.627 356.62 660.4V655.502ZM357.439 655.912V659.991H361.712V655.912H357.439Z" fill="#959FAE"/>
<path fill-rule="evenodd" clip-rule="evenodd" d="M76.5532 729.247V734.52H81.1727V729.247H76.5532Z" fill="#F4F7FA"/>
<path fill-rule="evenodd" clip-rule="evenodd" d="M76.144 729.247C76.144 729.021 76.3274 728.837 76.5536 728.837H81.1731C81.3993 728.837 81.5826 729.021 81.5826 729.247V734.52C81.5826 734.746 81.3993 734.93 81.1731 734.93H76.5536C76.3274 734.93 76.144 734.746 76.144 734.52V729.247ZM76.9631 729.656V734.111H80.7635V729.656H76.9631Z" fill="#959FAE"/>
<path fill-rule="evenodd" clip-rule="evenodd" d="M76.144 729.247C76.144 729.021 76.3274 728.837 76.5536 728.837H81.1731C81.3993 728.837 81.5826 729.021 81.5826 729.247C81.5826 729.473 81.3993 729.656 81.1731 729.656H76.5536C76.3274 729.656 76.144 729.473 76.144 729.247Z" fill="#959FAE"/>
<path fill-rule="evenodd" clip-rule="evenodd" d="M60.4855 729.247C32.3388 729.247 9.52153 706.453 9.52153 678.336V660.494H4.43066V680.083C4.43066 710.148 28.8278 734.52 58.9232 734.52H76.5533V729.247H60.4855Z" fill="#657B9A" fill-opacity="0.15"/>
<path fill-rule="evenodd" clip-rule="evenodd" d="M4.021 660.494C4.021 660.267 4.20436 660.084 4.43055 660.084H9.52141C9.7476 660.084 9.93097 660.267 9.93097 660.494V678.336C9.93097 706.226 32.5645 728.837 60.4854 728.837H76.5532C76.7794 728.837 76.9627 729.021 76.9627 729.247V734.52C76.9627 734.746 76.7794 734.93 76.5532 734.93H58.9231C28.6019 734.93 4.021 710.375 4.021 680.083V660.494ZM4.8401 660.903V680.083C4.8401 709.921 29.0535 734.111 58.9231 734.111H76.1436V729.656H60.4854C32.1129 729.656 9.11186 706.679 9.11186 678.336V660.903H4.8401Z" fill="#959FAE"/>
<path fill-rule="evenodd" clip-rule="evenodd" d="M9.93141 660.493V678.336C9.93141 706.226 32.565 728.837 60.4858 728.837H76.5536V729.656H60.4858C32.1134 729.656 9.1123 706.679 9.1123 678.336V660.493H9.93141Z" fill="#959FAE"/>
<path fill-rule="evenodd" clip-rule="evenodd" d="M4.43066 660.493H9.52174V655.597H4.43066V660.493Z" fill="#F4F7FA"/>
<path fill-rule="evenodd" clip-rule="evenodd" d="M4.021 655.597C4.021 655.371 4.20436 655.188 4.43055 655.188H9.52162C9.74781 655.188 9.93117 655.371 9.93117 655.597V660.493C9.93117 660.719 9.74781 660.903 9.52162 660.903H4.43055C4.20436 660.903 4.021 660.719 4.021 660.493V655.597ZM4.8401 656.007V660.083H9.11207V656.007H4.8401Z" fill="#959FAE"/>
<path fill-rule="evenodd" clip-rule="evenodd" d="M9.52186 655.188C9.74805 655.188 9.93141 655.371 9.93141 655.597V660.493C9.93141 660.719 9.74805 660.903 9.52186 660.903C9.29567 660.903 9.1123 660.719 9.1123 660.493V655.597C9.1123 655.371 9.29567 655.188 9.52186 655.188Z" fill="#959FAE"/>
<path fill-rule="evenodd" clip-rule="evenodd" d="M4.43066 79.9672H9.52174V75.0698H4.43066V79.9672Z" fill="#F4F7FA"/>
<path fill-rule="evenodd" clip-rule="evenodd" d="M4.021 75.0697C4.021 74.8435 4.20436 74.6602 4.43055 74.6602H9.52162C9.74781 74.6602 9.93117 74.8435 9.93117 75.0697V79.9671C9.93117 80.1933 9.74781 80.3766 9.52162 80.3766H4.43055C4.20436 80.3766 4.021 80.1933 4.021 79.9671V75.0697ZM4.8401 75.4793V79.5575H9.11207V75.4793H4.8401Z" fill="#959FAE"/>
<path d="M357.032 80.0617H362.124V75.0701H357.032V80.0617Z" fill="white" fill-opacity="0.3"/>
<path fill-rule="evenodd" clip-rule="evenodd" d="M356.622 75.07C356.622 74.8438 356.805 74.6604 357.032 74.6604H362.124C362.35 74.6604 362.533 74.8438 362.533 75.07V80.0616C362.533 80.2878 362.35 80.4712 362.124 80.4712H357.032C356.805 80.4712 356.622 80.2878 356.622 80.0616V75.07ZM357.441 75.4795V79.652H361.714V75.4795H357.441Z" fill="#959FAE"/>
<path d="M285.663 6.13005H290.66V0.855957H285.663V6.13005Z" fill="white" fill-opacity="0.3"/>
<path fill-rule="evenodd" clip-rule="evenodd" d="M285.253 0.855842C285.253 0.629652 285.437 0.446289 285.663 0.446289H290.66C290.886 0.446289 291.069 0.629652 291.069 0.855842V6.12993C291.069 6.35612 290.886 6.53948 290.66 6.53948H285.663C285.437 6.53948 285.253 6.35612 285.253 6.12993V0.855842ZM286.073 1.26539V5.72038H290.25V1.26539H286.073Z" fill="#959FAE"/>
<path d="M357.032 660.401H362.124V655.503H357.032V660.401Z" fill="white" fill-opacity="0.3"/>
<path fill-rule="evenodd" clip-rule="evenodd" d="M356.622 655.503C356.622 655.276 356.805 655.093 357.032 655.093H362.124C362.35 655.093 362.533 655.276 362.533 655.503V660.401C362.533 660.627 362.35 660.81 362.124 660.81H357.032C356.805 660.81 356.622 660.627 356.622 660.401V655.503ZM357.441 655.912V659.991H361.714V655.912H357.441Z" fill="#959FAE"/>
<path d="M76.5532 729.247V734.52H81.1727V729.247H76.5532Z" fill="white" fill-opacity="0.3"/>
<path fill-rule="evenodd" clip-rule="evenodd" d="M76.1436 729.247C76.1436 729.021 76.3269 728.837 76.5531 728.837H81.1726C81.3988 728.837 81.5821 729.021 81.5821 729.247V734.52C81.5821 734.746 81.3988 734.93 81.1726 734.93H76.5531C76.3269 734.93 76.1436 734.746 76.1436 734.52V729.247ZM76.9627 729.656V734.111H80.763V729.656H76.9627Z" fill="#959FAE"/>
<path d="M4.43164 660.493H9.52271V655.597H4.43164V660.493Z" fill="white" fill-opacity="0.3"/>
<path fill-rule="evenodd" clip-rule="evenodd" d="M4.02197 655.597C4.02197 655.371 4.20534 655.188 4.43153 655.188H9.5226C9.74879 655.188 9.93215 655.371 9.93215 655.597V660.493C9.93215 660.719 9.74879 660.903 9.5226 660.903H4.43153C4.20534 660.903 4.02197 660.719 4.02197 660.493V655.597ZM4.84108 656.007V660.083H9.11304V656.007H4.84108Z" fill="#959FAE"/>
<path d="M4.43164 79.9672H9.52271V75.0698H4.43164V79.9672Z" fill="white" fill-opacity="0.3"/>
<path fill-rule="evenodd" clip-rule="evenodd" d="M4.02197 75.0697C4.02197 74.8435 4.20534 74.6602 4.43153 74.6602H9.5226C9.74879 74.6602 9.93215 74.8435 9.93215 75.0697V79.9671C9.93215 80.1933 9.74879 80.3766 9.5226 80.3766H4.43153C4.20534 80.3766 4.02197 80.1933 4.02197 79.9671V75.0697ZM4.84108 75.4793V79.5575H9.11304V75.4793H4.84108Z" fill="#959FAE"/>
<path fill-rule="evenodd" clip-rule="evenodd" d="M129.464 33.2058C130.939 34.5448 132.898 35.361 135.048 35.361C137.198 35.361 139.158 34.5448 140.633 33.2058C141.714 32.2237 142.535 30.9606 142.98 29.5319C143.223 28.7524 143.354 27.9238 143.354 27.0647C143.354 26.7784 143.339 26.4953 143.311 26.2166C143.212 25.2403 142.943 24.3141 142.535 23.4678C142.301 22.9842 142.023 22.5268 141.704 22.1007C141.465 21.7814 141.203 21.4797 140.921 21.1983C140.733 21.0106 140.537 20.8319 140.331 20.6627C138.896 19.4793 137.055 18.7683 135.048 18.7683C133.042 18.7683 131.201 19.4793 129.765 20.6627C129.56 20.8319 129.364 21.0106 129.176 21.1983C128.894 21.4797 128.632 21.7814 128.393 22.1007C128.074 22.5268 127.795 22.9842 127.562 23.4678C127.154 24.3141 126.885 25.2403 126.786 26.2166C126.758 26.4953 126.743 26.7784 126.743 27.0647C126.743 27.9238 126.874 28.7524 127.117 29.5319C127.561 30.9606 128.383 32.2237 129.464 33.2058Z" fill="#657B9A" fill-opacity="0.15"/>
<path fill-rule="evenodd" clip-rule="evenodd" d="M129.505 20.3466C131.011 19.1049 132.943 18.3586 135.048 18.3586C137.154 18.3586 139.086 19.1049 140.592 20.3466C140.807 20.5241 141.013 20.7115 141.211 20.9085C141.506 21.2036 141.781 21.52 142.031 21.8552L142.032 21.8553C142.366 22.3022 142.659 22.7822 142.903 23.2897L142.903 23.2898C143.332 24.1782 143.614 25.1504 143.718 26.175L143.718 26.1751C143.748 26.4676 143.763 26.7645 143.763 27.0646C143.763 27.9655 143.626 28.8351 143.371 29.6535L142.993 29.5359L143.371 29.6535C142.904 31.1535 142.042 32.4788 140.908 33.5089L140.908 33.5089C139.361 34.9137 137.304 35.7704 135.048 35.7704C132.793 35.7704 130.736 34.9137 129.189 33.5089L129.189 33.5089C128.054 32.4788 127.193 31.1536 126.726 29.6536C126.471 28.8351 126.333 27.9655 126.333 27.0646C126.333 26.7643 126.349 26.4674 126.379 26.1751L126.379 26.175C126.483 25.1505 126.765 24.1782 127.193 23.2899M130.026 20.9785C131.391 19.8534 133.14 19.1777 135.048 19.1777C136.957 19.1777 138.706 19.8534 140.071 20.9786L140.071 20.9786C140.266 21.1395 140.453 21.3094 140.632 21.4879C140.899 21.7556 141.148 22.0424 141.376 22.346C141.679 22.7512 141.944 23.186 142.166 23.6457C142.554 24.4499 142.809 25.3299 142.903 26.2579C142.93 26.5228 142.944 26.7921 142.944 27.0646C142.944 27.882 142.82 28.6695 142.589 29.41C142.167 30.7675 141.386 31.9683 140.357 32.9024C138.955 34.1757 137.093 34.9513 135.048 34.9513C133.004 34.9513 131.142 34.1757 129.739 32.9024C128.711 31.9683 127.93 30.7675 127.508 29.41L127.508 29.41C127.277 28.6695 127.153 27.882 127.153 27.0646C127.153 26.7923 127.167 26.523 127.193 26.2579M129.505 20.3466L129.505 20.3467ZM129.505 20.3467C129.29 20.5241 129.083 20.7115 128.886 20.9085ZM128.886 20.9085C128.59 21.2037 128.316 21.5202 128.065 21.8552L128.065 21.8553C127.731 22.3021 127.438 22.7821 127.193 23.2898M130.026 20.9786C129.831 21.1395 129.644 21.3094 129.465 21.4879L129.465 21.488C129.197 21.7556 128.948 22.0423 128.721 22.346M128.721 22.3461C128.418 22.7513 128.153 23.1861 127.931 23.6455L127.931 23.6456C127.543 24.4498 127.288 25.3298 127.193 26.2578" fill="#959FAE"/>
<path fill-rule="evenodd" clip-rule="evenodd" d="M156.31 10.7289C156.617 11.0361 157.042 11.226 157.511 11.226H209.231C209.699 11.226 210.124 11.0361 210.431 10.7289C210.661 10.4987 210.825 10.2024 210.893 9.87107C210.916 9.76048 210.928 9.64618 210.928 9.52899C210.928 9.4704 210.925 9.41263 210.919 9.35548C210.896 9.12729 210.827 8.91252 210.723 8.72002C210.671 8.62388 210.609 8.5333 210.54 8.44954C210.471 8.36577 210.394 8.28861 210.31 8.2195C210.268 8.18483 210.225 8.15224 210.179 8.12191C209.909 7.9389 209.582 7.83203 209.231 7.83203H157.511C157.159 7.83203 156.833 7.9389 156.561 8.12191C156.516 8.15224 156.472 8.18483 156.43 8.2195C156.347 8.28861 156.269 8.36577 156.2 8.44954C156.131 8.5333 156.07 8.62388 156.017 8.72002C155.913 8.91252 155.844 9.12729 155.821 9.35548C155.815 9.41263 155.812 9.4704 155.812 9.52899C155.812 9.64618 155.824 9.76048 155.847 9.87107C155.915 10.2024 156.079 10.4987 156.31 10.7289Z" fill="#657B9A" fill-opacity="0.15"/>
<path fill-rule="evenodd" clip-rule="evenodd" d="M156.333 7.782C156.67 7.55494 157.076 7.42236 157.512 7.42236H209.231C209.666 7.42236 210.072 7.55487 210.408 7.78189C210.465 7.81987 210.519 7.86048 210.571 7.90338M210.408 7.78189C210.408 7.78209 210.409 7.78229 210.409 7.7825L210.18 8.12179L210.408 7.78166C210.408 7.78173 210.408 7.78181 210.408 7.78189ZM156.333 7.782C156.277 7.81965 156.223 7.86023 156.17 7.90356C156.066 7.98924 155.971 8.08482 155.885 8.18864C155.799 8.29252 155.723 8.40475 155.658 8.52378L155.658 8.52378L155.658 8.52453C155.528 8.76341 155.443 9.0304 155.414 9.31407L155.414 9.31414C155.407 9.38528 155.403 9.45681 155.403 9.52888C155.403 9.67359 155.418 9.8155 155.446 9.95335L155.847 9.87096L155.446 9.95297C155.53 10.3653 155.735 10.7331 156.021 11.0185M157.512 8.24147C157.244 8.24147 156.996 8.32251 156.791 8.46125L156.79 8.46193L156.79 8.46193C156.756 8.48478 156.723 8.50921 156.692 8.535L156.691 8.53538C156.628 8.5879 156.569 8.64657 156.516 8.7102C156.464 8.77374 156.417 8.84254 156.377 8.91566C156.298 9.06166 156.247 9.22406 156.229 9.39658M157.512 8.24147H209.231ZM209.231 8.24147C209.498 8.24147 209.745 8.32247 209.95 8.46109ZM210.049 8.535C210.018 8.5088 209.985 8.48442 209.952 8.46193L209.95 8.46109M210.571 7.90376C210.675 7.98938 210.771 8.0849 210.856 8.18864C210.942 8.29281 211.018 8.40521 211.083 8.52424M210.72 11.0185C210.34 11.3994 209.812 11.6354 209.231 11.6354H157.512C156.93 11.6354 156.402 11.3995 156.021 11.0187M210.225 8.7102C210.172 8.64657 210.114 8.5879 210.05 8.53538L210.049 8.535M210.225 8.7102C210.277 8.77353 210.324 8.84223 210.363 8.91544ZM210.512 9.39659C210.494 9.22367 210.443 9.06128 210.363 8.91558L210.363 8.91544" fill="#959FAE"/>
<path fill-rule="evenodd" clip-rule="evenodd" d="M156.31 10.7289C156.617 11.0361 157.042 11.226 157.511 11.226H209.231C209.699 11.226 210.124 11.0361 210.431 10.7289C210.661 10.4987 210.825 10.2024 210.893 9.87107C210.916 9.76048 210.928 9.64618 210.928 9.52899C210.928 9.4704 210.925 9.41263 210.919 9.35548C210.896 9.12729 210.827 8.91252 210.723 8.72002C210.671 8.62388 210.609 8.5333 210.54 8.44954C210.471 8.36577 210.394 8.28861 210.31 8.2195C210.268 8.18483 210.225 8.15224 210.179 8.12191C209.909 7.9389 209.582 7.83203 209.231 7.83203H157.511C157.159 7.83203 156.833 7.9389 156.561 8.12191C156.516 8.15224 156.472 8.18483 156.43 8.2195C156.347 8.28861 156.269 8.36577 156.2 8.44954C156.131 8.5333 156.07 8.62388 156.017 8.72002C155.913 8.91252 155.844 9.12729 155.821 9.35548C155.815 9.41263 155.812 9.4704 155.812 9.52899C155.812 9.64618 155.824 9.76048 155.847 9.87107C155.915 10.2024 156.079 10.4987 156.31 10.7289Z" fill="#657B9A" fill-opacity="0.15"/>
<path fill-rule="evenodd" clip-rule="evenodd" d="M156.333 7.782C156.67 7.55494 157.076 7.42236 157.512 7.42236H209.231C209.666 7.42236 210.072 7.55487 210.408 7.78189C210.465 7.81987 210.519 7.86048 210.571 7.90338M210.408 7.78189C210.408 7.78209 210.409 7.78229 210.409 7.7825L210.18 8.12179L210.408 7.78166C210.408 7.78173 210.408 7.78181 210.408 7.78189ZM156.333 7.782C156.277 7.81965 156.223 7.86023 156.17 7.90356C156.066 7.98924 155.971 8.08482 155.885 8.18864C155.799 8.29252 155.723 8.40475 155.658 8.52378L155.658 8.52378L155.658 8.52453C155.528 8.76341 155.443 9.0304 155.414 9.31407L155.414 9.31414C155.407 9.38528 155.403 9.45681 155.403 9.52888C155.403 9.67359 155.418 9.8155 155.446 9.95335L155.847 9.87096L155.446 9.95297C155.53 10.3653 155.735 10.7331 156.021 11.0185M157.512 8.24147C157.244 8.24147 156.996 8.32251 156.791 8.46125L156.79 8.46193L156.79 8.46193C156.756 8.48478 156.723 8.50921 156.692 8.535L156.691 8.53538C156.628 8.5879 156.569 8.64657 156.516 8.7102C156.464 8.77374 156.417 8.84254 156.377 8.91566C156.298 9.06166 156.247 9.22406 156.229 9.39658M157.512 8.24147H209.231ZM209.231 8.24147C209.498 8.24147 209.745 8.32247 209.95 8.46109ZM210.049 8.535C210.018 8.5088 209.985 8.48442 209.952 8.46193L209.95 8.46109M210.571 7.90376C210.675 7.98938 210.771 8.0849 210.856 8.18864C210.942 8.29281 211.018 8.40521 211.083 8.52424M210.72 11.0185C210.34 11.3994 209.812 11.6354 209.231 11.6354H157.512C156.93 11.6354 156.402 11.3995 156.021 11.0187M210.225 8.7102C210.172 8.64657 210.114 8.5879 210.05 8.53538L210.049 8.535M210.225 8.7102C210.277 8.77353 210.324 8.84223 210.363 8.91544ZM210.512 9.39659C210.494 9.22367 210.443 9.06128 210.363 8.91558L210.363 8.91544" fill="#959FAE"/>
<path fill-rule="evenodd" clip-rule="evenodd" d="M156.31 10.7289C156.617 11.0361 157.042 11.226 157.511 11.226H209.231C209.699 11.226 210.124 11.0361 210.431 10.7289C210.661 10.4987 210.825 10.2024 210.893 9.87107C210.916 9.76048 210.928 9.64618 210.928 9.52899C210.928 9.4704 210.925 9.41263 210.919 9.35548C210.896 9.12729 210.827 8.91252 210.723 8.72002C210.671 8.62388 210.609 8.5333 210.54 8.44954C210.471 8.36577 210.394 8.28861 210.31 8.2195C210.268 8.18483 210.225 8.15224 210.179 8.12191C209.909 7.9389 209.582 7.83203 209.231 7.83203H157.511C157.159 7.83203 156.833 7.9389 156.561 8.12191C156.516 8.15224 156.472 8.18483 156.43 8.2195C156.347 8.28861 156.269 8.36577 156.2 8.44954C156.131 8.5333 156.07 8.62388 156.017 8.72002C155.913 8.91252 155.844 9.12729 155.821 9.35548C155.815 9.41263 155.812 9.4704 155.812 9.52899C155.812 9.64618 155.824 9.76048 155.847 9.87107C155.915 10.2024 156.079 10.4987 156.31 10.7289Z" fill="#657B9A" fill-opacity="0.15"/>
<path fill-rule="evenodd" clip-rule="evenodd" d="M156.333 7.782C156.67 7.55494 157.076 7.42236 157.512 7.42236H209.231C209.666 7.42236 210.072 7.55487 210.408 7.78189C210.465 7.81987 210.519 7.86048 210.571 7.90338M210.408 7.78189C210.408 7.78209 210.409 7.78229 210.409 7.7825L210.18 8.12179L210.408 7.78166C210.408 7.78173 210.408 7.78181 210.408 7.78189ZM156.333 7.782C156.277 7.81965 156.223 7.86023 156.17 7.90356C156.066 7.98924 155.971 8.08482 155.885 8.18864C155.799 8.29252 155.723 8.40475 155.658 8.52378L155.658 8.52378L155.658 8.52453C155.528 8.76341 155.443 9.0304 155.414 9.31407L155.414 9.31414C155.407 9.38528 155.403 9.45681 155.403 9.52888C155.403 9.67359 155.418 9.8155 155.446 9.95335L155.847 9.87096L155.446 9.95297C155.53 10.3653 155.735 10.7331 156.021 11.0185M157.512 8.24147C157.244 8.24147 156.996 8.32251 156.791 8.46125L156.79 8.46193L156.79 8.46193C156.756 8.48478 156.723 8.50921 156.692 8.535L156.691 8.53538C156.628 8.5879 156.569 8.64657 156.516 8.7102C156.464 8.77374 156.417 8.84254 156.377 8.91566C156.298 9.06166 156.247 9.22406 156.229 9.39658M157.512 8.24147H209.231ZM209.231 8.24147C209.498 8.24147 209.745 8.32247 209.95 8.46109ZM210.049 8.535C210.018 8.5088 209.985 8.48442 209.952 8.46193L209.95 8.46109M210.571 7.90376C210.675 7.98938 210.771 8.0849 210.856 8.18864C210.942 8.29281 211.018 8.40521 211.083 8.52424M210.72 11.0185C210.34 11.3994 209.812 11.6354 209.231 11.6354H157.512C156.93 11.6354 156.402 11.3995 156.021 11.0187M210.225 8.7102C210.172 8.64657 210.114 8.5879 210.05 8.53538L210.049 8.535M210.225 8.7102C210.277 8.77353 210.324 8.84223 210.363 8.91544ZM210.512 9.39659C210.494 9.22367 210.443 9.06128 210.363 8.91558L210.363 8.91544" fill="#959FAE"/>
</svg>
