<svg width="26" height="30" viewBox="0 0 26 30" fill="none" xmlns="http://www.w3.org/2000/svg">
<path fill-rule="evenodd" clip-rule="evenodd" d="M25.4348 0.817253C25.1907 0.542515 24.8487 0.527734 24.5516 0.601806C24.2587 0.674846 23.9334 0.848059 23.5982 1.06688C22.9227 1.50789 22.0935 2.21182 21.2147 2.96908C21.1263 3.04532 21.0372 3.12218 20.9476 3.1995C20.139 3.89729 19.2878 4.63194 18.4481 5.27483C17.5124 5.99123 16.6176 6.57258 15.8385 6.86125C15.1171 7.11532 14.0705 7.25006 12.9089 7.25006C12.7206 7.25006 12.568 7.40269 12.568 7.59097C12.568 7.77925 12.7206 7.93188 12.9089 7.93188C14.1096 7.93188 15.2437 7.79419 16.0678 7.50335L16.0726 7.50162C16.952 7.17635 17.9143 6.54225 18.8626 5.8162C19.7192 5.16035 20.586 4.4122 21.3922 3.71643C21.4822 3.63876 21.5714 3.56174 21.6598 3.48558C22.5481 2.72012 23.3411 2.04904 23.971 1.63779C24.2885 1.43047 24.5367 1.30823 24.7166 1.26337C24.8847 1.22144 24.9177 1.26111 24.9249 1.26986C24.9252 1.2702 24.9255 1.27049 24.9257 1.27073L24.9311 1.27675C24.9415 1.28804 24.9957 1.37107 24.9208 1.65809C24.8513 1.92423 24.6937 2.27103 24.4583 2.68129C23.9902 3.49734 23.2593 4.48936 22.4837 5.45736C21.7105 6.42251 20.9023 7.35224 20.2867 8.04142C19.9791 8.3858 19.72 8.66965 19.538 8.86725C19.4469 8.96604 19.3752 9.04325 19.3263 9.09566L19.2705 9.15527L19.2564 9.17037L19.252 9.17501C19.252 9.17505 19.2518 9.17526 19.4998 9.40915L19.252 9.17501C19.1923 9.23827 19.1589 9.32219 19.1589 9.40915C19.1589 9.42314 19.1634 9.52085 19.1711 9.69027C19.1926 10.1575 19.239 11.1703 19.2855 12.4767C19.3494 14.2715 19.4146 16.6481 19.4202 19.0236C19.4259 21.4016 19.3718 23.7686 19.1988 25.548C19.112 26.4405 18.9969 27.1677 18.8506 27.6702C18.7769 27.9232 18.7012 28.0981 18.6308 28.2051C18.6199 28.2216 18.6099 28.2354 18.601 28.2468C18.579 28.2133 18.553 28.1679 18.5237 28.1079C18.4153 27.886 18.3004 27.5447 18.1838 27.1033C17.952 26.2261 17.7311 25.0245 17.5355 23.7659C17.1481 21.2727 16.8661 18.5987 16.7952 17.8921V17.7728C16.7952 17.5845 16.6426 17.4319 16.4543 17.4319C16.266 17.4319 16.1134 17.5845 16.1134 17.7728V17.9493C16.0904 18.6811 15.977 21.4496 15.723 24.0349C15.5955 25.3327 15.4337 26.572 15.2329 27.482C15.1319 27.9398 15.0251 28.2949 14.9166 28.5284C14.8813 28.6043 14.8495 28.6592 14.8229 28.6976C14.7663 28.6157 14.7019 28.483 14.6414 28.3013C14.5818 28.1227 14.3888 28.0262 14.2102 28.0857C14.0315 28.1453 13.935 28.3383 13.9946 28.517C14.0684 28.7385 14.161 28.9441 14.2735 29.1016C14.3737 29.2419 14.5535 29.4319 14.818 29.4319C15.0182 29.4319 15.1723 29.3273 15.2774 29.2171C15.3816 29.1078 15.4652 28.9657 15.5349 28.8158C15.6751 28.5142 15.7945 28.1015 15.8987 27.6289C16.1085 26.6781 16.2734 25.406 16.4016 24.1016C16.4728 23.3764 16.5331 22.6375 16.5834 21.9326C16.6679 22.5658 16.7613 23.2241 16.8618 23.8706C17.0582 25.1347 17.2834 26.3649 17.5246 27.2775C17.6444 27.731 17.7728 28.1241 17.9111 28.4071C17.9794 28.547 18.06 28.6809 18.158 28.7826C18.2542 28.8823 18.4119 28.995 18.6216 28.9759L18.623 28.9758C18.8928 28.9501 19.0789 28.7644 19.2003 28.58C19.3249 28.3906 19.4235 28.1413 19.5052 27.8608C19.6696 27.2962 19.7895 26.5184 19.8774 25.614C20.0539 23.7997 20.1077 21.4053 20.1021 19.022C20.0964 16.6361 20.0309 14.2514 19.9669 12.4524C19.9349 11.5528 19.9032 10.7993 19.8796 10.265C19.8678 9.99785 19.858 9.78552 19.8511 9.63729L19.8465 9.53752C19.8948 9.48563 19.9599 9.41551 20.0394 9.32925C20.2234 9.12948 20.4849 8.84301 20.7952 8.49563C21.4154 7.80129 22.2323 6.8617 23.0158 5.88367C23.7971 4.90849 24.5548 3.88346 25.0498 3.02053C25.296 2.5913 25.4884 2.18313 25.5805 1.83031C25.6669 1.49952 25.6942 1.10122 25.4348 0.817253ZM14.7672 28.762C14.7668 28.7622 14.7672 28.7619 14.7672 28.762V28.762ZM18.5461 28.2997C18.5461 28.2997 18.5465 28.2995 18.5474 28.2992L18.5461 28.2997ZM18.6577 28.3178C18.6584 28.3184 18.6588 28.3187 18.6588 28.3187L18.6577 28.3178ZM12.4771 10.2273C12.4771 10.0391 12.6297 9.88642 12.818 9.88642H13.1361C13.3244 9.88642 13.4771 10.0391 13.4771 10.2273C13.4771 10.4156 13.3244 10.5682 13.1361 10.5682H12.818C12.6297 10.5682 12.4771 10.4156 12.4771 10.2273ZM13.5907 11.2046C13.779 11.2046 13.9316 11.3572 13.9316 11.5455V13.7728C13.9316 13.9611 13.779 14.1137 13.5907 14.1137C13.4024 14.1137 13.2498 13.9611 13.2498 13.7728V11.5455C13.2498 11.3572 13.4024 11.2046 13.5907 11.2046ZM3.30622 23.5684C3.49438 23.562 3.65218 23.7092 3.65867 23.8974C3.70404 25.2132 3.78311 26.3882 3.92146 27.2349C3.9911 27.661 4.07251 27.9825 4.16203 28.1922C4.17704 28.2273 4.19141 28.2573 4.20486 28.2826C4.21221 28.2673 4.21989 28.2507 4.22787 28.2327C4.32066 28.0233 4.42013 27.7028 4.52106 27.2934C4.72158 26.4802 4.91289 25.3796 5.07139 24.27C5.09802 24.0836 5.2707 23.9541 5.45708 23.9808C5.64347 24.0074 5.77298 24.1801 5.74636 24.3665C5.58668 25.4842 5.39162 26.6108 5.18305 27.4567C5.07944 27.8769 4.96868 28.2439 4.85124 28.5089C4.7935 28.6392 4.72503 28.7662 4.64108 28.8641C4.56527 28.9526 4.41397 29.0882 4.19574 29.0668C4.01476 29.0513 3.87361 28.9567 3.77203 28.8471C3.67219 28.7394 3.59594 28.6027 3.53497 28.4599C3.41285 28.1739 3.32097 27.7879 3.24856 27.3448C3.10281 26.4528 3.02279 25.2415 2.97726 23.9209C2.97077 23.7327 3.11805 23.5749 3.30622 23.5684ZM6.2004 24.0693C6.3881 24.0546 6.5522 24.1948 6.56692 24.3825C6.65738 25.5359 6.79246 26.691 6.96475 27.5525C7.05145 27.986 7.14429 28.3279 7.23855 28.5545C7.25611 28.5967 7.27264 28.6322 7.2878 28.6618C7.37323 28.4963 7.57609 28.4298 7.74315 28.5133C7.91155 28.5975 7.97981 28.8023 7.89561 28.9707C7.84287 29.0762 7.77414 29.1896 7.67513 29.2776C7.56481 29.3757 7.42839 29.4319 7.27251 29.4319C7.06505 29.4319 6.91817 29.3085 6.83056 29.2043C6.74026 29.0969 6.66849 28.9593 6.60903 28.8164C6.4888 28.5273 6.38561 28.1334 6.29618 27.6862C6.1162 26.7863 5.97855 25.6006 5.88719 24.4358C5.87247 24.2481 6.0127 24.084 6.2004 24.0693Z" fill="#FAFAFA"/>
<path fill-rule="evenodd" clip-rule="evenodd" d="M15.3636 1.25006C14.2967 1.25006 13.4318 2.11496 13.4318 3.18187C13.4318 4.24879 14.2967 5.11369 15.3636 5.11369C16.4305 5.11369 17.2955 4.24879 17.2955 3.18187C17.2955 2.11496 16.4305 1.25006 15.3636 1.25006ZM12.75 3.18187C12.75 1.7384 13.9202 0.568237 15.3636 0.568237C16.8071 0.568237 17.9773 1.7384 17.9773 3.18187C17.9773 4.62535 16.8071 5.79551 15.3636 5.79551C13.9202 5.79551 12.75 4.62535 12.75 3.18187Z" fill="#FAFAFA"/>
<path fill-rule="evenodd" clip-rule="evenodd" d="M3.0189 2.19856C2.9614 2.21132 2.91693 2.24084 2.87722 2.3427C2.82903 2.4663 2.80465 2.66644 2.82103 2.95525C2.85351 3.528 3.03543 4.30561 3.27702 5.16968C3.39678 5.59799 3.52906 6.04036 3.66136 6.48179L3.67644 6.5321C3.80336 6.95552 3.92991 7.37771 4.04318 7.77985C4.27541 8.60429 4.46457 9.38603 4.47703 9.94709L4.47708 9.94907C4.48933 10.6971 4.26573 11.748 3.94333 12.8731C3.618 14.0086 3.1812 15.2554 2.74489 16.4104C2.30827 17.5661 1.87047 18.6342 1.54194 19.4131C1.37763 19.8027 1.24053 20.1202 1.14444 20.3405C1.09639 20.4507 1.05858 20.5365 1.03274 20.595L1.01634 20.6319C1.01246 20.7919 1.10666 20.9932 1.40506 21.2342C1.72391 21.4916 2.21314 21.7389 2.82482 21.9575C4.04328 22.3931 5.65679 22.6836 7.10647 22.7505C7.29455 22.7592 7.43998 22.9187 7.4313 23.1067C7.42262 23.2948 7.26311 23.4403 7.07504 23.4316C5.57017 23.3621 3.88822 23.0617 2.59532 22.5995C1.95132 22.3693 1.3809 22.091 0.976726 21.7646C0.578419 21.443 0.274977 21.0163 0.343744 20.5005C0.348082 20.468 0.357097 20.4362 0.37051 20.4063L0.681663 20.5456C0.37051 20.4063 0.370493 20.4063 0.37051 20.4063L0.380243 20.3845L0.409178 20.3192C0.434583 20.2618 0.471926 20.177 0.51949 20.0679C0.614623 19.8498 0.750612 19.5349 0.913715 19.1482C1.24002 18.3745 1.67437 17.3148 2.10707 16.1694C2.54008 15.0232 2.96976 13.7956 3.28789 12.6853C3.6088 11.5654 3.80561 10.5996 3.79536 9.96125C3.78489 9.49956 3.62184 8.79876 3.3869 7.96471C3.2752 7.56815 3.15011 7.15082 3.02265 6.72558L3.00825 6.67754C2.87617 6.23686 2.74211 5.78861 2.62039 5.35328C2.37904 4.49008 2.17743 3.64837 2.14031 2.99385C2.12188 2.66902 2.14119 2.35353 2.24197 2.09503C2.35026 1.81727 2.55884 1.59713 2.88564 1.52985L2.89339 1.52825C3.22111 1.46867 3.5065 1.60895 3.7311 1.80374C3.95361 1.99671 4.15552 2.27466 4.34185 2.58791C4.71559 3.21626 5.08142 4.08289 5.44572 4.96681C5.4832 5.05776 5.52071 5.14899 5.55824 5.2403C5.89018 6.04771 6.22491 6.86192 6.57629 7.55903C6.97506 8.35018 7.36234 8.91986 7.73603 9.1721L7.74083 9.17534C8.11633 9.43819 8.80785 9.60422 9.71222 9.70091C10.5861 9.79435 11.5885 9.81764 12.5569 9.84015L12.5947 9.84103H13.5908C13.779 9.84103 13.9317 9.99366 13.9317 10.1819C13.9317 10.3702 13.779 10.5228 13.5908 10.5228H12.5828L12.526 10.5214C11.5688 10.4992 10.5422 10.4754 9.63974 10.3789C8.73864 10.2825 7.88594 10.108 7.3522 9.73562C6.81783 9.3737 6.36495 8.65457 5.96744 7.86592C5.60342 7.14373 5.25825 6.30394 4.92827 5.50112C4.89043 5.40906 4.85279 5.31747 4.81534 5.22661C4.44668 4.33212 4.09944 3.51409 3.75586 2.93647C3.58352 2.64674 3.4257 2.44138 3.28439 2.31883C3.14858 2.20105 3.06672 2.191 3.0189 2.19856Z" fill="#FAFAFA"/>
<path fill-rule="evenodd" clip-rule="evenodd" d="M8.08438 15.8005C8.60532 16.1146 9.10258 16.4023 9.54609 16.597C9.71849 16.6727 9.79689 16.8738 9.7212 17.0462C9.64551 17.2186 9.4444 17.297 9.27201 17.2213C8.7837 17.007 8.25255 16.6981 7.7323 16.3844C7.61345 16.3127 7.49522 16.2408 7.37786 16.1695C6.97404 15.9239 6.5804 15.6846 6.20652 15.4815C5.71884 15.2165 5.30529 15.0364 4.98652 14.9826C4.83062 14.9562 4.72105 14.9645 4.64591 14.9894C4.57908 15.0115 4.52221 15.0519 4.47212 15.1333L4.46562 15.1439C4.42239 15.2087 4.4004 15.3021 4.44468 15.4624C4.49087 15.6296 4.60203 15.8373 4.78202 16.0793C5.14064 16.5614 5.71179 17.1003 6.3309 17.6124C6.94589 18.1212 7.59088 18.5896 8.08359 18.9317C8.32958 19.1025 8.53678 19.2412 8.68223 19.3371C8.75493 19.385 8.81216 19.4222 8.85103 19.4472L8.89519 19.4756L8.90627 19.4827L8.90893 19.4844C8.90893 19.4844 8.90893 19.4844 8.90893 19.4844M8.08438 15.8005C7.97103 15.7321 7.85645 15.6625 7.74133 15.5925L8.08438 15.8005ZM7.74133 15.5925C7.33503 15.3454 6.92196 15.0942 6.53204 14.8824L7.74133 15.5925ZM6.53204 14.8824C6.03676 14.6133 5.53838 14.3843 5.10004 14.3103L6.53204 14.8824ZM5.10004 14.3103C4.87739 14.2727 4.64712 14.2708 4.4316 14.3421L5.10004 14.3103ZM4.4316 14.3421C4.20957 14.4156 4.02614 14.5596 3.89463 14.7708L4.4316 14.3421ZM3.89463 14.7708C3.714 15.0456 3.70798 15.3562 3.78748 15.644C3.86558 15.9267 4.03141 16.2126 4.23494 16.4862C4.64337 17.0353 5.2654 17.6159 5.89629 18.1378C6.5313 18.6631 7.19313 19.1435 7.69474 19.4918C7.94591 19.6662 8.15774 19.808 8.30704 19.9064C8.3817 19.9556 8.44078 19.994 8.48136 20.0201L8.52803 20.0501L8.5403 20.058L8.54355 20.06L8.54444 20.0606C8.54451 20.0606 8.54483 20.0608 8.72723 19.7728M16.6304 17.4579C16.7578 17.5106 16.8409 17.6349 16.8409 17.7728V17.9092C16.8409 18.0673 16.7322 18.2047 16.5783 18.241C16.4244 18.2773 16.2657 18.2031 16.195 18.0616C16.1392 17.95 16.125 17.8328 16.1522 17.7242C16.1648 17.6736 16.1847 17.6323 16.2045 17.6007C16.2144 17.5849 16.2243 17.5713 16.2335 17.56C16.2381 17.5543 16.2426 17.5491 16.2468 17.5444L16.2531 17.5378L16.256 17.5347L16.2575 17.5332L16.2582 17.5325C16.2584 17.5323 16.2589 17.5318 16.5 17.7728L16.2589 17.5318C16.3564 17.4343 16.503 17.4051 16.6304 17.4579ZM16.5909 17.8637C16.6079 17.8807 16.623 17.8958 16.6364 17.9092C16.7411 18.0138 16.7412 18.0137 16.7414 18.0135L16.7424 18.0125L16.7438 18.011L16.7466 18.0082L16.7521 18.0023C16.7557 17.9983 16.7592 17.9942 16.7627 17.9899C16.7696 17.9814 16.7763 17.9721 16.7827 17.962C16.7923 17.9466 16.8011 17.929 16.8079 17.9092C16.81 17.9029 16.812 17.8963 16.8136 17.8896C16.8262 17.8393 16.8198 17.798 16.8114 17.7728C16.8093 17.7664 16.807 17.761 16.8049 17.7567L16.5909 17.8637Z" fill="#FAFAFA"/>
<path fill-rule="evenodd" clip-rule="evenodd" d="M17.1278 14.0118C16.9287 13.7644 16.6656 13.6401 16.3743 13.619C16.0972 13.599 15.8083 13.6725 15.5306 13.7849C14.9771 14.0087 14.3503 14.4368 13.7368 14.8835C13.5552 15.0158 13.3743 15.15 13.1948 15.2832C12.7525 15.6113 12.3185 15.9333 11.9025 16.2046C11.3052 16.5942 10.8239 16.8239 10.4825 16.8414C10.3345 16.8494 10.1389 16.8151 9.89434 16.7304C9.65277 16.6468 9.38269 16.5214 9.08994 16.3664C8.67813 16.1483 8.24545 15.8851 7.80282 15.6159C7.61003 15.4986 7.41535 15.3802 7.21969 15.2638C6.59188 14.8906 5.94912 14.5358 5.39174 14.3743C5.11161 14.2932 4.82292 14.2514 4.5531 14.3012C4.26933 14.3534 4.02451 14.5043 3.85201 14.7666C3.66865 15.0424 3.66216 15.3547 3.74207 15.6439C3.82017 15.9267 3.986 16.2125 4.18953 16.4862C4.59796 17.0353 5.21999 17.6158 5.85088 18.1377C6.48589 18.6631 7.14772 19.1435 7.64933 19.4917C7.9005 19.6661 8.11233 19.8079 8.26163 19.9063C8.28297 19.9204 8.30303 19.9336 8.32176 19.9458C8.31638 20.0012 8.31013 20.0669 8.30321 20.1418C8.27951 20.3985 8.24788 20.7648 8.21609 21.2041C8.15256 22.0821 8.0881 23.2555 8.08523 24.431C8.08238 25.6015 8.14034 26.795 8.32883 27.7042C8.42251 28.156 8.5539 28.5662 8.74533 28.8716C8.93953 29.1815 9.23038 29.4319 9.63637 29.4319C9.92342 29.4319 10.149 29.2842 10.313 29.0967C10.4732 28.9136 10.5951 28.6718 10.6914 28.4152C10.8362 28.0289 10.9417 27.5566 11.0194 27.0731C11.1237 27.5597 11.2486 28.0331 11.3962 28.4177C11.4928 28.6692 11.6068 28.9037 11.7448 29.0813C11.878 29.2529 12.0825 29.4319 12.3636 29.4319C12.7701 29.4319 13.0128 29.0873 13.1527 28.7946C13.3068 28.4721 13.4239 28.0344 13.5162 27.5415C13.7019 26.5494 13.8035 25.2398 13.8577 23.9461C13.912 22.6489 13.9191 21.3532 13.9126 20.3827C13.9094 19.8973 13.9028 19.4926 13.897 19.2092C13.8947 19.0953 13.8925 19.001 13.8907 18.9288C13.9076 18.9146 13.9261 18.899 13.9459 18.8821C14.0615 18.784 14.2253 18.6429 14.4187 18.4703C14.805 18.1257 15.3128 17.6527 15.7935 17.1431C16.2705 16.6373 16.7366 16.079 17.0258 15.5649C17.17 15.3087 17.2825 15.0422 17.3195 14.7844C17.3574 14.5207 17.3183 14.2422 17.1278 14.0118ZM13.3298 18.5088L13.3323 18.5067L13.3407 18.4998L13.3747 18.4716C13.4046 18.4467 13.4487 18.4098 13.5047 18.3623C13.6167 18.2672 13.7762 18.1299 13.9648 17.9616C14.3428 17.6244 14.835 17.1656 15.2975 16.6752C15.7636 16.181 16.1838 15.6711 16.4316 15.2306C16.5559 15.0096 16.6245 14.8273 16.6446 14.6873C16.6638 14.5543 16.6366 14.4874 16.6017 14.4456L16.5974 14.4403C16.524 14.3486 16.4399 14.3074 16.3251 14.2991C16.1951 14.2896 16.0177 14.3233 15.7862 14.4169C15.3212 14.605 14.7576 14.9837 14.1382 15.4347C13.9683 15.5584 13.7944 15.6874 13.6188 15.8177C13.1698 16.1508 12.7093 16.4924 12.275 16.7756C11.6836 17.1614 11.0628 17.4942 10.5179 17.5223C10.2456 17.5369 9.95614 17.4733 9.67136 17.3748C9.38346 17.2751 9.07897 17.1321 8.77086 16.9689C8.34035 16.741 7.87894 16.4603 7.42813 16.1861C7.23963 16.0715 7.05299 15.958 6.87123 15.8499C6.23767 15.4732 5.66453 15.1632 5.20202 15.0292C4.9722 14.9626 4.79995 14.949 4.67667 14.9717C4.56769 14.9918 4.48748 15.0409 4.42138 15.1416L4.42003 15.1437C4.3768 15.2086 4.35499 15.3021 4.39927 15.4624C4.44546 15.6296 4.55662 15.8373 4.73661 16.0793C5.09523 16.5614 5.66638 17.1002 6.28549 17.6124C6.90048 18.1211 7.54547 18.5896 8.03818 18.9317C8.28417 19.1025 8.49137 19.2412 8.63682 19.337C8.70952 19.3849 8.76675 19.4221 8.80562 19.4472L8.84978 19.4756L8.86086 19.4826L8.86352 19.4843C8.86352 19.4843 8.86352 19.4843 8.86352 19.4843M13.3298 18.5088C13.3298 18.5088 13.3298 18.5088 13.3298 18.5088C13.3298 18.5088 13.3297 18.5088 13.5455 18.7728L13.3298 18.5088ZM13.5455 18.7728C13.2047 18.7833 13.2047 18.7833 13.2047 18.7834L13.2056 18.8121L13.2079 18.8975C13.2098 18.9725 13.2125 19.0827 13.2154 19.2231C13.2211 19.5039 13.2277 19.9054 13.2308 20.3872C13.2372 21.3515 13.2301 22.6353 13.1764 23.9176C13.1226 25.2035 13.0225 26.4735 12.846 27.416C12.7572 27.8905 12.6531 28.2588 12.5375 28.5006C12.4502 28.6832 12.3875 28.733 12.3653 28.7461C12.3514 28.7373 12.3238 28.7153 12.2833 28.6631C12.205 28.5623 12.1194 28.3991 12.0328 28.1733C11.8608 27.7254 11.7147 27.1134 11.5964 26.4827C11.4789 25.856 11.3919 25.2274 11.3341 24.7542C11.3053 24.518 11.2839 24.3212 11.2697 24.1838C11.2626 24.1151 11.2573 24.0612 11.2538 24.0247L11.2499 23.9833L11.2489 23.9729L11.2487 23.9704C11.2325 23.7887 11.0761 23.6514 10.8939 23.6595C10.7117 23.6676 10.5682 23.8177 10.5682 24M10.5682 24L10.5682 24.0031L10.5681 24.0133L10.5679 24.0544C10.5676 24.0907 10.567 24.1443 10.5658 24.2127C10.5633 24.3496 10.5584 24.5458 10.5486 24.7813C10.5289 25.2533 10.4897 25.8795 10.4117 26.5032C10.3331 27.1321 10.2177 27.7366 10.053 28.1758C9.9702 28.3965 9.88331 28.5524 9.79991 28.6477C9.72034 28.7387 9.66749 28.7501 9.63637 28.7501C9.55372 28.7501 9.44826 28.7093 9.32304 28.5095C9.19504 28.3053 9.08389 27.9875 8.99646 27.5658C8.82274 26.7279 8.76422 25.5918 8.76705 24.4327C8.76986 23.2787 8.83324 22.1225 8.89613 21.2534C8.92755 20.8191 8.95878 20.4574 8.98214 20.2045C8.99381 20.0781 9.00351 19.9789 9.01027 19.9115L9.0181 19.8348L9.02013 19.8154L9.02075 19.8094C9.02076 19.8094 9.02078 19.8092 8.68182 19.7728" fill="#FAFAFA"/>
<path fill-rule="evenodd" clip-rule="evenodd" d="M10.5452 12.6591C9.80462 12.6591 9.20428 13.2595 9.20428 14C9.20428 14.7406 9.80462 15.3409 10.5452 15.3409C11.2858 15.3409 11.8861 14.7406 11.8861 14C11.8861 13.2595 11.2858 12.6591 10.5452 12.6591ZM8.52246 14C8.52246 12.8829 9.42807 11.9773 10.5452 11.9773C11.6623 11.9773 12.5679 12.8829 12.5679 14C12.5679 15.1171 11.6623 16.0227 10.5452 16.0227C9.42807 16.0227 8.52246 15.1171 8.52246 14Z" fill="#FAFAFA"/>
<path fill-rule="evenodd" clip-rule="evenodd" d="M9.68151 4.15911C8.61459 4.15911 7.74969 5.02402 7.74969 6.09093C7.74969 7.15784 8.61459 8.02275 9.68151 8.02275C10.7484 8.02275 11.6133 7.15784 11.6133 6.09093C11.6133 5.02402 10.7484 4.15911 9.68151 4.15911ZM7.06787 6.09093C7.06787 4.64746 8.23804 3.47729 9.68151 3.47729C11.125 3.47729 12.2951 4.64746 12.2951 6.09093C12.2951 7.5344 11.125 8.70457 9.68151 8.70457C8.23804 8.70457 7.06787 7.5344 7.06787 6.09093Z" fill="#FAFAFA"/>
</svg>
