<svg width="80" height="80" viewBox="0 0 80 80" fill="none" xmlns="http://www.w3.org/2000/svg">
<path d="M73.8931 35H70.0011C69.7794 34.1974 69.3024 33.4889 68.6423 32.9814C67.9822 32.474 67.1748 32.1953 66.3422 32.1875H62.1875V22.0275C62.1922 21.8374 62.1462 21.6495 62.0544 21.4831C61.9625 21.3166 61.828 21.1776 61.6647 21.0803L32.3558 4.15184C32.1906 4.05583 32.0029 4.00525 31.8119 4.00525C31.6208 4.00525 31.4332 4.05583 31.268 4.15184L1.95001 21.0803C1.78412 21.1764 1.64651 21.3146 1.55105 21.4809C1.45558 21.6472 1.40564 21.8357 1.40626 22.0275V55.8845C1.40626 56.0765 1.4568 56.2651 1.5528 56.4314C1.64879 56.5976 1.78686 56.7357 1.95313 56.8317L31.2741 73.7601C31.4403 73.8561 31.6289 73.9067 31.8209 73.9067C32.0179 73.9068 32.2116 73.8563 32.3834 73.7601L47.8125 64.8606V71.294C47.8109 71.9065 47.9308 72.5133 48.1653 73.0791C48.3998 73.645 48.7442 74.1587 49.1786 74.5906C49.6129 75.0224 50.1286 75.3638 50.6958 75.595C51.2631 75.8262 51.8705 75.9426 52.483 75.9375H73.8931C74.5072 75.9432 75.1163 75.8274 75.6855 75.5968C76.2546 75.3661 76.7726 75.0252 77.2095 74.5937C77.6463 74.1621 77.9936 73.6484 78.2311 73.0821C78.4687 72.5158 78.5919 71.9081 78.5938 71.294V39.7159C78.593 38.468 78.098 37.2713 77.2171 36.3875C76.3361 35.5036 75.141 35.0048 73.8931 35ZM66.3811 34.375C66.8022 34.375 67.206 34.5422 67.5037 34.84C67.8015 35.1377 67.9688 35.5416 67.9688 35.9626V36.0686C67.9688 36.4896 67.8015 36.8935 67.5037 37.1912C67.206 37.4889 66.8022 37.6562 66.3811 37.6562H60.0252C59.6041 37.6562 59.2003 37.4889 58.9025 37.1912C58.6048 36.8935 58.4375 36.4896 58.4375 36.0686V35.9626C58.4375 35.5416 58.6048 35.1377 58.9025 34.84C59.2003 34.5422 59.6041 34.375 60.0252 34.375H66.3811ZM31.8209 6.362L44.0044 13.3961L16.8728 29.0604L4.68954 22.0264L31.8209 6.362ZM30.7813 70.9184L3.59376 55.2529V23.9195L30.7813 39.585V70.9184ZM31.8209 37.6906L19.0603 30.3232L46.1919 14.659L58.9531 22.0264L31.8209 37.6906ZM47.8125 39.7159V62.3348L32.9688 70.9184V39.585L60 23.9195V32.1875H60.0339C59.2013 32.1953 58.3939 32.474 57.7338 32.9814C57.0737 33.4888 56.5967 34.1974 56.375 35H52.483C51.2383 35.006 50.0469 35.5063 49.171 36.3907C48.2952 37.2751 47.8065 38.4712 47.8125 39.7159ZM76.4063 71.294C76.4048 71.621 76.3383 71.9443 76.2108 72.2454C76.0832 72.5464 75.8971 72.8191 75.6633 73.0476C75.4295 73.2761 75.1526 73.4559 74.8487 73.5764C74.5448 73.697 74.22 73.756 73.8931 73.75H52.483C52.1577 73.7555 51.8346 73.6959 51.5326 73.5747C51.2307 73.4536 50.956 73.2733 50.7246 73.0445C50.4933 72.8157 50.3101 72.543 50.1856 72.2424C50.0612 71.9418 49.9981 71.6194 50 71.294V39.7159C49.9967 39.3868 50.0583 39.0602 50.1814 38.7549C50.3045 38.4496 50.4865 38.1716 50.7171 37.9368C50.9478 37.7019 51.2224 37.5148 51.5254 37.3863C51.8284 37.2577 52.1538 37.1901 52.483 37.1875H56.4177C56.6522 37.9617 57.1314 38.639 57.7834 39.1179C58.4354 39.5968 59.225 39.8514 60.0339 39.8437H66.3422C67.1511 39.8515 67.9407 39.5968 68.5927 39.1179C69.2446 38.639 69.7238 37.9617 69.9583 37.1875H73.8931C74.561 37.1917 75.2001 37.4599 75.6709 37.9336C76.1418 38.4073 76.4061 39.048 76.4063 39.7159V71.294Z" fill="#F5AC01"/>
<path d="M53.7421 50.7812H54.8869C55.177 50.7812 55.4552 50.666 55.6603 50.4609C55.8655 50.2558 55.9807 49.9776 55.9807 49.6875C55.9807 49.3974 55.8655 49.1192 55.6603 48.9141C55.4552 48.709 55.177 48.5938 54.8869 48.5938H54.8438V45.625H57.8605C57.9292 45.8449 58.0681 46.0362 58.2559 46.1697C58.4437 46.3031 58.6701 46.3712 58.9004 46.3636C59.1908 46.3644 59.4697 46.2499 59.6759 46.0454C59.882 45.8408 59.9986 45.5628 60.0001 45.2723V44.5364C59.9976 44.2446 59.8801 43.9655 59.6731 43.7597C59.4661 43.554 59.1863 43.4382 58.8945 43.4375H53.7421C53.5986 43.4382 53.4567 43.4673 53.3244 43.5229C53.1922 43.5786 53.0722 43.6597 52.9713 43.7618C52.8705 43.8639 52.7908 43.9848 52.7367 44.1177C52.6826 44.2507 52.6553 44.3929 52.6563 44.5364V49.6887C52.6555 49.8319 52.6829 49.9738 52.7371 50.1063C52.7913 50.2388 52.8711 50.3593 52.972 50.4608C53.0729 50.5623 53.1929 50.6429 53.3251 50.6979C53.4572 50.7529 53.599 50.7812 53.7421 50.7812ZM53.7501 60.7812H58.9063C59.1964 60.7812 59.4746 60.666 59.6797 60.4609C59.8848 60.2558 60.0001 59.9776 60.0001 59.6875V54.5312C60.0001 54.2412 59.8848 53.963 59.6797 53.7579C59.4746 53.5527 59.1964 53.4375 58.9063 53.4375H53.7501C53.46 53.4375 53.1818 53.5527 52.9767 53.7579C52.7716 53.963 52.6563 54.2412 52.6563 54.5312V59.6875C52.6563 59.9776 52.7716 60.2558 52.9767 60.4609C53.1818 60.666 53.46 60.7812 53.7501 60.7812ZM54.8438 55.625H57.8126V58.5938H54.8438V55.625ZM54.8871 68.5938H54.8438V65.625H57.8015C57.8071 65.9126 57.9253 66.1866 58.1306 66.3881C58.3359 66.5896 58.612 66.7027 58.8997 66.7029C59.1874 66.7032 59.4637 66.5908 59.6694 66.3896C59.8752 66.1885 59.9939 65.9148 60.0001 65.6272V64.5733C59.999 64.2776 59.883 63.9939 59.6768 63.782C59.4705 63.5701 59.19 63.4466 58.8945 63.4375H53.7421C53.4486 63.4474 53.1706 63.5718 52.9677 63.784C52.7647 63.9963 52.653 64.2796 52.6563 64.5733V69.7256C52.6562 69.8668 52.6844 70.0067 52.7393 70.1368C52.7942 70.2669 52.8746 70.3847 52.9759 70.4831C53.0772 70.5816 53.1972 70.6587 53.3288 70.7099C53.4604 70.7611 53.6009 70.7854 53.7421 70.7812H54.8871C55.1772 70.7812 55.4554 70.666 55.6605 70.4609C55.8656 70.2558 55.9809 69.9776 55.9809 69.6875C55.9809 69.3974 55.8656 69.1192 55.6605 68.9141C55.4554 68.709 55.1772 68.5938 54.8871 68.5938Z" fill="#F5AC01"/>
<path d="M61.4129 44.7799L58.2098 47.9831L57.2354 47.0085C57.1338 46.907 57.0133 46.8264 56.8806 46.7714C56.7478 46.7165 56.6056 46.6882 56.462 46.6882C56.3183 46.6882 56.1761 46.7165 56.0434 46.7714C55.9107 46.8264 55.7901 46.907 55.6885 47.0085C55.587 47.1101 55.5064 47.2307 55.4514 47.3634C55.3965 47.4961 55.3682 47.6383 55.3682 47.782C55.3682 47.9256 55.3965 48.0679 55.4514 48.2006C55.5064 48.3333 55.587 48.4538 55.6885 48.5554L57.4365 50.3032C57.5381 50.4048 57.6586 50.4854 57.7914 50.5403C57.9241 50.5953 58.0663 50.6236 58.2099 50.6236C58.3536 50.6236 58.4958 50.5953 58.6285 50.5403C58.7612 50.4854 58.8818 50.4048 58.9834 50.3032L62.9602 46.3264C63.1654 46.1212 63.2806 45.843 63.2806 45.5529C63.2806 45.2628 63.1654 44.9846 62.9602 44.7795C62.7551 44.5743 62.4769 44.4591 62.1868 44.4591C61.8967 44.4591 61.6185 44.5743 61.4134 44.7795L61.4129 44.7799ZM61.4129 64.9751L58.2098 68.1782L57.2354 67.2037C57.1338 67.1021 57.0133 67.0216 56.8806 66.9666C56.7478 66.9116 56.6056 66.8833 56.462 66.8833C56.3183 66.8833 56.1761 66.9116 56.0434 66.9666C55.9107 67.0216 55.7901 67.1021 55.6885 67.2037C55.587 67.3053 55.5064 67.4258 55.4514 67.5586C55.3965 67.6913 55.3682 67.8335 55.3682 67.9771C55.3682 68.1208 55.3965 68.263 55.4514 68.3957C55.5064 68.5284 55.587 68.649 55.6885 68.7506L57.4365 70.4984C57.5381 70.6 57.6586 70.6805 57.7914 70.7355C57.9241 70.7905 58.0663 70.8188 58.2099 70.8188C58.3536 70.8188 58.4958 70.7905 58.6285 70.7355C58.7612 70.6805 58.8818 70.6 58.9834 70.4984L62.9602 66.5215C63.1654 66.3164 63.2806 66.0382 63.2806 65.7481C63.2806 65.458 63.1654 65.1798 62.9602 64.9746C62.7551 64.7695 62.4769 64.6543 62.1868 64.6543C61.8967 64.6543 61.6185 64.7695 61.4134 64.9746L61.4129 64.9751ZM72.6342 46.0937H65.7645C65.4744 46.0937 65.1962 46.2089 64.9911 46.414C64.786 46.6192 64.6707 46.8974 64.6707 47.1874C64.6707 47.4775 64.786 47.7557 64.9911 47.9608C65.1962 48.166 65.4744 48.2812 65.7645 48.2812H72.6342C72.9242 48.2812 73.2024 48.166 73.4076 47.9608C73.6127 47.7557 73.7279 47.4775 73.7279 47.1874C73.7279 46.8974 73.6127 46.6192 73.4076 46.414C73.2024 46.2089 72.9242 46.0937 72.6342 46.0937ZM72.6342 56.0937H65.7645C65.4744 56.0937 65.1962 56.2089 64.9911 56.414C64.786 56.6192 64.6707 56.8974 64.6707 57.1874C64.6707 57.4775 64.786 57.7557 64.9911 57.9608C65.1962 58.166 65.4744 58.2812 65.7645 58.2812H72.6342C72.9242 58.2812 73.2024 58.166 73.4076 57.9608C73.6127 57.7557 73.7279 57.4775 73.7279 57.1874C73.7279 56.8974 73.6127 56.6192 73.4076 56.414C73.2024 56.2089 72.9242 56.0937 72.6342 56.0937ZM72.6342 66.0937H65.7645C65.4744 66.0937 65.1962 66.2089 64.9911 66.414C64.786 66.6192 64.6707 66.8974 64.6707 67.1874C64.6707 67.4775 64.786 67.7557 64.9911 67.9608C65.1962 68.166 65.4744 68.2812 65.7645 68.2812H72.6342C72.9242 68.2812 73.2024 68.166 73.4076 67.9608C73.6127 67.7557 73.7279 67.4775 73.7279 67.1874C73.7279 66.8974 73.6127 66.6192 73.4076 66.414C73.2024 66.2089 72.9242 66.0937 72.6342 66.0937Z" fill="#F5AC01"/>
</svg>
