<svg width="20" height="22" viewBox="0 0 20 22" fill="none" xmlns="http://www.w3.org/2000/svg">
<path d="M14.9569 21.9623H0.837773C0.477722 21.9623 0.194824 21.6794 0.194824 21.3193V0.680669C0.194824 0.320617 0.477722 0.0377197 0.837773 0.0377197H14.9312C15.2913 0.0377197 15.5742 0.320617 15.5742 0.680669V21.3065C15.587 21.6665 15.2913 21.9623 14.9569 21.9623ZM0.837773 0.552079C0.760619 0.552079 0.709183 0.629233 0.709183 0.680669V21.3065C0.709183 21.3836 0.773478 21.4351 0.837773 21.4351H14.9312C15.0084 21.4351 15.0598 21.3579 15.0598 21.3065V0.680669C15.0598 0.629233 15.0084 0.552079 14.9312 0.552079H0.837773Z" fill="#FAFAFA"/>
<path d="M15.2913 21.9622C14.6226 21.9622 14.7898 21.3579 15.1498 21.435H15.3427C15.3556 21.4093 15.3813 21.3964 15.3941 21.3579L19.3033 2.31371C19.3161 2.26227 19.2776 2.19798 19.2133 2.19798L15.2913 1.38786C14.9569 1.31071 15.0727 0.822069 15.3941 0.899223L19.3161 1.69648C19.6633 1.77363 19.8691 2.08225 19.8048 2.42944L15.8957 21.4607C15.8314 21.7693 15.5613 21.9622 15.2913 21.9622ZM13.2081 5.81135H2.59946C2.45802 5.81135 2.34229 5.70848 2.34229 5.56703V2.78949C2.34229 2.63518 2.45802 2.53231 2.59946 2.53231H13.2081C13.3496 2.53231 13.4524 2.63518 13.4524 2.78949V5.54131C13.4524 5.69562 13.3496 5.81135 13.2081 5.81135ZM2.84379 5.29699H12.9381V3.04667H2.84379V5.29699ZM13.1181 7.9588H2.66376C2.34229 7.9588 2.34229 7.4573 2.66376 7.4573H13.0924C13.4267 7.4573 13.4267 7.9588 13.1181 7.9588ZM13.1181 10.042H2.66376C2.34229 10.042 2.34229 9.54046 2.66376 9.54046H13.0924C13.4267 9.54046 13.4267 10.042 13.1181 10.042ZM13.1181 12.138H2.66376C2.34229 12.138 2.34229 11.6493 2.66376 11.6493H13.0924C13.4267 11.6493 13.4267 12.138 13.1181 12.138ZM13.1181 14.2468H2.66376C2.34229 14.2468 2.34229 13.7453 2.66376 13.7453H13.0924C13.4267 13.7453 13.4267 14.2468 13.1181 14.2468ZM6.30285 19.9691H2.66376C2.52231 19.9691 2.41944 19.8662 2.41944 19.7248V16.0857C2.41944 15.9442 2.52231 15.8285 2.66376 15.8285H6.30285C6.4443 15.8285 6.56003 15.9442 6.56003 16.0857V19.7248C6.56003 19.8662 6.4443 19.9691 6.30285 19.9691ZM2.9338 19.4547H6.05853V16.33H2.9338V19.4547ZM13.1181 16.33H8.4503C8.29599 16.33 8.19312 16.2271 8.19312 16.0857C8.19312 15.9442 8.29599 15.8285 8.4503 15.8285H13.0924C13.2338 15.8285 13.3496 15.9442 13.3496 16.0857C13.3496 16.2271 13.2596 16.33 13.1181 16.33ZM13.1181 19.9691H8.4503C8.29599 19.9691 8.19312 19.8662 8.19312 19.7248C8.19312 19.5833 8.29599 19.4676 8.4503 19.4676H13.0924C13.2338 19.4676 13.3496 19.5833 13.3496 19.7248C13.3496 19.8662 13.2596 19.9691 13.1181 19.9691ZM13.1181 18.156H8.4503C8.29599 18.156 8.19312 18.0402 8.19312 17.8988C8.19312 17.7573 8.29599 17.6545 8.4503 17.6545H13.0924C13.2338 17.6545 13.3496 17.7573 13.3496 17.8988C13.3496 18.0402 13.2596 18.156 13.1181 18.156Z" fill="#FAFAFA"/>
</svg>
