<svg width="50" height="50" viewBox="0 0 50 50" fill="none" xmlns="http://www.w3.org/2000/svg">
<g clip-path="url(#clip0_1855_893)">
<path d="M25 16.6797C20.4122 16.6797 16.6797 20.4122 16.6797 25C16.6797 29.5878 20.4122 33.3203 25 33.3203C29.5878 33.3203 33.3203 29.5878 33.3203 25C33.3203 20.4122 29.5878 16.6797 25 16.6797ZM25 32.1484C21.0583 32.1484 17.8516 28.9417 17.8516 25C17.8516 21.0583 21.0583 17.8516 25 17.8516C28.9417 17.8516 32.1484 21.0583 32.1484 25C32.1484 28.9417 28.9417 32.1484 25 32.1484ZM39.6889 10.0684C39.595 10.0186 39.4892 9.9952 39.383 10.0008C39.2768 10.0064 39.1741 10.0409 39.086 10.1004C36.2095 12.044 34.4922 15.277 34.4922 18.7486V26.3512C34.4922 27.1667 34.8098 27.9333 35.3863 28.5099L36.4844 29.608V38.2422C36.4844 39.2114 37.2729 40 38.2422 40C39.2114 40 40 39.2114 40 38.2422V10.5859C40 10.3692 39.8804 10.1702 39.6889 10.0684ZM38.8281 38.2422C38.8281 38.5653 38.5653 38.8281 38.2422 38.8281C37.9191 38.8281 37.6562 38.5653 37.6562 38.2422V29.3652C37.6562 29.2098 37.5945 29.0608 37.4846 28.9509L36.215 27.6812C35.8597 27.326 35.6641 26.8537 35.6641 26.3512V18.7486C35.6641 16.0544 36.829 13.5224 38.8281 11.7752V38.2422Z" fill="#FAFAFA"/>
<path d="M23.6557 20.3531C23.5287 20.0555 23.1843 19.9173 22.8868 20.0443C21.9151 20.458 21.0867 21.1485 20.5047 22.0297C19.9227 22.9109 19.6129 23.9439 19.6138 25C19.6138 25.3236 19.8761 25.5859 20.1997 25.5859C20.5233 25.5859 20.7856 25.3236 20.7856 25C20.7849 24.1736 21.0274 23.3653 21.4828 22.6757C21.9383 21.9861 22.5866 21.4458 23.3469 21.1221C23.6445 20.9951 23.7828 20.6508 23.6557 20.3531ZM25 19.6138L24.9704 19.6138C24.6468 19.616 24.3862 19.8801 24.3884 20.2037C24.3906 20.526 24.6525 20.7857 24.9743 20.7857H24.9783L25 20.7856C25.3236 20.7856 25.5859 20.5233 25.5859 20.1997C25.5859 19.8761 25.3236 19.6138 25 19.6138ZM33.1224 17.2937C32.0872 16.2029 30.8669 15.3446 29.4955 14.7428C28.0755 14.1196 26.5629 13.8036 25 13.8036C23.2141 13.8036 21.5069 14.2117 19.9259 15.0168C19.6376 15.1636 19.5228 15.5164 19.6696 15.8048C19.8165 16.0931 20.1693 16.2078 20.4577 16.0611C21.8724 15.3407 23.4006 14.9754 25 14.9754C27.7771 14.9754 30.3599 16.0852 32.2724 18.1004C32.3271 18.1582 32.393 18.2042 32.4661 18.2356C32.5392 18.267 32.618 18.2831 32.6975 18.283C32.8476 18.2832 32.992 18.2255 33.1008 18.122C33.3355 17.8993 33.3452 17.5284 33.1224 17.2937ZM33.6913 31.116C33.4374 30.9153 33.0689 30.9584 32.8683 31.2122C30.9527 33.6351 28.0848 35.0246 25 35.0246C23.0693 35.0246 21.1951 34.4747 19.5799 33.4345C19.3079 33.2592 18.9452 33.3378 18.77 33.6098C18.5948 33.8819 18.6733 34.2445 18.9454 34.4196C20.7502 35.582 22.8439 36.1964 25 36.1964C28.4453 36.1964 31.6482 34.6446 33.7875 31.939C33.9882 31.6852 33.9452 31.3167 33.6913 31.116ZM17.9663 32.144L17.9577 32.1341C17.9546 32.1303 17.9515 32.1264 17.9482 32.1227C17.7398 31.875 17.3702 31.8434 17.1227 32.0518C16.8751 32.2602 16.8433 32.6298 17.0518 32.8774L17.0575 32.8841L17.0578 32.8839C17.064 32.8918 17.0704 32.8996 17.0771 32.9073C17.1321 32.9715 17.2003 33.023 17.2771 33.0583C17.3539 33.0935 17.4375 33.1117 17.522 33.1116C17.6619 33.1117 17.7973 33.0616 17.9034 32.9703C18.1489 32.7595 18.1771 32.3896 17.9663 32.144ZM17.2656 10C16.942 10 16.6797 10.2623 16.6797 10.5859V16.9141H15.6245C15.6246 16.9108 15.625 16.9076 15.625 16.9043V10.5859C15.625 10.2623 15.3627 10 15.0391 10C14.7154 10 14.4531 10.2623 14.4531 10.5859V16.9043C14.4531 16.9076 14.4536 16.9108 14.4536 16.9141H13.398C13.398 16.9108 13.3984 16.9076 13.3984 16.9043V10.5859C13.3984 10.2623 13.1361 10 12.8125 10C12.4889 10 12.2266 10.2623 12.2266 10.5859V16.9043C12.2266 16.9076 12.227 16.9108 12.227 16.9141H11.1719V10.5859C11.1719 10.2623 10.9096 10 10.5859 10C10.2623 10 10 10.2623 10 10.5859V17.7344C10 19.1717 10.8721 20.4689 12.168 21.0296V38.2422C12.168 39.2114 12.9565 40 13.9258 40C14.895 40 15.6836 39.2114 15.6836 38.2422V21.0296C16.9795 20.4689 17.8516 19.1717 17.8516 17.7344V10.5859C17.8516 10.2623 17.5892 10 17.2656 10ZM14.935 20.0559C14.813 20.0911 14.7057 20.1651 14.6293 20.2666C14.553 20.3681 14.5117 20.4917 14.5117 20.6188V38.2422C14.5117 38.5653 14.2489 38.8281 13.9258 38.8281C13.6027 38.8281 13.3398 38.5653 13.3398 38.2422V20.6188C13.3398 20.4917 13.2986 20.3681 13.2222 20.2666C13.1459 20.1651 13.0386 20.0911 12.9166 20.0559C12.0035 19.792 11.3356 19.0083 11.1984 18.0859H16.6531C16.5159 19.0083 15.8481 19.792 14.935 20.0559Z" fill="#FAFAFA"/>
</g>
<path fill-rule="evenodd" clip-rule="evenodd" d="M25 49C38.2548 49 49 38.2548 49 25C49 11.7452 38.2548 1 25 1C11.7452 1 1 11.7452 1 25C1 38.2548 11.7452 49 25 49ZM25 50C38.8071 50 50 38.8071 50 25C50 11.1929 38.8071 0 25 0C11.1929 0 0 11.1929 0 25C0 38.8071 11.1929 50 25 50Z" fill="#FAFAFA"/>
<defs>
<clipPath id="clip0_1855_893">
<rect width="30" height="30" fill="white" transform="translate(10 10)"/>
</clipPath>
</defs>
</svg>
