<svg width="31" height="30" viewBox="0 0 31 30" fill="none" xmlns="http://www.w3.org/2000/svg">
<path d="M24.8812 3.14226C24.8812 2.28347 24.1849 1.58718 23.3261 1.58718H21.7711C21.7711 0.72839 21.0748 0.0321045 20.216 0.0321045C19.3572 0.0321045 18.6609 0.72839 18.6609 1.58718H16.5875C16.5875 0.72839 15.8912 0.0321045 15.0324 0.0321045C14.1736 0.0321045 13.4773 0.72839 13.4773 1.58718H11.4039C11.4039 0.72839 10.7076 0.0321045 9.84881 0.0321045C8.99002 0.0321045 8.29374 0.72839 8.29374 1.58718H6.2203C6.2203 0.72839 5.52402 0.0321045 4.66523 0.0321045C3.80644 0.0321045 3.11015 0.72839 3.11015 1.58718H1.55508C0.696285 1.58718 0 2.28347 0 3.14226V24.9133C0 25.0508 0.0546126 25.1826 0.151824 25.2799C0.249035 25.3771 0.380881 25.4317 0.518359 25.4317H2.07343V26.9867C2.07343 27.1242 2.12805 27.2561 2.22526 27.3533C2.32247 27.4505 2.45432 27.5051 2.59179 27.5051H16.2417C16.2486 27.5051 16.2537 27.5015 16.2599 27.5015C19.0054 29.395 22.5851 29.575 25.5066 27.966C28.4282 26.3573 30.1898 23.2357 30.0575 19.9034C29.9251 16.5707 27.9213 13.599 24.8812 12.2269V3.14226ZM19.6976 1.58718C19.6976 1.4497 19.7522 1.31786 19.8494 1.22065C19.9467 1.12343 20.0785 1.06882 20.216 1.06882C20.3535 1.06882 20.4853 1.12343 20.5825 1.22065C20.6797 1.31786 20.7343 1.4497 20.7343 1.58718V3.14226H19.6976V1.58718ZM14.514 1.58718C14.514 1.4497 14.5687 1.31786 14.6659 1.22065C14.7631 1.12343 14.8949 1.06882 15.0324 1.06882C15.1699 1.06882 15.3017 1.12343 15.3989 1.22065C15.4961 1.31786 15.5508 1.4497 15.5508 1.58718V3.14226H14.514V1.58718ZM9.33045 1.58718C9.33045 1.4497 9.38507 1.31786 9.48228 1.22065C9.57949 1.12343 9.71134 1.06882 9.84881 1.06882C9.98629 1.06882 10.1181 1.12343 10.2153 1.22065C10.3126 1.31786 10.3672 1.4497 10.3672 1.58718V3.14226H9.33045V1.58718ZM4.14687 1.58718C4.14687 1.4497 4.20148 1.31786 4.29869 1.22065C4.3959 1.12343 4.52775 1.06882 4.66523 1.06882C4.8027 1.06882 4.93455 1.12343 5.03176 1.22065C5.12897 1.31786 5.18359 1.4497 5.18359 1.58718V3.14226H4.14687V1.58718ZM1.03672 3.14226C1.03672 3.00478 1.09133 2.87293 1.18854 2.77572C1.28575 2.67851 1.4176 2.6239 1.55508 2.6239H3.11015V3.66061C3.11015 3.72869 3.12356 3.79609 3.14961 3.85898C3.17566 3.92187 3.21384 3.97902 3.26198 4.02715C3.31011 4.07528 3.36725 4.11347 3.43014 4.13951C3.49303 4.16557 3.56044 4.17897 3.62851 4.17897H5.70194C5.83942 4.17897 5.97127 4.12436 6.06848 4.02715C6.16569 3.92994 6.2203 3.79809 6.2203 3.66061V2.6239H8.29374V3.66061C8.29374 3.79809 8.34835 3.92994 8.44556 4.02715C8.54277 4.12436 8.67462 4.17897 8.81209 4.17897H10.8855C11.023 4.17897 11.1549 4.12436 11.2521 4.02715C11.3493 3.92994 11.4039 3.79809 11.4039 3.66061V2.6239H13.4773V3.66061C13.4773 3.79809 13.5319 3.92994 13.6291 4.02715C13.7264 4.12436 13.8582 4.17897 13.9957 4.17897H16.0691C16.2066 4.17897 16.3384 4.12436 16.4356 4.02715C16.5329 3.92994 16.5875 3.79809 16.5875 3.66061V2.6239H18.6609V3.66061C18.6609 3.79809 18.7155 3.92994 18.8127 4.02715C18.9099 4.12436 19.0418 4.17897 19.1793 4.17897H21.2527C21.3902 4.17897 21.522 4.12436 21.6192 4.02715C21.7164 3.92994 21.7711 3.79809 21.7711 3.66061V2.6239H23.3261C23.4636 2.6239 23.5955 2.67851 23.6927 2.77572C23.7899 2.87293 23.8445 3.00478 23.8445 3.14226V5.73405H1.03672V3.14226ZM3.11015 25.4317H14.1425C14.4071 25.7992 14.6996 26.1458 15.0175 26.4684H3.11015V25.4317ZM29.0281 20.2481C29.0281 24.5423 25.5468 28.0235 21.2527 28.0235C16.9586 28.0235 13.4773 24.5423 13.4773 20.2481C13.4773 15.9539 16.9586 12.4727 21.2527 12.4727C25.5448 12.4775 29.0233 15.9559 29.0281 20.2481ZM21.2527 11.436C18.1565 11.434 15.2868 13.0579 13.6945 15.7132C12.1022 18.3683 12.0212 21.665 13.4813 24.395H1.03672V6.77077H23.8445V11.8263C23.0049 11.5674 22.1313 11.4358 21.2527 11.436Z" fill="#FAFAFA"/>
<path d="M4.66543 8.84424C3.80664 8.84424 3.11035 9.54052 3.11035 10.3993C3.11035 11.2581 3.80664 11.9544 4.66543 11.9544C5.52422 11.9544 6.2205 11.2581 6.2205 10.3993C6.2205 9.54052 5.52422 8.84424 4.66543 8.84424ZM4.66543 10.9177C4.52795 10.9177 4.3961 10.8631 4.29889 10.7658C4.20168 10.6686 4.14707 10.5368 4.14707 10.3993C4.14707 10.2618 4.20168 10.13 4.29889 10.0328C4.3961 9.93557 4.52795 9.88096 4.66543 9.88096C4.8029 9.88096 4.93475 9.93557 5.03196 10.0328C5.12917 10.13 5.18379 10.2618 5.18379 10.3993C5.18379 10.5368 5.12917 10.6686 5.03196 10.7658C4.93475 10.8631 4.8029 10.9177 4.66543 10.9177ZM9.84901 8.84424C8.99022 8.84424 8.29394 9.54052 8.29394 10.3993C8.29394 11.2581 8.99022 11.9544 9.84901 11.9544C10.7078 11.9544 11.4041 11.2581 11.4041 10.3993C11.4041 9.54052 10.7078 8.84424 9.84901 8.84424ZM9.84901 10.9177C9.71153 10.9177 9.57969 10.8631 9.48248 10.7658C9.38527 10.6686 9.33065 10.5368 9.33065 10.3993C9.33065 10.2618 9.38527 10.13 9.48248 10.0328C9.57969 9.93557 9.71153 9.88096 9.84901 9.88096C9.98649 9.88096 10.1183 9.93557 10.2155 10.0328C10.3128 10.13 10.3674 10.2618 10.3674 10.3993C10.3674 10.5368 10.3128 10.6686 10.2155 10.7658C10.1183 10.8631 9.98649 10.9177 9.84901 10.9177ZM15.0326 8.84424C14.1738 8.84424 13.4775 9.54052 13.4775 10.3993C13.4775 11.2581 14.1738 11.9544 15.0326 11.9544C15.8914 11.9544 16.5877 11.2581 16.5877 10.3993C16.5877 9.54052 15.8914 8.84424 15.0326 8.84424ZM15.0326 10.9177C14.8951 10.9177 14.7633 10.8631 14.6661 10.7658C14.5689 10.6686 14.5142 10.5368 14.5142 10.3993C14.5142 10.2618 14.5689 10.13 14.6661 10.0328C14.7633 9.93557 14.8951 9.88096 15.0326 9.88096C15.1701 9.88096 15.3019 9.93557 15.3991 10.0328C15.4963 10.13 15.551 10.2618 15.551 10.3993C15.551 10.5368 15.4963 10.6686 15.3991 10.7658C15.3019 10.8631 15.1701 10.9177 15.0326 10.9177ZM4.66543 12.9911C3.80664 12.9911 3.11035 13.6874 3.11035 14.5462C3.11035 15.405 3.80664 16.1013 4.66543 16.1013C5.52422 16.1013 6.2205 15.405 6.2205 14.5462C6.2205 13.6874 5.52422 12.9911 4.66543 12.9911ZM4.66543 15.0645C4.52795 15.0645 4.3961 15.0099 4.29889 14.9127C4.20168 14.8155 4.14707 14.6837 4.14707 14.5462C4.14707 14.4087 4.20168 14.2769 4.29889 14.1796C4.3961 14.0824 4.52795 14.0278 4.66543 14.0278C4.8029 14.0278 4.93475 14.0824 5.03196 14.1796C5.12917 14.2769 5.18379 14.4087 5.18379 14.5462C5.18379 14.6837 5.12917 14.8155 5.03196 14.9127C4.93475 15.0099 4.8029 15.0645 4.66543 15.0645ZM9.84901 12.9911C8.99022 12.9911 8.29394 13.6874 8.29394 14.5462C8.29394 15.405 8.99022 16.1013 9.84901 16.1013C10.7078 16.1013 11.4041 15.405 11.4041 14.5462C11.4041 13.6874 10.7078 12.9911 9.84901 12.9911ZM9.84901 15.0645C9.71153 15.0645 9.57969 15.0099 9.48248 14.9127C9.38527 14.8155 9.33065 14.6837 9.33065 14.5462C9.33065 14.4087 9.38527 14.2769 9.48248 14.1796C9.57969 14.0824 9.71153 14.0278 9.84901 14.0278C9.98649 14.0278 10.1183 14.0824 10.2155 14.1796C10.3128 14.2769 10.3674 14.4087 10.3674 14.5462C10.3674 14.6837 10.3128 14.8155 10.2155 14.9127C10.1183 15.0099 9.98649 15.0645 9.84901 15.0645ZM4.66543 17.138C3.80664 17.138 3.11035 17.8343 3.11035 18.6931C3.11035 19.5518 3.80664 20.2481 4.66543 20.2481C5.52422 20.2481 6.2205 19.5518 6.2205 18.6931C6.2205 17.8343 5.52422 17.138 4.66543 17.138ZM4.66543 19.2114C4.52795 19.2114 4.3961 19.1568 4.29889 19.0596C4.20168 18.9624 4.14707 18.8305 4.14707 18.6931C4.14707 18.5556 4.20168 18.4237 4.29889 18.3265C4.3961 18.2293 4.52795 18.1747 4.66543 18.1747C4.8029 18.1747 4.93475 18.2293 5.03196 18.3265C5.12917 18.4237 5.18379 18.5556 5.18379 18.6931C5.18379 18.8305 5.12917 18.9624 5.03196 19.0596C4.93475 19.1568 4.8029 19.2114 4.66543 19.2114ZM9.84901 17.138C8.99022 17.138 8.29394 17.8343 8.29394 18.6931C8.29394 19.5518 8.99022 20.2481 9.84901 20.2481C10.7078 20.2481 11.4041 19.5518 11.4041 18.6931C11.4041 17.8343 10.7078 17.138 9.84901 17.138ZM9.84901 19.2114C9.71153 19.2114 9.57969 19.1568 9.48248 19.0596C9.38527 18.9624 9.33065 18.8305 9.33065 18.6931C9.33065 18.5556 9.38527 18.4237 9.48248 18.3265C9.57969 18.2293 9.71153 18.1747 9.84901 18.1747C9.98649 18.1747 10.1183 18.2293 10.2155 18.3265C10.3128 18.4237 10.3674 18.5556 10.3674 18.6931C10.3674 18.8305 10.3128 18.9624 10.2155 19.0596C10.1183 19.1568 9.98649 19.2114 9.84901 19.2114ZM14.5142 20.2481C14.5142 23.9698 17.5313 26.9868 21.2529 26.9868C24.9745 26.9868 27.9916 23.9698 27.9916 20.2481C27.9916 16.5264 24.9745 13.5095 21.2529 13.5095C17.533 13.5138 14.5185 16.5283 14.5142 20.2481ZM26.9548 20.2481H25.9181C25.7806 20.2481 25.6488 20.3027 25.5516 20.3999C25.4544 20.4972 25.3998 20.629 25.3998 20.7665C25.3998 20.904 25.4544 21.0358 25.5516 21.133C25.6488 21.2302 25.7806 21.2848 25.9181 21.2848H26.8559C26.3884 23.794 24.3124 25.6879 21.7713 25.9238V24.9134C21.7713 24.7759 21.7166 24.644 21.6194 24.5468C21.5222 24.4496 21.3904 24.395 21.2529 24.395C21.1154 24.395 20.9836 24.4496 20.8864 24.5468C20.7892 24.644 20.7345 24.7759 20.7345 24.9134V25.9238C18.1934 25.6879 16.1174 23.7939 15.6499 21.2848H16.5877C16.7252 21.2848 16.857 21.2302 16.9542 21.133C17.0514 21.0358 17.106 20.904 17.106 20.7665C17.106 20.629 17.0514 20.4972 16.9542 20.3999C16.857 20.3027 16.7252 20.2481 16.5877 20.2481H15.551C15.5548 17.302 17.8008 14.8428 20.7345 14.5727V15.5829C20.7345 15.7204 20.7892 15.8522 20.8864 15.9494C20.9836 16.0466 21.1154 16.1013 21.2529 16.1013C21.3904 16.1013 21.5222 16.0466 21.6194 15.9494C21.7166 15.8522 21.7713 15.7204 21.7713 15.5829V14.5727C24.705 14.8428 26.951 17.302 26.9548 20.2481Z" fill="#FAFAFA"/>
<path d="M21.3638 19.9993L20.647 18.9239C20.5707 18.8095 20.4521 18.7302 20.3173 18.7032C20.1825 18.6762 20.0424 18.7039 19.928 18.7801C19.8713 18.8179 19.8227 18.8664 19.7848 18.923C19.747 18.9796 19.7206 19.0431 19.7073 19.1099C19.694 19.1767 19.6939 19.2454 19.7072 19.3122C19.7204 19.379 19.7467 19.4425 19.7845 19.4992L20.8212 21.0542C20.8616 21.1146 20.9142 21.1658 20.9757 21.2045C21.0371 21.2433 21.106 21.2687 21.1778 21.2793C21.2498 21.2899 21.3232 21.2852 21.3932 21.2655C21.4633 21.2458 21.5284 21.2116 21.5843 21.1651L24.6944 18.5733C24.7468 18.5298 24.79 18.4763 24.8217 18.416C24.8534 18.3558 24.8729 18.2898 24.8791 18.222C24.8853 18.1542 24.8781 18.0858 24.8579 18.0208C24.8377 17.9558 24.8048 17.8954 24.7612 17.8431C24.6732 17.7373 24.5469 17.6709 24.4099 17.6583C24.2729 17.6457 24.1365 17.6881 24.0308 17.7761L21.3638 19.9993Z" fill="#FAFAFA"/>
</svg>
