<svg width="15" height="15" viewBox="0 0 15 15" fill="none" xmlns="http://www.w3.org/2000/svg">
<path d="M7.99996 15C7.80133 15.0012 7.60686 14.9432 7.44134 14.8334C7.27582 14.7236 7.14675 14.567 7.07059 14.3835C6.99442 14.2001 6.97461 13.9981 7.01368 13.8033C7.05275 13.6086 7.14893 13.4299 7.28996 13.29L12.59 8.00003L7.28996 2.71003C7.12613 2.51873 7.04052 2.27265 7.05025 2.02097C7.05997 1.7693 7.1643 1.53056 7.34239 1.35246C7.52049 1.17437 7.75923 1.07004 8.0109 1.06032C8.26258 1.05059 8.50865 1.1362 8.69996 1.30003L14.7 7.30003C14.8862 7.48739 14.9907 7.74084 14.9907 8.00503C14.9907 8.26921 14.8862 8.52266 14.7 8.71003L8.69996 14.71C8.5137 14.8948 8.2623 14.9989 7.99996 15Z" fill="#FAFAFA"/>
<path d="M1.99996 15.0002C1.80133 15.0013 1.60686 14.9433 1.44134 14.8335C1.27582 14.7237 1.14675 14.5671 1.07059 14.3837C0.994419 14.2002 0.974607 13.9983 1.01368 13.8035C1.05275 13.6088 1.14893 13.4301 1.28996 13.2902L6.58996 8.00019L1.28996 2.71019C1.10165 2.52188 0.995865 2.26649 0.995865 2.00019C0.995865 1.73388 1.10165 1.47849 1.28996 1.29019C1.47826 1.10188 1.73365 0.996094 1.99996 0.996094C2.26626 0.996094 2.52165 1.10188 2.70996 1.29019L8.70996 7.29019C8.89621 7.47755 9.00075 7.731 9.00075 7.99519C9.00075 8.25937 8.89621 8.51282 8.70996 8.70019L2.70996 14.7002C2.61734 14.7947 2.5069 14.8698 2.38502 14.9213C2.26315 14.9728 2.13226 14.9996 1.99996 15.0002Z" fill="#FAFAFA"/>
</svg>
