<svg width="50" height="50" viewBox="0 0 50 50" fill="none" xmlns="http://www.w3.org/2000/svg">
<path fill-rule="evenodd" clip-rule="evenodd" d="M25 49C38.2548 49 49 38.2548 49 25C49 11.7452 38.2548 1 25 1C11.7452 1 1 11.7452 1 25C1 38.2548 11.7452 49 25 49ZM25 50C38.8071 50 50 38.8071 50 25C50 11.1929 38.8071 0 25 0C11.1929 0 0 11.1929 0 25C0 38.8071 11.1929 50 25 50Z" fill="#FAFAFA"/>
<g clip-path="url(#clip0_1855_901)">
<path d="M25.2695 22.8603L24.6106 24.1781L23.4435 25.3451V26.9167L24.9783 27.6841H16.9473V29.5789H13.4039L10.6316 33.0443V34.6315H10V37.4736H11.7368V36.5263H10.9473V35.5789H25.7894V36.5263H24.3684V37.4736H26.7368V27.6842H25.1174L26.2541 26.7368H27.639V25.1638L29.0403 23.3804L25.2695 22.8603ZM13.8592 30.5263H15.0527V32.7368H12.0909L13.8592 30.5263ZM16.9473 34.6315H11.5789V33.6842H16V30.5263H16.9473V34.6315ZM25.7895 28.6315V34.6315H17.8947V28.6315H25.7895ZM26.6917 24.8361V25.7894H25.9111L24.9347 26.6032L24.3909 26.3313V25.7376L25.3892 24.7393L25.813 23.8917L27.2753 24.0933L26.6917 24.8361ZM34.0472 20.8606L33.186 21.2552C33.7261 22.434 34 23.6939 34 25C34 25.576 33.9454 26.1417 33.841 26.6918H33.0527V25.79L31.97 25.2486V23.6638L30.3459 22.5811V21.8422H29.3986V23.0882L31.0226 24.1709V25.8342L32.1053 26.3755V27.6391H33.6079C32.7684 30.3915 30.6398 32.6279 27.7962 33.5565L28.0902 34.4572C32.1917 33.1176 34.9473 29.3171 34.9473 25C34.9473 23.5567 34.6445 22.164 34.0472 20.8606Z" fill="#FAFAFA"/>
<path d="M24.5264 19.2345V21.2781H23.0832L21.8197 23.8054V24.5262H19.8793L19.2571 23.2817L16.9869 24.4169L16.1286 23.4846C16.4126 21.8157 17.1626 20.2611 18.2921 19.0001L17.5863 18.3682C15.9525 20.1933 15.0527 22.5484 15.0527 25C15.0527 25.5835 15.1895 26.6405 15.1953 26.6852L15.249 27.0977H17.3299L17.9218 27.3345L18.2737 26.4549L17.5123 26.1503H16.0858C16.0474 25.8018 16.0001 25.3111 16.0001 24.9999C16.0001 24.9158 16.0017 24.8319 16.004 24.748L16.7728 25.583L18.8333 24.5527L19.2937 25.4736H22.767V24.029L23.6688 22.2254H25.4738V19.2345L24.5264 19.2345Z" fill="#FAFAFA"/>
<path d="M38.263 13.7895H35.2803L30.8593 10H28.0229L29.9176 13.7895H27.0607L25.4818 12.5263H22.5662L24.4413 15.5263L22.5663 18.5263H25.4819L27.0608 17.2632H29.9177L28.0229 21.0527H30.8593L35.2804 17.2632H38.2631C39.2208 17.2632 39.9999 16.484 39.9999 15.5263C39.9999 14.5687 39.2207 13.7895 38.263 13.7895ZM29.5557 10.9473H30.5088L33.8245 13.7894H30.9768L29.5557 10.9473ZM24.2756 13.4737H25.1495L26.0929 14.2284L25.1431 14.8616L24.2756 13.4737ZM25.1495 17.5789H24.2756L25.143 16.191L26.0929 16.8242L25.1495 17.5789ZM30.5088 20.1053H29.5558L30.9769 17.2632H33.8246L30.5088 20.1053ZM38.263 16.3158H27.038L25.8537 15.5263L27.038 14.7368H38.2629C38.6983 14.7368 39.0524 15.0909 39.0524 15.5263C39.0524 15.9616 38.6984 16.3158 38.263 16.3158ZM16.1578 36.5263H19.3157V37.4737H16.1578V36.5263ZM21.8419 35.8947C20.7101 35.8947 19.7893 36.8155 19.7893 37.9474C19.7893 39.0793 20.7101 40.0001 21.8419 40.0001C22.9737 40.0001 23.8946 39.0793 23.8946 37.9474C23.8946 36.8155 22.9737 35.8947 21.8419 35.8947ZM21.8419 39.0527C21.2325 39.0527 20.7367 38.5568 20.7367 37.9474C20.7367 37.338 21.2326 36.8421 21.8419 36.8421C22.4514 36.8421 22.9472 37.338 22.9472 37.9474C22.9472 38.5568 22.4514 39.0527 21.8419 39.0527ZM13.9472 35.8947C12.8154 35.8947 11.8945 36.8155 11.8945 37.9474C11.8945 39.0793 12.8154 40.0001 13.9472 40.0001C15.079 40.0001 15.9998 39.0793 15.9998 37.9474C15.9998 36.8155 15.079 35.8947 13.9472 35.8947ZM13.9472 39.0527C13.3378 39.0527 12.8419 38.5568 12.8419 37.9474C12.8419 37.338 13.3378 36.8421 13.9472 36.8421C14.5566 36.8421 15.0524 37.338 15.0524 37.9474C15.0525 38.5568 14.5566 39.0527 13.9472 39.0527ZM33.2104 39.0527H34.1577V40H33.2104V39.0527ZM35.1051 39.0527H36.0524V40H35.1051V39.0527ZM36.9998 39.0527H37.9472V40H36.9998V39.0527ZM31.3156 39.0527H32.2629V40H31.3156V39.0527ZM27.5262 39.0527H28.4735V40H27.5262V39.0527ZM29.4209 39.0527H30.3683V40H29.4209V39.0527ZM27.5262 37.1579H28.4735V38.1053H27.5262V37.1579ZM33.2104 37.1579H34.1577V38.1053H33.2104V37.1579ZM29.4209 37.1579H30.3683V38.1053H29.4209V37.1579ZM31.3156 37.1579H32.2629V38.1053H31.3156V37.1579ZM29.4209 35.2632H30.3683V36.2105H29.4209V35.2632ZM27.5262 35.2632H28.4735V36.2105H27.5262V35.2632ZM31.3156 35.2632H32.2629V36.2105H31.3156V35.2632ZM18.3683 16.9473H19.3156V17.8947H18.3683V16.9473ZM20.263 16.9473H21.2104V17.8947H20.263V16.9473ZM16.4735 16.9473H17.4209V17.8947H16.4735V16.9473ZM16.4735 15.0527H17.4209V16H16.4735V15.0527ZM20.263 15.0527H21.2104V16H20.263V15.0527Z" fill="#FAFAFA"/>
<path d="M22.1578 15.0527H23.1051V16H22.1578V15.0527ZM12.6841 15.0527H13.6314V16H12.6841V15.0527ZM18.3683 15.0527H19.3156V16H18.3683V15.0527ZM14.5788 15.0527H15.5261V16H14.5788V15.0527ZM16.4735 13.158H17.4209V14.1053H16.4735V13.158ZM20.263 13.158H21.2104V14.1053H20.263V13.158ZM18.3683 13.158H19.3156V14.1053H18.3683V13.158Z" fill="#FAFAFA"/>
</g>
<defs>
<clipPath id="clip0_1855_901">
<rect width="30" height="30" fill="white" transform="translate(10 10)"/>
</clipPath>
</defs>
</svg>
