<svg width="24" height="30" viewBox="0 0 24 30" fill="none" xmlns="http://www.w3.org/2000/svg">
<path fill-rule="evenodd" clip-rule="evenodd" d="M5.3673 9.65148C4.44429 9.65148 3.69604 10.3997 3.69604 11.3227C3.69604 12.2457 4.44429 12.994 5.3673 12.994C5.69177 12.994 5.95482 13.257 5.95482 13.5815C5.95482 13.906 5.69177 14.169 5.3673 14.169C3.79534 14.169 2.521 12.8947 2.521 11.3227C2.521 9.75078 3.79534 8.47644 5.3673 8.47644H18.6327C20.2046 8.47644 21.479 9.75078 21.479 11.3227C21.479 12.8947 20.2046 14.169 18.6327 14.169C18.3082 14.169 18.0452 13.906 18.0452 13.5815C18.0452 13.257 18.3082 12.994 18.6327 12.994C19.5557 12.994 20.3039 12.2457 20.3039 11.3227C20.3039 10.3997 19.5557 9.65148 18.6327 9.65148H5.3673ZM3.00512 17.8178C3.32081 17.7428 3.63754 17.9379 3.71255 18.2535L5.93678 27.6139C6.105 28.3236 6.73883 28.825 7.46809 28.825H16.2855C17.0148 28.825 17.6485 28.3239 17.8168 27.6142L18.0751 26.5242L19.071 22.3225L20.0344 18.254C20.1092 17.9382 20.4258 17.7429 20.7415 17.8177C21.0573 17.8924 21.2526 18.209 21.1779 18.5248L20.2144 22.5933L18.9601 27.8852C18.6663 29.1247 17.5594 30 16.2855 30H7.46809C6.19437 30 5.0875 29.1249 4.79358 27.8856C4.79355 27.8855 4.7936 27.8857 4.79358 27.8856L2.56934 18.5252C2.49433 18.2095 2.68943 17.8928 3.00512 17.8178Z" fill="#FAFAFA"/>
<path fill-rule="evenodd" clip-rule="evenodd" d="M13.3742 1.4327C13.1619 0.481767 14.1317 -0.299107 15.0154 0.110224C17.6718 1.34054 18.7863 3.36398 19.223 5.07125C19.4396 5.91795 19.49 6.6853 19.4866 7.2411C19.485 7.51972 19.4698 7.74728 19.4546 7.90773C19.447 7.98801 19.4394 8.05168 19.4335 8.09673C19.4322 8.10657 19.4309 8.11552 19.4298 8.12356C19.4237 8.53829 19.3268 8.94685 19.1456 9.32038C19.0474 9.52292 18.8421 9.65154 18.617 9.65154H5.38311C5.15805 9.65154 4.95277 9.52297 4.85453 9.32049C4.67206 8.94442 4.56999 8.52261 4.56999 8.07816C4.56999 7.29207 4.88907 6.58039 5.40361 6.06584C5.66772 5.80091 5.98097 5.59146 6.32658 5.44828C6.67196 5.30519 7.04222 5.23177 7.41607 5.23221C7.41583 5.23221 7.41631 5.23221 7.41607 5.23221H11.2186C11.2152 5.23241 11.2117 5.2326 11.2082 5.23279C10.9265 5.24816 10.6955 5.46159 10.6579 5.74121C10.6204 6.02082 10.7868 6.28766 11.0545 6.37684L11.2404 5.82197L11.2722 6.40609C11.2798 6.40568 11.2874 6.40525 11.2949 6.40481C11.2772 6.40643 11.2592 6.40725 11.2411 6.40725H7.41593C7.19674 6.40694 6.9788 6.44996 6.7763 6.53385C6.5738 6.61774 6.38989 6.74084 6.23514 6.89607C5.93185 7.19936 5.74503 7.61636 5.74503 8.07816C5.74503 8.2159 5.76151 8.3492 5.79254 8.4765H5.38311V9.06402L5.9117 8.80755C5.86095 8.70295 5.82074 8.59221 5.79254 8.4765H18.2076C18.1797 8.59043 18.1399 8.70146 18.0884 8.80766L18.617 9.06402V8.52122C18.6813 8.57588 18.7561 8.62586 18.8426 8.6658V8.07828L18.2975 8.07912C18.2729 8.02141 18.2626 7.98444 18.2627 7.98428L18.2628 7.98319L18.2638 7.97672C18.2648 7.97007 18.2664 7.95875 18.2685 7.94299C18.2727 7.91145 18.2786 7.8622 18.2848 7.79714C18.2971 7.66691 18.3102 7.47412 18.3116 7.23406C18.3145 6.75249 18.2705 6.08912 18.0846 5.36242C17.7164 3.92291 16.7939 2.22889 14.5215 1.17645C14.7048 1.99742 14.8596 3.21765 14.4825 4.28671C14.2886 4.83638 13.9511 5.35342 13.4059 5.74181C12.8683 6.12479 12.1694 6.35387 11.2949 6.40481C11.5594 6.38068 11.7778 6.18037 11.821 5.9138C11.8672 5.62935 11.7002 5.35342 11.4268 5.26234L11.2411 5.8168V5.23221H11.2186C11.9301 5.19193 12.4045 5.01249 12.7241 4.78479C13.0423 4.55808 13.2478 4.25473 13.3744 3.89581C13.6383 3.14769 13.545 2.19769 13.3742 1.4327ZM18.5676 8.4765H18.2076C18.2392 8.34687 18.2553 8.21348 18.2551 8.07919L18.2975 8.07912C18.3394 8.17772 18.423 8.33688 18.5676 8.4765ZM13.3742 1.4327C13.3742 1.4327 13.3742 1.43271 13.3742 1.4327V1.4327ZM3.17198 14.1691C2.24898 14.1691 1.50072 14.9174 1.50072 15.8404C1.50072 16.7634 2.24898 17.5116 3.17198 17.5116H20.828C21.751 17.5116 22.4993 16.7634 22.4993 15.8404C22.4993 14.9174 21.751 14.1691 20.828 14.1691H16.6435C16.319 14.1691 16.0559 13.9061 16.0559 13.5816C16.0559 13.2571 16.319 12.9941 16.6435 12.9941H20.828C22.3999 12.9941 23.6743 14.2684 23.6743 15.8404C23.6743 17.4123 22.4 18.6867 20.828 18.6867H17.2305C17.2297 18.7042 17.2282 18.7219 17.2258 18.7396L15.8256 29.1892C15.7825 29.5108 15.4869 29.7365 15.1653 29.6935C14.8437 29.6504 14.6179 29.3547 14.661 29.0331L16.0473 18.6867H12.4704V29.1542C12.4704 29.4787 12.2073 29.7417 11.8828 29.7417C11.5584 29.7417 11.2953 29.4787 11.2953 29.1542V18.6867H7.73282L9.11912 29.0331C9.16221 29.3547 8.93643 29.6504 8.61483 29.6935C8.29322 29.7365 7.99758 29.5108 7.95449 29.1892L6.55437 18.7396C6.55199 18.7219 6.55043 18.7042 6.54966 18.6867H3.17198C1.60002 18.6867 0.325684 17.4123 0.325684 15.8404C0.325684 14.2684 1.60002 12.9941 3.17198 12.9941H11.3755C11.7 12.9941 11.963 13.2571 11.963 13.5816C11.963 13.9061 11.7 14.1691 11.3755 14.1691H3.17198Z" fill="#FAFAFA"/>
</svg>
