<svg width="24" height="24" viewBox="0 0 24 24" fill="none" xmlns="http://www.w3.org/2000/svg">
<path d="M3.60059 14.3997H6.80053V15.1997H3.60059V14.3997ZM23.958 19.0207L22.7581 16.6208C22.7248 16.5543 22.6738 16.4984 22.6106 16.4594C22.5474 16.4203 22.4746 16.3997 22.4003 16.3997H20.0003V15.1997C20.0003 15.0936 19.9582 14.9919 19.8832 14.9169C19.8081 14.8418 19.7064 14.7997 19.6003 14.7997H11.6005C11.4944 14.7997 11.3926 14.8418 11.3176 14.9169C11.2426 14.9919 11.2005 15.0936 11.2005 15.1997V22.3996C11.2005 22.5057 11.2426 22.6074 11.3176 22.6824C11.3926 22.7574 11.4944 22.7996 11.6005 22.7996H13.2572C13.4738 23.6519 14.3404 24.1671 15.1926 23.9505C15.4702 23.88 15.7237 23.7358 15.9263 23.5332C16.1288 23.3307 16.273 23.0772 16.3436 22.7996H19.2571C19.4737 23.6519 20.3403 24.1671 21.1925 23.9505C21.4701 23.88 21.7236 23.7358 21.9262 23.5332C22.1287 23.3307 22.2729 23.0772 22.3435 22.7996H23.6003C23.7063 22.7996 23.8081 22.7574 23.8831 22.6824C23.9581 22.6074 24.0002 22.5057 24.0002 22.3996V19.1996C24.0002 19.1375 23.9858 19.0763 23.958 19.0207ZM14.8004 23.1996C14.3586 23.1996 14.0004 22.8414 14.0004 22.3996C14.0004 21.9577 14.3586 21.5996 14.8004 21.5996C15.2422 21.5996 15.6004 21.9577 15.6004 22.3996C15.5999 22.8412 15.242 23.1991 14.8004 23.1996ZM19.2003 21.9996H16.3436C16.1622 21.295 15.5279 20.8018 14.8004 20.7996C14.0729 20.8018 13.4386 21.295 13.2572 21.9996H12.0004V15.5997H19.2003V21.9996ZM21.6003 17.1997H22.153L22.9531 18.7996H21.6003V17.1997ZM20.8003 23.1996C20.3585 23.1996 20.0003 22.8414 20.0003 22.3996C20.0003 21.9577 20.3585 21.5996 20.8003 21.5996C21.2421 21.5996 21.6003 21.9577 21.6003 22.3996C21.5998 22.8412 21.2419 23.1991 20.8003 23.1996ZM23.2003 21.9996H22.3435C22.1621 21.295 21.5278 20.8018 20.8003 20.7996C20.5186 20.8012 20.2424 20.8781 20.0003 21.0222V17.1997H20.8003V19.1996C20.8003 19.3057 20.8424 19.4075 20.9175 19.4825C20.9925 19.5575 21.0942 19.5996 21.2003 19.5996H23.2003V21.9996ZM8.8005 5.59985H9.60009V6.39984H8.8005V5.59985ZM10.4005 5.59985H11.2001V6.39984H10.4005V5.59985ZM12.0004 5.59985H12.8V6.39984H12.0004V5.59985ZM13.6004 5.59985H14.4V6.39984H13.6004V5.59985Z" fill="#FAFAFA"/>
<path d="M22.0349 6.68114L20.7956 5.44171C19.8743 4.52154 18.6263 4.00323 17.3242 3.99993H14.2219L12.3395 0.988083C12.3036 0.930551 12.2536 0.883106 12.1942 0.850204C12.1349 0.817302 12.0681 0.800022 12.0003 0.799987H10.8003C10.7395 0.800016 10.6795 0.813892 10.6249 0.840561C10.5703 0.86723 10.5225 0.905993 10.4851 0.953906C10.4476 1.00182 10.4216 1.05762 10.409 1.11708C10.3964 1.17655 10.3975 1.2381 10.4122 1.29708L11.088 3.99993H7.89801L6.78357 0.285145C6.75885 0.202731 6.70822 0.130482 6.6392 0.0791163C6.57017 0.027751 6.48642 6.80922e-06 6.40038 0L4.40041 0C4.29433 0 4.19259 0.042142 4.11758 0.117155C4.04256 0.192169 4.00042 0.293909 4.00042 0.399993V4.39993H4.00417C4.00352 4.45221 4.01321 4.50411 4.03268 4.55265C4.05215 4.60118 4.08101 4.64538 4.11762 4.68272L6.61758 7.18268C7.12821 7.69665 7.73572 8.10423 8.40494 8.38182C9.07417 8.65941 9.7918 8.8015 10.5163 8.79985H10.6253L9.63138 11.0375C9.60875 11.0885 9.59702 11.1436 9.59695 11.1994C9.59689 11.2551 9.60848 11.3103 9.63099 11.3613C9.6535 11.4123 9.68643 11.4581 9.72766 11.4956C9.7689 11.5332 9.81752 11.5617 9.87042 11.5793L11.0696 11.9793C11.1514 12.0065 11.2398 12.0066 11.3217 11.9796C11.4035 11.9525 11.4745 11.8997 11.5239 11.8291L13.6431 8.79985H21.1562C21.8414 8.8011 22.3978 8.24671 22.3991 7.56152C22.3994 7.39802 22.3674 7.23606 22.3049 7.08497C22.2424 6.93389 22.1506 6.79664 22.0349 6.68114ZM11.7786 1.59997L13.2786 3.99993H11.9126L11.3126 1.59997H11.7786ZM4.80041 0.799987H6.10274L7.06272 3.99993H4.80041V0.799987ZM11.0396 11.126L10.5413 10.9598L11.8559 7.99987H13.2264L11.0396 11.126ZM21.5665 7.72567C21.534 7.80758 21.4773 7.87765 21.404 7.92662C21.3307 7.97559 21.2443 8.00113 21.1562 7.99987H14.2027L14.3221 7.82917C14.364 7.76921 14.3887 7.69892 14.3934 7.62593C14.3982 7.55293 14.3828 7.48004 14.349 7.41516C14.3152 7.35029 14.2643 7.29591 14.2018 7.25796C14.1392 7.22 14.0675 7.19992 13.9944 7.19988H11.5959C11.5185 7.19988 11.4428 7.22234 11.3779 7.26453C11.313 7.30672 11.2618 7.36683 11.2303 7.43758L10.9806 7.99987H10.5163C9.8969 8.00122 9.28337 7.87971 8.71123 7.64235C8.13909 7.405 7.61972 7.05652 7.18317 6.61709L5.366 4.79992H17.3242C18.1963 4.80368 19.0447 5.08375 19.7477 5.59991H16.8002V6.39989H20.6222L21.4702 7.24793C21.5328 7.30842 21.5755 7.3865 21.5927 7.47181C21.6099 7.55713 21.6008 7.64566 21.5665 7.72567ZM9.80557 22.9057C9.55372 22.6352 9.21593 22.4604 8.84969 22.4109L10.3771 18.1342C10.3949 18.0841 10.4026 18.0309 10.3997 17.9777C10.3967 17.9246 10.3832 17.8726 10.3599 17.8247C10.3366 17.7768 10.304 17.7341 10.264 17.699C10.224 17.6639 10.1774 17.6371 10.1269 17.6202L9.15148 17.2951L8.3939 13.1283C8.37715 13.0361 8.32858 12.9527 8.25666 12.8927C8.18474 12.8327 8.09404 12.7998 8.00035 12.7998H6.40038V11.5998C6.40038 11.4937 6.35824 11.392 6.28323 11.317C6.20821 11.242 6.10647 11.1998 6.00039 11.1998H4.40041C4.29433 11.1998 4.19259 11.242 4.11758 11.317C4.04256 11.392 4.00042 11.4937 4.00042 11.5998V12.7998H2.40045C2.30677 12.7998 2.21606 12.8327 2.14414 12.8927C2.07222 12.9527 2.02365 13.0361 2.0069 13.1283L1.24932 17.2951L0.273934 17.6202C0.224068 17.6369 0.177976 17.6632 0.138289 17.6977C0.0986022 17.7322 0.0660984 17.7742 0.0426333 17.8212C0.0191682 17.8683 0.00520141 17.9195 0.00153037 17.972C-0.00214066 18.0244 0.00455599 18.0771 0.0212379 18.1269L0.0237379 18.1342L1.55111 22.4111C1.18546 22.4609 0.848285 22.6356 0.596778 22.9057C0.525301 22.9957 0.434747 23.0688 0.331638 23.1196C0.228528 23.1704 0.11543 23.1978 0.000488281 23.1996V23.9996C0.214892 23.9984 0.426732 23.9529 0.622669 23.8658C0.818607 23.7788 0.994396 23.6521 1.13897 23.4938C1.21045 23.4037 1.30102 23.3305 1.40417 23.2797C1.50732 23.2288 1.62047 23.2015 1.73546 23.1996C1.81996 23.1989 1.90381 23.2146 1.98241 23.2457C1.98576 23.2472 1.9879 23.2504 1.9913 23.2518C2.11675 23.3143 2.23066 23.3976 2.3282 23.4983C2.47431 23.6553 2.65098 23.7807 2.84737 23.867C3.04376 23.9532 3.25571 23.9983 3.47018 23.9996C3.68454 23.9984 3.89633 23.9528 4.0922 23.8657C4.28807 23.7786 4.46378 23.6519 4.60826 23.4936C4.85991 23.1649 5.33035 23.1024 5.65904 23.354C5.71146 23.3941 5.75835 23.441 5.79849 23.4934C5.94282 23.6518 6.11841 23.7785 6.31419 23.8657C6.50997 23.9528 6.72168 23.9984 6.93597 23.9996C7.15032 23.9983 7.36213 23.9532 7.55836 23.8669C7.75459 23.7806 7.93108 23.6551 8.07695 23.4981C8.17366 23.3981 8.2865 23.3152 8.41075 23.2528C8.41435 23.2513 8.41665 23.2479 8.42015 23.2463C8.49893 23.2148 8.5831 23.1989 8.66794 23.1997C8.78267 23.2015 8.89554 23.2288 8.9984 23.2797C9.10126 23.3305 9.19153 23.4036 9.26268 23.4936C9.40709 23.6519 9.58273 23.7786 9.77852 23.8657C9.97432 23.9528 10.186 23.9984 10.4003 23.9997V23.1997C10.2856 23.1978 10.1727 23.1704 10.0699 23.1196C9.967 23.0688 9.87673 22.9957 9.80557 22.9057ZM4.80041 11.9998H5.60039V12.7998H4.80041V11.9998ZM4.80041 22.4518C4.52092 22.5382 4.26806 22.6944 4.06567 22.9057C3.81337 23.2347 3.34208 23.2969 3.01304 23.0446C2.96083 23.0046 2.91412 22.9579 2.87409 22.9057C2.74994 22.7844 2.61229 22.6777 2.46385 22.5877L0.914523 18.2499L4.80041 16.9547V22.4518ZM5.07385 16.0202L2.11485 17.0066L2.73424 13.5998H7.66656L8.28595 17.0066L5.32695 16.0202C5.2448 15.9929 5.156 15.9929 5.07385 16.0202ZM7.93615 22.5903C7.78946 22.6799 7.65336 22.7857 7.53046 22.9059C7.27932 23.2342 6.80952 23.2968 6.48118 23.0456C6.42863 23.0054 6.38164 22.9584 6.34143 22.9059C6.13786 22.6925 5.88262 22.5353 5.60044 22.4495V16.9547L9.48633 18.2499L7.93615 22.5903Z" fill="#FAFAFA"/>
<path d="M15.2002 5.59985H15.9998V6.39984H15.2002V5.59985Z" fill="#FAFAFA"/>
</svg>
