<svg width="77" height="78" viewBox="0 0 77 78" fill="none" xmlns="http://www.w3.org/2000/svg">
<path d="M37.9999 20.25C34.2915 20.25 30.6664 21.3497 27.583 23.4099C24.4996 25.4702 22.0964 28.3986 20.6772 31.8247C19.2581 35.2508 18.8868 39.0208 19.6102 42.6579C20.3337 46.2951 22.1195 49.636 24.7417 52.2583C27.3639 54.8805 30.7049 56.6663 34.342 57.3897C37.9791 58.1132 41.7491 57.7419 45.1753 56.3227C48.6014 54.9036 51.5297 52.5004 53.59 49.4169C55.6503 46.3335 56.75 42.7084 56.75 39C56.75 34.0272 54.7745 29.2581 51.2582 25.7417C47.7419 22.2254 42.9728 20.25 37.9999 20.25ZM31.5124 24.1125C30.4496 25.564 29.6071 27.1646 29.0124 28.8625C27.9708 28.6668 26.9403 28.4164 25.9249 28.1125C27.4795 26.3944 29.385 25.0303 31.5124 24.1125ZM24.3624 30.25C25.6611 30.6994 26.9893 31.0586 28.3374 31.325C27.8213 33.4304 27.5239 35.5835 27.4499 37.75H21.8124C22.024 35.0765 22.9006 32.4984 24.3624 30.25ZM24.3624 47.85C22.9183 45.5969 22.059 43.019 21.8624 40.35H27.4999C27.5705 42.5333 27.8679 44.7033 28.3874 46.825C27.026 47.0401 25.6812 47.3491 24.3624 47.75V47.85ZM25.9749 49.9375C26.9903 49.6336 28.0208 49.3832 29.0624 49.1875C29.6571 50.8854 30.4996 52.486 31.5624 53.9375C29.4303 53.0052 27.5244 51.6237 25.9749 49.8875V49.9375ZM36.7499 55.025C34.6749 54.3375 32.8375 52.0125 31.5875 48.775C33.3009 48.5638 35.0239 48.4386 36.7499 48.4V55.025ZM36.7499 45.85C34.7677 45.8911 32.7895 46.0455 30.8249 46.3125C30.316 44.329 30.0226 42.2964 29.9499 40.25H36.7499V45.85ZM36.7499 37.75H29.9499C30.0226 35.7036 30.316 33.671 30.8249 31.6875C32.7895 31.9545 34.7677 32.1089 36.7499 32.15V37.75ZM36.7499 29.65C35.0239 29.6114 33.3009 29.4862 31.5875 29.275C32.8375 25.9875 34.6749 23.6625 36.7499 23.025V29.65ZM50.0249 28.1C49.0103 28.4098 47.9796 28.6643 46.9375 28.8625C46.3405 27.1656 45.4982 25.5653 44.4375 24.1125C46.5617 25.0303 48.4664 26.3896 50.0249 28.1ZM39.2499 22.975C41.3249 23.6625 43.1624 25.9875 44.4124 29.225C42.6995 29.4419 40.9762 29.5671 39.2499 29.6V22.975ZM39.2499 32.15C41.2321 32.1084 43.2103 31.954 45.1749 31.6875C45.6822 33.6713 45.9756 35.7037 46.0499 37.75H39.2499V32.15ZM39.2499 40.25H46.0499C45.9773 42.2964 45.6839 44.329 45.1749 46.3125C43.2104 46.0455 41.2321 45.8911 39.2499 45.85V40.25ZM39.2499 55.025V48.35C40.976 48.3886 42.699 48.5138 44.4124 48.725C43.1624 52.0125 41.3249 54.3375 39.2499 55.025ZM44.4874 53.8875C45.5503 52.436 46.3928 50.8354 46.9874 49.1375C48.029 49.3332 49.0596 49.5836 50.0749 49.8875C48.5204 51.6056 46.6149 52.9697 44.4874 53.8875ZM51.6374 47.75C50.3388 47.3006 49.0106 46.9414 47.6624 46.675C48.1786 44.5696 48.476 42.4165 48.5499 40.25H54.25C54.0196 42.929 53.1214 45.5076 51.6374 47.75ZM54.1374 37.75H48.5499C48.4786 35.5627 48.1812 33.3886 47.6624 31.2625C49.0101 31.0211 50.3385 30.6827 51.6374 30.25C53.1214 32.4924 54.0196 35.071 54.25 37.75H54.1374ZM2.42495 61.9125L8.16245 72.1125C8.27147 72.3049 8.42957 72.4649 8.62062 72.5762C8.81167 72.6875 9.02883 72.7462 9.24995 72.7462C9.47107 72.7462 9.68823 72.6875 9.87928 72.5762C10.0703 72.4649 10.2284 72.3049 10.3374 72.1125L16.0749 61.9125C17.1076 60.1107 17.3823 57.9724 16.8384 55.9681C16.2945 53.9638 14.9768 52.2577 13.1749 51.225C11.3731 50.1923 9.23488 49.9177 7.23059 50.4615C5.22629 51.0054 3.52014 52.3232 2.48745 54.125C1.7932 55.3029 1.42187 56.6431 1.41089 58.0104C1.39992 59.3776 1.7497 60.7236 2.42495 61.9125ZM4.64995 55.3875C5.35277 54.1609 6.51409 53.2637 7.87841 52.8933C9.24274 52.5229 10.6983 52.7097 11.9249 53.4125C13.1516 54.1153 14.0488 55.2766 14.4192 56.641C14.7895 58.0053 14.6028 59.4609 13.8999 60.6875L9.24995 69L4.59995 60.6875C4.14112 59.8778 3.90413 58.9614 3.91291 58.0308C3.92169 57.1002 4.17593 56.1884 4.64995 55.3875Z" fill="#F5AC01"/>
<path d="M9.25 60.25C10.6307 60.25 11.75 59.1307 11.75 57.75C11.75 56.3693 10.6307 55.25 9.25 55.25C7.86929 55.25 6.75 56.3693 6.75 57.75C6.75 59.1307 7.86929 60.25 9.25 60.25Z" fill="#F5AC01"/>
<path d="M9.25 77.75C14.25 77.75 18 75.6 18 72.75C17.9488 71.9812 17.689 71.241 17.2485 70.6089C16.808 69.9768 16.2035 69.4767 15.5 69.1625L14.25 71.3375C15.05 71.7875 15.5 72.3125 15.5 72.75C15.5 73.775 13.0625 75.25 9.25 75.25C5.4375 75.25 3 73.775 3 72.75C3 72.3125 3.475 71.7875 4.25 71.3375L3 69.1625C2.29652 69.4767 1.69202 69.9768 1.25152 70.6089C0.811025 71.241 0.551201 71.9812 0.5 72.75C0.5 75.6 4.25 77.75 9.25 77.75ZM48.25 73.7875L47.5375 71.3875C46.775 71.6125 45.9875 71.8125 45.2125 71.975L45.7375 74.475C46.575 74.2375 47.425 74 48.25 73.7875ZM2.275 33.925L4.775 34.25C4.875 33.4625 5.0125 32.6625 5.175 31.875L2.675 31.375C2.525 32.225 2.3875 33.075 2.275 33.925ZM52.05 69.7C51.3125 70.0375 50.575 70.3375 49.825 70.625L50.7 72.9625C51.5 72.6625 52.3 72.325 53.0875 71.975L52.05 69.7ZM42.8375 72.4125C42.05 72.525 41.25 72.6 40.45 72.6625L40.625 75.1625C41.4875 75.1625 42.35 75 43.2 74.875L42.8375 72.4125ZM38 72.75C37.1875 72.75 36.3875 72.6625 35.6125 72.6L35.3875 75.1C36.2125 75.175 37.05 75.225 37.95 75.2625L38 72.75ZM74.25 39V38.8625H71.75V39C71.75 39.8 71.75 40.6125 71.6625 41.4125L74.1625 41.5875C74.25 40.725 74.25 39.8625 74.25 39ZM26.225 70.5875L25.3875 72.9375C26.2 73.225 27.025 73.4875 27.8875 73.7125L28.5625 71.3C27.7375 71.0875 26.9625 70.85 26.225 70.5875ZM30.875 71.875L30.35 74.375C31.175 74.55 32.025 74.7 32.85 74.825L33.2125 72.325C32.4375 72.1875 31.65 72.0375 30.875 71.875ZM54.25 68.6125L55.5 70.8125C56.25 70.4 56.9875 69.95 57.7125 69.4875L56.3625 67.3875C55.5875 67.825 54.8875 68.2375 54.25 68.6125ZM30.2 3.7125C29.3375 3.8875 28.5125 4.1 27.7 4.325L28.375 6.7375C29.1375 6.525 29.925 6.325 30.725 6.15L30.2 3.7125ZM40.2875 5.325L40.4625 2.825C39.65 2.75 38.8375 2.75 38 2.75H37.8625L38 5.25C38.775 5.25 39.5375 5.275 40.2875 5.325ZM7.3875 19.4L9.5125 20.725C9.9375 20.0375 10.3875 19.3625 10.8625 18.725L8.8375 17.25C8.325 17.95 7.85 18.675 7.3875 19.4ZM43 3.1L42.65 5.6C43.45 5.7125 44.25 5.85 45.025 6.0125L45.5375 3.575C44.75 3.3625 43.8875 3.2125 43 3.1ZM13.9625 15.075L12.1875 13.3125C11.5875 13.925 11 14.5625 10.4375 15.225L12.3375 16.8375C12.8625 16.2375 13.4 15.6375 13.9625 15.075ZM35.275 2.925C34.4 3.0125 33.5625 3.1125 32.775 3.25L33.15 5.75C33.9375 5.6375 34.7375 5.5375 35.5625 5.4625L35.275 2.925ZM25.2375 5.1125C24.425 5.4 23.625 5.725 22.8375 6.0625L23.8375 8.35C24.5625 8.0375 25.3125 7.7375 26.075 7.4625L25.2375 5.1125ZM20.5 7.175C19.7375 7.5875 18.9875 8.0125 18.2625 8.425L19.5875 10.5375C20.2625 10.1125 20.9625 9.7125 21.6625 9.2875L20.5 7.175ZM70.9875 54L68.7125 52.9625C68.375 53.7 68.0125 54.425 67.6375 55.1125L69.825 56.3625C70.275 55.6208 70.6625 54.8333 70.9875 54ZM3.2875 28.8625L5.7 29.525C5.9125 28.75 6.1625 27.975 6.425 27.225L4.0625 26.4C3.775 27.2125 3.525 28.0375 3.2875 28.8625ZM61.875 62.8625L63.6375 64.625C64.25 64.0125 64.8875 63.375 65.4 62.7375L63.5125 61.0875C63 61.7 62.4375 62.2875 61.875 62.8625ZM5 24L7.3 25C7.6125 24.2625 7.9625 23.5375 8.325 22.825L6.1125 21.6625C5.7125 22.425 5.3375 23.2 5 24ZM73.8875 44.15L71.3875 43.8C71.275 44.6 71.125 45.3875 70.9625 46.175L73.4625 46.7C73.6125 45.8625 73.7625 45 73.8875 44.15ZM74.15 36.25C74.0875 35.4 73.9875 34.5375 73.8625 33.6875L71.3625 34.05C71.4875 34.8375 71.575 35.65 71.625 36.4375L74.15 36.25ZM72.7875 49.2125L70.4 48.5C70.175 49.275 69.9125 50.0375 69.6375 50.7875L71.975 51.6625C72.275 50.85 72.55 50.025 72.7875 49.2125ZM16.1125 9.925C15.425 10.4375 14.7375 10.975 14.0875 11.5375L15.725 13.4375C16.325 12.9125 16.95 12.4125 17.6 11.9375L16.1125 9.925ZM70.35 29.35C70.575 30.125 70.7875 30.9 70.95 31.675L73.45 31.1375C73.2625 30.3 73.0375 29.4625 72.8 28.6375L70.35 29.35ZM1.9375 39H4.4375C4.4375 38.225 4.4375 37.4375 4.5125 36.6625L2.0125 36.5C1.9625 37.325 1.9375 38.1625 1.9375 39ZM2.025 41.65C2.025 42.5125 2.175 43.375 2.2875 44.225L4.7875 43.8875C4.6875 43.0875 4.6 42.2875 4.55 41.4875L2.025 41.65ZM60.1125 64.5C59.5125 65.025 58.8625 65.525 58.2375 66.0125L59.7375 68.0125C60.425 67.4875 61.1 66.95 61.75 66.3875L60.1125 64.5ZM65.025 59.225L67.025 60.7125C67.5375 60.025 68.0375 59.3125 68.5 58.6L66.4 57.2375C65.975 57.9125 65.5 58.575 65.025 59.225ZM76.75 7.1125C76.7901 6.79383 76.706 6.47194 76.5152 6.2136C76.3244 5.95526 76.0414 5.78029 75.725 5.725L74.6875 5.5625C71.0602 4.94464 67.7215 3.19436 65.15 0.562497C65.0338 0.445336 64.8955 0.352343 64.7432 0.288883C64.5909 0.225422 64.4275 0.192749 64.2625 0.192749C64.0975 0.192749 63.9341 0.225422 63.7818 0.288883C63.6295 0.352343 63.4912 0.445336 63.375 0.562497C60.8035 3.19436 57.4648 4.94464 53.8375 5.5625L52.8 5.725C52.4814 5.77455 52.1944 5.94527 51.9987 6.2015C51.803 6.45772 51.7139 6.77963 51.75 7.1C52.1346 10.3959 53.2135 13.5729 54.9157 16.4213C56.6179 19.2697 58.9046 21.7249 61.625 23.625L63.5125 25.0125C63.727 25.1678 63.9852 25.2509 64.25 25.25C64.5262 25.2491 64.7943 25.1568 65.0125 24.9875L67.375 23.1625C69.9434 21.2646 72.099 18.8642 73.7106 16.1072C75.3223 13.3502 76.3564 10.2942 76.75 7.125V7.1125ZM65.8375 21.1875L64.225 22.4375L63.1 21.6C58.5137 18.394 55.3887 13.4975 54.4125 7.9875C58.0719 7.34927 61.4796 5.69954 64.25 3.225C67.0204 5.69954 70.4281 7.34927 74.0875 7.9875C73.106 13.2726 70.1581 17.9893 65.8375 21.1875Z" fill="#F5AC01"/>
<path d="M61.7498 11.6875L59.9873 13.45L62.6373 16.1C62.7535 16.2172 62.8918 16.3102 63.0441 16.3736C63.1964 16.4371 63.3598 16.4697 63.5248 16.4697C63.6898 16.4697 63.8532 16.4371 64.0055 16.3736C64.1578 16.3102 64.2961 16.2172 64.4123 16.1L69.7123 10.8L67.9998 9L63.5748 13.4125L61.7498 11.6875Z" fill="#F5AC01"/>
</svg>
